SplineFontDB: 3.0
FontName: Tuffy-Italic
FullName: Tuffy Italic
FamilyName: Tuffy
Weight: Regular
Copyright: Created by Thatcher Ulrich (http://tulrich.com), Karoly Barta (bartakarcsi@gmail.com) and Michael Everson with FontForge (http://fontforge.sf.net)\n\nThis font, including hint instructions, has been donated to the Public Domain.  Do whatever you want with it.\n
FontLog: "2012-06-13: Small fixes.+AAoA-2010-08-20: Merged accented and extended characters from Karoly Barta and Michael Everson.+AAoA-2004-9-1: Created." 
Version: 001.280
ItalicAngle: 12
UnderlinePosition: -100
UnderlineWidth: 50
Ascent: 1597
Descent: 451
LayerCount: 2
Layer: 0 0 "Back"  1
Layer: 1 0 "Fore"  0
NeedsXUIDChange: 1
XUID: [1021 745 1046372284 8037501]
FSType: 0
OS2Version: 0
OS2_WeightWidthSlopeOnly: 0
OS2_UseTypoMetrics: 1
CreationTime: 1166531129
ModificationTime: 1339688092
PfmFamily: 33
TTFWeight: 500
TTFWidth: 5
LineGap: 0
VLineGap: 0
Panose: 2 11 6 3 6 1 0 0 0 0
OS2TypoAscent: 1597
OS2TypoAOffset: 0
OS2TypoDescent: -505
OS2TypoDOffset: 0
OS2TypoLinegap: 0
OS2WinAscent: 1950
OS2WinAOffset: 0
OS2WinDescent: 451
OS2WinDOffset: 0
HheadAscent: 1950
HheadAOffset: 0
HheadDescent: -505
HheadDOffset: 0
OS2Vendor: 'PfEd'
Lookup: 4 0 1 "Tuffy-Regular-'liga' Standard Ligatures Hungarian"  {"Tuffy-Regular-'liga' Standard Ligatures lookup 4-1"  } ['liga' ('latn' <'HUN ' > ) ]
Lookup: 1 0 0 "Tuffy-Regular-'locl' Localized Forms Romanian"  {"Tuffy-Regular-'locl' Localized Forms in Latin lookup 2-1"  } ['locl' ('DFLT' <'MOL ' 'ROM ' 'dflt' > 'latn' <'MOL ' 'ROM ' 'dflt' > ) ]
Lookup: 4 0 0 "Tuffy-Regular-'frac' Diagonal Fractions lookup 2"  {"Tuffy-Regular-'frac' Diagonal Fractions lookup 2-2"  } ['frac' ('DFLT' <'dflt' > 'grek' <'dflt' > 'latn' <'dflt' > ) ]
Lookup: 4 0 1 "Tuffy-Regular-'liga' Standard Ligatures lookup 1"  {"Tuffy-Regular-'liga' Standard Ligatures lookup 1-1"  } ['liga' ('DFLT' <'dflt' > 'latn' <'dflt' > ) ]

StartChar: exclam
Encoding: 33 33 1
Width: 421
Flags: HMW
LayerCount: 2
Fore
SplineSet
375 440 m 1
 368 406 333 381 304 381 c 0
 276.164529098 381.869858466 256.65224945 400.142753188 256.65224945 427.262322454 c 0
 256.65224945 431.319743855 257.08900926 435.575187833 258 440 c 1
 418 1389 l 1
 429 1442 485 1483 536 1483 c 0
 583.37892221 1483 619.569994018 1448.63731663 619.569994018 1406.34392679 c 0
 619.569994018 1401.32620112 619.060580715 1396.1968455 618 1391 c 1
 375 440 l 1
123 94 m 0
 136 154 195 202 254 202 c 0
 306 202 341 165 341 117 c 0
 341 109 340 102 338 94 c 0
 325 35 267 -13 208 -13 c 0
 153.665980339 -13 120.727457514 24.5726110987 120.727457514 76.1061346209 c 0
 120.727457514 82.0192535816 122.190983006 88.3368810394 123 94 c 0
EndSplineSet
EndChar

StartChar: quotedbl
Encoding: 34 34 2
Width: 690
Flags: HMW
LayerCount: 2
Fore
SplineSet
382 1092 m 2
 441 1466 l 1
 452 1516 493 1542 529 1542 c 0
 530 1542 531 1542 533 1542 c 0
 565 1542 592 1524 593 1486 c 0
 593 1480 592 1473 591 1466 c 2
 490 1092 l 2
 481 1061 449 1044 425 1044 c 0
 402.505309479 1044 380.967161683 1055.4785127 380.967161683 1081.24212062 c 0
 380.967161683 1085.04678071 380.813544377 1088.44063313 382 1092 c 2
674 1092 m 2
 734 1466 l 1
 745 1516 786 1542 822 1542 c 0
 823 1542 824 1542 826 1542 c 0
 860.07434284 1542 885.272542486 1522.53135822 885.272542486 1482.45984838 c 0
 885.272542486 1477.32623792 883.809016994 1471.66311896 883 1466 c 2
 783 1092 l 2
 774 1061 742 1044 718 1044 c 0
 695.505309479 1044 673.967161683 1055.4785127 673.967161683 1081.24212062 c 0
 673.967161683 1084.76919112 674 1088.42031894 674 1092 c 2
EndSplineSet
EndChar

StartChar: numbersign
Encoding: 35 35 3
Width: 1589
Flags: HMW
LayerCount: 2
Fore
SplineSet
1204 406 m 1
 1129 53 l 1
 980 53 l 1
 1055 406 l 1
 713 406 l 1
 638 53 l 1
 488 53 l 1
 563 406 l 1
 215 406 l 1
 245 547 l 1
 593 547 l 1
 665 885 l 1
 317 885 l 1
 347 1024 l 1
 695 1024 l 1
 775 1403 l 1
 925 1403 l 1
 845 1024 l 1
 1187 1024 l 1
 1267 1403 l 1
 1416 1403 l 1
 1336 1024 l 1
 1697 1024 l 1
 1667 885 l 1
 1306 885 l 1
 1234 547 l 1
 1595 547 l 1
 1565 406 l 1
 1204 406 l 1
1085 547 m 1
 1157 885 l 1
 815 885 l 1
 743 547 l 1
 1085 547 l 1
EndSplineSet
EndChar

StartChar: dollar
Encoding: 36 36 4
Width: 1017
Flags: HMW
LayerCount: 2
Back
SplineSet
751.95703125 1495.04003906 m 1
 899.412109375 1495.04003906 l 1
 557.25390625 -114.688476562 l 1
 409.797851562 -114.688476562 l 1
 751.95703125 1495.04003906 l 1
81.1669921875 266.240234375 m 1
 233.3125 346.112304688 l 1
 293.823242188 206.84765625 345.48046875 112.639648438 531.848632812 112.639648438 c 1
 714.120117188 112.639648438 857.586914062 219.135742188 891.106445312 376.83203125 c 1
 931.155273438 565.248046875 764.505859375 623.21484375 597.439453125 671.744140625 c 0
 451.229492188 714.215820312 258.015625 780.288085938 303.802734375 1034.24023438 c 0
 348.088867188 1279.87011719 574.799804688 1413.12011719 808.271484375 1413.12011719 c 1
 1047.88867188 1413.12011719 1119.45996094 1306.62011719 1184.06445312 1167.36035156 c 1
 1042.16113281 1087.49023438 l 1
 1004.53515625 1189.88964844 937.979492188 1271.80957031 778.235351562 1271.80957031 c 1
 624.635742188 1271.80957031 500.419921875 1198.08007812 465.594726562 1034.24023438 c 0
 425.110351562 843.776367188 597.72265625 838.9609375 731.537109375 782.3359375 c 0
 902.057617188 710.182617188 1118.06738281 673.791992188 1052.8984375 376.83203125 c 0
 998.069335938 126.982421875 772.581054688 -26.6240234375 501.809570312 -28.671875 c 1
 279.012695312 -26.6240234375 169.884765625 57.34375 81.1669921875 266.240234375 c 1
EndSplineSet
Fore
SplineSet
716 630 m 1
 607 119 l 1
 757 143 862 242 892 383 c 0
 895.457371492 399.384934462 897.220024038 415.340540124 897.220024038 430.788693347 c 0
 897.220024038 518.108647327 840.902886551 589.215383983 716 630 c 1
629 817 m 1
 725 1270 l 1
 601 1255 495 1174 469 1051 c 0
 463.863570947 1026.71869902 461.440535082 1005.07811105 461.440535082 985.727544789 c 0
 461.440535082 880.756587264 532.744027639 843.174869677 629 817 c 1
780 1537 m 1
 909 1537 l 1
 882 1411 l 1
 1032 1399 1125 1305 1184 1168 c 1
 1042 1088 l 1
 1017 1165 956 1249 851 1264 c 1
 747 775 l 1
 899.068528667 712.075091586 1064.88547434 670.536609632 1064.88547434 476.826954515 c 0
 1064.88547434 448.889959363 1061.43653338 417.787851079 1054 383 c 0
 1008 168 825 0 576 -26 c 1
 549 -155 l 1
 422 -155 l 1
 449 -26 l 1
 231 -8 155 94 82 266 c 1
 234 346 l 1
 281 237 327 133 480 117 c 1
 598 672 l 1
 430.970402048 714.406478237 296.896078332 789.019247205 296.896078332 962.602807522 c 0
 296.896078332 989.592244757 300.137354899 1018.97432286 307 1051 c 0
 352 1264 548 1397 752 1409 c 1
 780 1537 l 1
EndSplineSet
EndChar

StartChar: percent
Encoding: 37 37 5
Width: 1402
Flags: HMW
LayerCount: 2
Fore
SplineSet
453 137 m 1
 303 137 l 1
 1275 1319 l 1
 1419 1319 l 1
 453 137 l 1
333 1077 m 0
 365 1227 512 1348 664 1348 c 0
 796 1348 886 1256 886 1133 c 0
 886 1115 884 1096 880 1077 c 0
 848 928 700 809 549 809 c 0
 417 809 327 899 327 1021 c 0
 327 1039 329 1058 333 1077 c 0
460 1077 m 0
 457 1064 457 1051 456 1039 c 0
 457 972 498 924 571 924 c 0
 651 924 732 987 751 1077 c 0
 753 1088 755 1098 755 1109 c 0
 755 1174 709 1227 636 1227 c 0
 558 1227 477 1157 460 1077 c 0
841 373 m 0
 873 522 1020 643 1171 643 c 0
 1303 643 1394 551 1394 429 c 0
 1394 411 1392 392 1388 373 c 0
 1356 223 1208 104 1056 104 c 0
 924 104 835 194 835 316 c 0
 835 335 837 353 841 373 c 0
970 373 m 0
 967 359 966 346 966 334 c 0
 966 267 1007 219 1079 219 c 0
 1159 219 1240 283 1259 373 c 0
 1260.63299316 381.164965809 1262.26598632 389.996598285 1262.26598632 398.40623532 c 0
 1262.26598632 400.296258114 1262.18350342 402.164965809 1262 404 c 0
 1262 470 1216 522 1143 522 c 0
 1065 522 987 453 970 373 c 0
EndSplineSet
EndChar

StartChar: ampersand
Encoding: 38 38 6
Width: 1241
Flags: HMW
LayerCount: 2
Back
SplineSet
1079.59375 251.904296875 m 13xd0
 933.956054688 299.0078125 l 21
 859.247070312 188.416015625 724.356445312 112.639648438 615.8125 112.639648438 c 5
 437.638671875 112.639648438 308.8515625 229.375976562 350.206054688 423.935546875 c 4xd0
 392.8671875 624.639648438 583.993164062 731.135742188 743.18359375 731.135742188 c 6
 821.0078125 731.135742188 l 5
 847.5625 856.064453125 l 5
 749.2578125 856.064453125 l 4
 624.330078125 856.064453125 532.278320312 962.560546875 564.926757812 1116.16015625 c 4
 594.09375 1253.37988281 735.077148438 1357.8203125 857.958007812 1357.8203125 c 6
 864.1015625 1357.8203125 l 4
 974.693359375 1357.8203125 1043.12011719 1294.33984375 1064.05371094 1200.12988281 c 13
 1214.76660156 1263.62011719 l 21
 1174.29980469 1400.83007812 1055.49609375 1497.08984375 887.560546875 1497.08984375 c 4
 686.856445312 1497.08984375 455.551757812 1343.49023438 407.231445312 1116.16015625 c 4xe0
 369.793945312 940.032226562 460.974609375 829.440429688 521.158203125 794.624023438 c 5
 419.50390625 765.747070312 234.736328125 622.591796875 192.510742188 423.935546875 c 4
 136.354492188 159.744140625 311.345703125 -28.671875 585.77734375 -28.671875 c 5
 741.426757812 -28.671875 963.459960938 71.6796875 1079.59375 251.904296875 c 13xd0
EndSplineSet
Fore
SplineSet
1066 1200 m 1
 1039 1292 989 1352 854 1352 c 0
 725 1352 598 1260 568 1120 c 0
 564.172219182 1101.84891031 562.372225562 1084.47539316 562.372225562 1067.96416517 c 0
 562.372225562 950.756120236 653.076355266 877 753 877 c 2
 854 877 l 1
 824 735 l 1
 727 735 l 2
 541 735 392 631 349 430 c 0
 343.381546652 403.47567373 340.750777541 378.470798301 340.750777541 355.041141701 c 0
 340.750777541 199.155393961 457.207270747 113 585 113 c 0
 755 113 907 256 939 408 c 1
 744 408 l 1
 773 547 l 1
 1275 547 l 1
 1245 406 l 1
 1104 406 l 1
 1068 238 873 -29 555 -29 c 0
 343.026206777 -29 180.923286204 125.216083117 180.923286204 336.873309824 c 0
 180.923286204 366.854674777 184.175862096 397.988589469 191 430 c 0
 239 655 432 791 538 813 c 1
 465.336003461 846.85481657 400.853912489 919.573684586 400.853912489 1038.47562815 c 0
 400.853912489 1063.57032023 403.726180403 1090.72217521 410 1120 c 0
 450 1309 643 1493 884 1493 c 0
 1069 1493 1178 1389 1215 1266 c 1
 1066 1200 l 1
EndSplineSet
EndChar

StartChar: quotesingle
Encoding: 39 39 7
Width: 382
Flags: HMW
LayerCount: 2
Fore
SplineSet
382 1092 m 2
 441 1466 l 1
 452 1516 493 1542 529 1542 c 0
 530 1542 531 1542 533 1542 c 0
 565 1542 592 1524 593 1486 c 0
 593 1480 592 1473 591 1466 c 2
 490 1092 l 2
 481 1061 449 1044 425 1044 c 0
 402.505309479 1044 380.967161683 1055.4785127 380.967161683 1081.24212062 c 0
 380.967161683 1085.04678071 380.813544377 1088.44063313 382 1092 c 2
EndSplineSet
EndChar

StartChar: parenleft
Encoding: 40 40 8
Width: 548
Flags: HMW
LayerCount: 2
Fore
SplineSet
261 -84 m 1
 199.655772011 55.4774025866 163.329478476 225.810257668 163.329478476 414.343972941 c 0
 163.329478476 517.780725598 174.26382395 626.69600287 198 739 c 0
 253 997 397 1303 608 1550 c 1
 786 1550 l 1
 544 1282 405 997 348 729 c 0
 328.935571923 638.741848324 320.341696901 548.927364151 320.341696901 461.697546362 c 0
 320.341696901 256.093594576 368.086050559 64.849081996 439 -84 c 1
 261 -84 l 1
EndSplineSet
EndChar

StartChar: parenright
Encoding: 41 41 9
Width: 536
Flags: HMW
LayerCount: 2
Fore
SplineSet
248 -84 m 1
 72 -84 l 1
 298 168 453 465 509 727 c 0
 527.342689467 813.601550268 535.739136457 902.915712121 535.739136457 991.380674879 c 0
 535.739136457 1197.11263117 490.328617613 1398.25186253 419 1550 c 1
 595 1550 l 1
 654.162722471 1410.40256496 692.556513832 1227.49969909 692.556513832 1030.95991716 c 0
 692.556513832 931.839866993 682.791270106 829.251344342 661 727 c 0
 603 453 463 164 248 -84 c 1
EndSplineSet
EndChar

StartChar: asterisk
Encoding: 42 42 10
Width: 913
Flags: HMW
LayerCount: 2
Fore
SplineSet
572 518 m 1
 411 294 l 2
 398 275 372 254 341 254 c 0
 328 254 315 257 302 266 c 0
 284.799092182 277.467271879 275.64910218 294.972732121 275.64910218 314.66962808 c 0
 275.64910218 319.019998667 276.095454242 323.477271212 277 328 c 0
 280 341 286 355 297 369 c 2
 476 576 l 1
 228 562 l 1
 202.653791014 562 166.613141673 573.458328953 166.613141673 617.071955153 c 0
 166.613141673 623.359091647 167.362093683 630.314439591 169 638 c 0
 178 681 214 712 260 712 c 1
 505 698 l 1
 414 906 l 2
 410 917 408 932 411 948 c 0
 415 969 429 992 463 1009 c 0
 478 1017 493 1021 506 1021 c 0
 531 1021 553 1007 560 981 c 2
 624 762 l 1
 779 979 l 2
 798 1005 825 1019 850 1019 c 0
 863 1019 876 1015 887 1007 c 0
 907.891397168 993.340240313 915.224421572 975.806659837 915.224421572 958.54949081 c 0
 915.224421572 954.329570914 914.785938897 950.12617921 914 946 c 0
 911 930 901 915 893 904 c 1
 714 698 l 1
 964 712 l 1
 1003.57783732 712 1026.86979819 689.051719563 1026.86979819 655.256577263 c 0
 1026.86979819 649.77275307 1026.25651009 644.003325987 1025 638 c 0
 1012 577 961 562 932 562 c 1
 691 576 l 1
 782 371 l 2
 787 357 788 343 785 330 c 0
 780 305 761 282 734 268 c 0
 717 259 702 256 689 256 c 0
 658 256 641 277 636 296 c 2
 572 518 l 1
EndSplineSet
EndChar

StartChar: plus
Encoding: 43 43 11
Width: 894
Flags: HMW
LayerCount: 2
Fore
SplineSet
229 711 m 1
 536 711 l 1
 602 1022 l 1
 743 1022 l 1
 677 711 l 1
 985 711 l 1
 955 569 l 1
 647 569 l 1
 581 258 l 1
 440 258 l 1
 506 569 l 1
 199 569 l 1
 229 711 l 1
EndSplineSet
EndChar

StartChar: comma
Encoding: 44 44 12
Width: 399
Flags: HMW
LayerCount: 2
Fore
SplineSet
338 94 m 0
 305 -63 177 -186 148 -221 c 1
 99 -190 l 1
 126 -160 193 -84 208 -12 c 1
 156 -12 121 23 121 72 c 0
 120 79 122 87 123 94 c 0
 136 154 195 202 254 202 c 0
 306 202 341 165 341 117 c 0
 341 109 340 102 338 94 c 0
EndSplineSet
EndChar

StartChar: hyphen
Encoding: 45 45 13
Width: 866
Flags: HMW
LayerCount: 2
Fore
SplineSet
259 705 m 1
 936 705 l 1
 906 563 l 1
 229 563 l 1
 259 705 l 1
EndSplineSet
EndChar

StartChar: period
Encoding: 46 46 14
Width: 405
Flags: HMW
LayerCount: 2
Back
SplineSet
85.009765625 138.778320312 m 4
 101.29296875 215.381835938 176.680664062 277.555664062 253.284179688 277.555664062 c 4
 329.890625 277.555664062 378.846679688 215.381835938 362.564453125 138.778320312 c 4
 346.28125 62.171875 270.893554688 0 194.288085938 0 c 4
 117.68359375 0 68.7265625 62.171875 85.009765625 138.778320312 c 4
EndSplineSet
Fore
SplineSet
123 94 m 0
 136 154 195 202 254 202 c 0
 306 202 341 165 341 117 c 0
 341 109 340 102 338 94 c 0
 325 35 267 -13 208 -13 c 0
 153.665980339 -13 120.727457514 24.5726110987 120.727457514 76.1061346209 c 0
 120.727457514 82.0192535816 122.190983006 88.3368810394 123 94 c 0
EndSplineSet
EndChar

StartChar: slash
Encoding: 47 47 15
Width: 808
Flags: HMW
LayerCount: 2
Fore
SplineSet
135 0 m 1
 -23 0 l 1
 1022 1544 l 1
 1180 1544 l 1
 135 0 l 1
EndSplineSet
EndChar

StartChar: zero
Encoding: 48 48 16
Width: 1136
Flags: HMW
LayerCount: 2
Fore
SplineSet
413 727 m 0
 395 644 384 555 384 472 c 0
 385 277 442 113 597 113 c 0
 821 113 987 449 1046 727 c 0
 1065 816 1075 911 1075 999 c 0
 1075.00889958 1000.70871891 1075.01336382 1002.41498255 1075.01336382 1004.11869927 c 0
 1075.01336382 1193.85291241 1019.6472642 1352 869 1352 c 0
 647 1352 473 1008 413 727 c 0
255 727 m 0
 342 1137 596 1493 899 1493 c 0
 1128 1493 1235 1288 1235 1011 c 0
 1235 922 1225 826 1204 727 c 0
 1117 319 871 -29 567 -29 c 0
 335 -29 225 175 225 454 c 0
 225 539 235 632 255 727 c 0
EndSplineSet
EndChar

StartChar: one
Encoding: 49 49 17
Width: 1136
Flags: HMW
LayerCount: 2
Fore
SplineSet
838 1206 m 1
 680 1206 l 1
 956 1456 l 1
 1048 1456 l 1
 739 0 l 1
 582 0 l 1
 838 1206 l 1
EndSplineSet
EndChar

StartChar: two
Encoding: 50 50 18
Width: 1136
Flags: HMW
LayerCount: 2
Back
SplineSet
326.01171875 1007.74023438 m 4
 383.127929688 1276.45019531 628.434570312 1494.53027344 873.5703125 1494.53027344 c 4
 1118.70800781 1494.53027344 1271.3046875 1276.45019531 1214.18847656 1007.74023438 c 4
 1157.07324219 739.03125 911.767578125 520.950195312 666.62890625 520.950195312 c 4
 421.493164062 520.950195312 268.895507812 739.03125 326.01171875 1007.74023438 c 4
552.327148438 1007.74023438 m 4
 585.39453125 1163.30957031 709.791992188 1289.55957031 830.001953125 1289.55957031 c 4
 950.21484375 1289.55957031 1020.94238281 1163.30957031 987.875 1007.74023438 c 4
 954.807617188 852.172851562 830.408203125 725.9140625 710.1953125 725.9140625 c 4
 589.985351562 725.9140625 519.259765625 852.172851562 552.327148438 1007.74023438 c 4
EndSplineSet
Fore
SplineSet
498 1110 m 1
 371 1165 l 1
 461 1348 685 1495 887 1495 c 0
 1068.16818274 1495 1226.48244882 1395.47487907 1226.48244882 1173.00392259 c 0
 1226.48244882 1136.37103916 1222.18989631 1096.4045872 1213 1053 c 0
 1153 772 819 610 707 541 c 0
 588 467 351 274 323 141 c 1
 1046 141 l 1
 1016 0 l 1
 109 0 l 1
 178 326 447 528 689 676 c 0
 812 751 1017 850 1060 1053 c 0
 1066.11125628 1081.519196 1068.96202061 1108.11173765 1068.96202061 1132.73449574 c 0
 1068.96202061 1277.33321872 970.647688432 1354 857 1354 c 0
 730 1354 583 1272 498 1110 c 1
EndSplineSet
EndChar

StartChar: three
Encoding: 51 51 19
Width: 1126
Flags: HMW
LayerCount: 2
Back
SplineSet
254.34375 1076.05957031 m 4
 306.450195312 1321.20019531 542.243164062 1494.53027344 787.380859375 1494.53027344 c 4
 1032.51953125 1494.53027344 1194.62695312 1321.20019531 1142.52050781 1076.05957031 c 4
 1090.41601562 830.924804688 854.623046875 657.592773438 609.484375 657.592773438 c 4
 364.346679688 657.592773438 202.23828125 830.924804688 254.34375 1076.05957031 c 4
455.038085938 1076.05957031 m 4
 483.594726562 1210.41015625 610.3671875 1293.83007812 744.720703125 1293.83007812 c 4
 879.07421875 1293.83007812 970.384765625 1210.41015625 941.827148438 1076.05957031 c 4
 913.26953125 941.705078125 786.49609375 858.286132812 652.143554688 858.286132812 c 4
 517.7890625 858.286132812 426.479492188 941.705078125 455.038085938 1076.05957031 c 4
698.432617188 1076.05957031 m 29
111.526367188 414.198242188 m 4
 163.631835938 659.333007812 404.870117188 858.286132812 650.009765625 858.286132812 c 4
 895.14453125 858.286132812 1051.80664062 659.333007812 999.701171875 414.198242188 c 4
 947.595703125 169.059570312 706.356445312 -29.8896484375 461.221679688 -29.8896484375 c 4
 216.084960938 -29.8896484375 59.4208984375 169.059570312 111.526367188 414.198242188 c 4
312.221679688 414.198242188 m 4
 340.779296875 548.552734375 472.99609375 657.592773438 607.350585938 657.592773438 c 4
 741.704101562 657.592773438 827.56640625 548.552734375 799.008789062 414.198242188 c 4
 770.451171875 279.844726562 638.233398438 170.803710938 503.880859375 170.803710938 c 4
 369.525390625 170.803710938 283.6640625 279.844726562 312.221679688 414.198242188 c 4
555.615234375 414.198242188 m 29
EndSplineSet
Fore
SplineSet
167 252 m 1
 332 299 l 1
 359 188 462 113 571 113 c 0
 749 113 928 229 969 424 c 0
 974.155308619 448.098070523 976.579590023 470.830627437 976.579590023 492.178714542 c 0
 976.579590023 648.893244692 845.937347199 731 706 731 c 2
 628 731 l 1
 655 856 l 1
 753 856 l 2
 878 856 1015 963 1048 1116 c 0
 1051.5326942 1132.68893469 1053.21046446 1148.90300884 1053.21046446 1164.51026104 c 0
 1053.21046446 1277.0234426 966.016503895 1358 858 1358 c 2
 852 1358 l 2
 742 1358 646 1294 585 1200 c 1
 462 1264 l 1
 560 1401 719 1497 887 1497 c 0
 1064.28804624 1497 1214.34689525 1377.19153224 1214.34689525 1193.15672965 c 0
 1214.34689525 1168.5424095 1211.66255612 1142.77917166 1206 1116 c 0
 1169 940 1030 829 955 795 c 1
 1032.50454529 770.026313185 1134.48186834 660.510303207 1134.48186834 503.492908686 c 0
 1134.48186834 478.178216048 1131.8312122 451.628838749 1126 424 c 0
 1070 160 815 -29 541 -29 c 0
 385 -29 206 72 167 252 c 1
EndSplineSet
EndChar

StartChar: four
Encoding: 52 52 20
Width: 1136
Flags: HMW
LayerCount: 2
Fore
SplineSet
971 1221 m 1
 439 539 l 1
 826 539 l 1
 971 1221 l 1
1171 1445 m 1
 978 537 l 1
 1167 537 l 1
 1137 397 l 1
 948 397 l 1
 864 0 l 1
 707 0 l 1
 791 397 l 1
 172 397 l 1
 1003 1456 l 1
 1016 1456 l 1
 1173 1456 l 1
 1171 1445 l 1
EndSplineSet
EndChar

StartChar: five
Encoding: 53 53 21
Width: 1136
Flags: HMW
LayerCount: 2
Back
SplineSet
464.704101562 1131.5703125 m 4
 507.2890625 1331.91992188 706.368164062 1494.53027344 909.077148438 1494.53027344 c 4
 1111.78808594 1494.53027344 1241.74023438 1331.91992188 1199.15429688 1131.5703125 c 4
 1156.56933594 931.219726562 957.490234375 768.614257812 754.779296875 768.614257812 c 4
 552.0703125 768.614257812 422.118164062 931.219726562 464.704101562 1131.5703125 c 4
233.22265625 414.198242188 m 4
 285.327148438 659.333007812 526.568359375 858.286132812 771.705078125 858.286132812 c 4
 1016.84277344 858.286132812 1173.50585938 659.333007812 1121.40039062 414.198242188 c 4
 1069.29492188 169.059570312 828.0546875 -29.8896484375 582.91796875 -29.8896484375 c 4
 337.78125 -29.8896484375 181.1171875 169.059570312 233.22265625 414.198242188 c 4
433.91796875 414.198242188 m 4
 462.475585938 548.552734375 594.693359375 657.592773438 729.046875 657.592773438 c 4
 863.399414062 657.592773438 949.264648438 548.552734375 920.706054688 414.198242188 c 4
 892.1484375 279.844726562 759.9296875 170.803710938 625.576171875 170.803710938 c 4
 491.223632812 170.803710938 405.360351562 279.844726562 433.91796875 414.198242188 c 4
677.311523438 414.198242188 m 29
EndSplineSet
Fore
SplineSet
776 807 m 0
 616 807 531 735 495 711 c 1
 366 786 l 1
 602 1456 l 1
 1274 1456 l 1
 1245 1315 l 1
 704 1315 l 1
 547 887 l 1
 612 922 692 942 804 942 c 0
 1021 942 1159 802 1160 584 c 0
 1160 545 1156 503 1147 459 c 0
 1092 201 871 -29 592 -29 c 0
 361 -29 220 119 205 330 c 1
 367 358 l 1
 380 256 425 113 622 113 c 0
 798 113 947 254 991 461 c 0
 997.209507411 491.012619153 1000.00774075 518.947067787 1000.00774075 546.36656797 c 0
 1000.00774075 698.13302289 904.33391694 807 776 807 c 0
EndSplineSet
EndChar

StartChar: six
Encoding: 54 54 22
Width: 1136
Flags: HMW
LayerCount: 2
Back
SplineSet
439.87109375 1131.5703125 m 4
 482.456054688 1331.91992188 681.536132812 1494.53027344 884.245117188 1494.53027344 c 4
 1086.95605469 1494.53027344 1216.90820312 1331.91992188 1174.32226562 1131.5703125 c 4
 1131.73730469 931.219726562 932.658203125 768.614257812 729.947265625 768.614257812 c 4
 527.23828125 768.614257812 397.28515625 931.219726562 439.87109375 1131.5703125 c 4
208.390625 414.198242188 m 4
 260.495117188 659.333007812 501.736328125 858.286132812 746.873046875 858.286132812 c 4
 992.010742188 858.286132812 1148.67578125 659.333007812 1096.5703125 414.198242188 c 4
 1044.46484375 169.059570312 803.22265625 -29.8896484375 558.0859375 -29.8896484375 c 4
 312.94921875 -29.8896484375 156.28515625 169.059570312 208.390625 414.198242188 c 4
409.0859375 414.198242188 m 4
 437.643554688 548.552734375 569.861328125 657.592773438 704.21484375 657.592773438 c 4
 838.567382812 657.592773438 924.432617188 548.552734375 895.874023438 414.198242188 c 4
 867.31640625 279.844726562 735.09765625 170.803710938 600.744140625 170.803710938 c 4
 466.391601562 170.803710938 380.528320312 279.844726562 409.0859375 414.198242188 c 4
652.479492188 414.198242188 m 29
EndSplineSet
Fore
SplineSet
612 827 m 1
 661 846 696 858 755 858 c 0
 971 858 1125 709 1125 502 c 0
 1125.10208424 498.93747285 1125.15206252 495.854103316 1125.15206252 492.752019078 c 0
 1125.15206252 465.466608746 1121.28541033 436.733304373 1115 408 c 0
 1071 201 844 -29 565 -29 c 0
 335 -29 207 137 207 323 c 0
 207 351 210 381 216 410 c 0
 259 614 417 784 482 870 c 1
 940 1454 l 1
 1095 1454 l 1
 612 827 l 1
966 408 m 0
 970 429 972 450 972 471 c 0
 972 604 879 709 724 709 c 0
 546 709 399 561 367 412 c 0
 362 390 359 369 359 349 c 0
 359 212 462 121 601 121 c 0
 786 121 936 266 966 408 c 0
EndSplineSet
EndChar

StartChar: seven
Encoding: 55 55 23
Width: 1136
Flags: HMW
LayerCount: 2
Fore
SplineSet
1388 1456 m 1
 524 0 l 1
 342 0 l 1
 1136 1307 l 1
 389 1307 l 1
 420 1456 l 1
 1388 1456 l 1
EndSplineSet
EndChar

StartChar: eight
Encoding: 56 56 24
Width: 1136
Flags: HMW
LayerCount: 2
Back
SplineSet
365.365234375 1076.05957031 m 4
 417.471679688 1321.20019531 653.266601562 1494.53027344 898.40234375 1494.53027344 c 4
 1143.54003906 1494.53027344 1305.64941406 1321.20019531 1253.54394531 1076.05957031 c 4
 1201.43847656 830.924804688 965.643554688 657.592773438 720.505859375 657.592773438 c 4
 475.370117188 657.592773438 313.260742188 830.924804688 365.365234375 1076.05957031 c 4
566.059570312 1076.05957031 m 4
 594.616210938 1210.41015625 721.389648438 1293.83007812 855.7421875 1293.83007812 c 4
 990.095703125 1293.83007812 1081.40527344 1210.41015625 1052.84863281 1076.05957031 c 4
 1024.29101562 941.705078125 897.518554688 858.286132812 763.1640625 858.286132812 c 4
 628.8125 858.286132812 537.501953125 941.705078125 566.059570312 1076.05957031 c 4
809.454101562 1076.05957031 m 29
222.548828125 414.198242188 m 4
 274.653320312 659.333007812 515.89453125 858.286132812 761.03125 858.286132812 c 4
 1006.16601562 858.286132812 1162.82519531 659.333007812 1110.72070312 414.198242188 c 4
 1058.61523438 169.059570312 817.37890625 -29.8896484375 572.244140625 -29.8896484375 c 4
 327.106445312 -29.8896484375 170.442382812 169.059570312 222.548828125 414.198242188 c 4
423.2421875 414.198242188 m 4
 451.80078125 548.552734375 584.017578125 657.592773438 718.373046875 657.592773438 c 4
 852.725585938 657.592773438 938.587890625 548.552734375 910.029296875 414.198242188 c 4
 881.471679688 279.844726562 749.255859375 170.803710938 614.90234375 170.803710938 c 4
 480.547851562 170.803710938 394.684570312 279.844726562 423.2421875 414.198242188 c 4
666.637695312 414.198242188 m 29
EndSplineSet
Fore
SplineSet
902 1497 m 0
 1108 1497 1242 1375 1242 1201 c 0
 1242.12701665 1197.95160031 1242.18950039 1194.87093416 1242.18950039 1191.76005073 c 0
 1242.18950039 1170.37900077 1239.23790008 1147.57055035 1234 1124 c 0
 1193 930 1050 844 979 807 c 1
 1059 766 1172 673 1172 512 c 0
 1172 487 1169 461 1163 432 c 0
 1107 168 838 -29 576 -29 c 0
 347 -29 186 124 185 336 c 0
 186 367 189 399 196 432 c 0
 243 653 428 768 532 807 c 1
 477.36335823 843.755559009 402.990104071 906.168714124 402.990104071 1034.43222085 c 0
 402.990104071 1062.15962422 405.733868258 1090.78339775 413 1124 c 0
 458 1335 666 1497 902 1497 c 0
571 1124 m 0
 566.833758533 1102.1272323 563.991167699 1083.21061562 563.991167699 1062.95488795 c 0
 563.991167699 948.201166102 647.742282553 881 773 881 c 0
 916 881 1044 969 1077 1124 c 0
 1081 1143 1082 1161 1082 1178 c 0
 1082 1282 1011 1356 872 1356 c 0
 708 1356 598 1251 571 1124 c 0
606 113 m 0
 788 113 968 256 1005 432 c 0
 1010 455 1013 477 1013 498 c 0
 1013 648 892 739 743 739 c 0
 563 739 395 627 354 432 c 0
 349 409 347 386 346 364 c 0
 347 216 456 113 606 113 c 0
EndSplineSet
EndChar

StartChar: nine
Encoding: 57 57 25
Width: 1136
Flags: HMW
LayerCount: 2
Back
SplineSet
465.229492188 1054.5 m 5
 437.805664062 925.4765625 513.810546875 811.358398438 657.112304688 811.358398438 c 5
 795.635742188 811.358398438 916.140625 925.4765625 941.143554688 1043.11035156 c 5
 972.413085938 1190.21972656 882.84375 1291.95996094 752.607421875 1291.95996094 c 5
 628.774414062 1291.95996094 494.985351562 1194.49023438 465.229492188 1054.5 c 5
889.990234375 716.073242188 m 5
 813.68359375 635.109375 696.548828125 606.3515625 613.537109375 606.3515625 c 5
 329.322265625 606.3515625 214.05859375 844.34375 258.325195312 1052.59960938 c 5
 310.72265625 1299.11035156 550.8046875 1497.66992188 796.333007812 1497.66992188 c 4
 1101.64453125 1497.66992188 1207.75 1233.45019531 1157.32714844 951.095703125 c 4
 1145.35449219 884.068359375 1125.75585938 811.487304688 1096.58105469 720.510742188 c 5
EndSplineSet
Fore
SplineSet
870 633 m 1
 821 614 785 602 726 602 c 0
 510 602 357 751 357 958 c 0
 357 988 360 1020 367 1053 c 0
 411 1260 639 1491 917 1491 c 0
 1148 1491 1275 1323 1275 1138 c 0
 1275 1109 1271 1080 1265 1051 c 0
 1221 846 1065 676 999 590 c 2
 550 0 l 1
 382 0 l 1
 870 633 l 1
517 1053 m 0
 512.645856533 1033.84176875 509.808398293 1015.4418801 509.808398293 997.139947569 c 0
 509.808398293 994.425194878 509.870828693 991.712597439 510 989 c 0
 510 856 604 752 758 752 c 0
 936 752 1084 899 1116 1049 c 0
 1119.47406837 1067.23885893 1122.1938148 1085.47771786 1122.1938148 1103.06143529 c 0
 1122.1938148 1105.72339592 1122.13148291 1108.37034184 1122 1111 c 0
 1122 1248 1020 1341 881 1341 c 0
 697 1341 547 1194 517 1053 c 0
EndSplineSet
EndChar

StartChar: colon
Encoding: 58 58 26
Width: 423
Flags: HMW
LayerCount: 2
Fore
SplineSet
288 823 m 0
 301 883 360 931 419 931 c 0
 471 931 506 894 506 846 c 0
 506 838 505 831 503 823 c 0
 490 764 432 716 373 716 c 0
 321 716 286 752 286 801 c 0
 285 808 287 816 288 823 c 0
133 94 m 0
 146 154 205 202 264 202 c 0
 316 202 351 165 351 117 c 0
 351 109 350 102 348 94 c 0
 335 35 277 -13 218 -13 c 0
 163.665980339 -13 130.727457514 24.5726110987 130.727457514 76.1061346209 c 0
 130.727457514 82.0192535816 132.190983006 88.3368810394 133 94 c 0
EndSplineSet
EndChar

StartChar: semicolon
Encoding: 59 59 27
Width: 423
Flags: HMW
LayerCount: 2
Fore
SplineSet
348 94 m 0
 315 -63 187 -186 158 -221 c 1
 109 -190 l 1
 136 -160 203 -84 218 -12 c 1
 166 -12 131 23 131 72 c 0
 130 79 132 87 133 94 c 0
 146 154 205 202 264 202 c 0
 316 202 351 165 351 117 c 0
 351 109 350 102 348 94 c 0
288 823 m 0
 301 883 360 931 419 931 c 0
 471 931 506 894 506 846 c 0
 506 838 505 831 503 823 c 0
 490 764 432 716 373 716 c 0
 318.665980339 716 285.727457514 753.572611099 285.727457514 805.106134621 c 0
 285.727457514 811.019253582 287.190983006 817.336881039 288 823 c 0
EndSplineSet
EndChar

StartChar: less
Encoding: 60 60 28
Width: 843
Flags: HMW
LayerCount: 2
Fore
SplineSet
597 23 m 1
 219 635 l 1
 855 1235 l 1
 1054 1235 l 1
 416 633 l 1
 796 23 l 1
 597 23 l 1
EndSplineSet
EndChar

StartChar: equal
Encoding: 61 61 29
Width: 907
Flags: HMW
LayerCount: 2
Fore
SplineSet
250 866 m 1
 1050 866 l 1
 1020 725 l 1
 220 725 l 1
 250 866 l 1
172 500 m 1
 972 500 l 1
 942 358 l 1
 142 358 l 1
 172 500 l 1
EndSplineSet
EndChar

StartChar: greater
Encoding: 62 62 30
Width: 856
Flags: HMW
LayerCount: 2
Fore
SplineSet
295 20 m 1
 96 20 l 1
 735 633 l 1
 355 1235 l 1
 554 1235 l 1
 932 635 l 1
 295 20 l 1
EndSplineSet
EndChar

StartChar: question
Encoding: 63 63 31
Width: 985
Flags: HMW
LayerCount: 2
Back
SplineSet
497.098632812 1093.13964844 m 0
 519.64453125 1199.20996094 647.891601562 1289.55957031 782.244140625 1289.55957031 c 4
 916.598632812 1289.55957031 1006.43359375 1199.20996094 983.887695312 1093.13964844 c 0
 961.342773438 987.072265625 834.004882812 900.987304688 699.650390625 900.987304688 c 0
 565.297851562 900.987304688 474.553710938 987.072265625 497.098632812 1093.13964844 c 0
283.594726562 1093.13964844 m 0
 330.690429688 1314.70996094 571.690429688 1494.53027344 821.541015625 1494.53027344 c 0
 1071.39257812 1494.53027344 1235.94824219 1314.70996094 1188.85253906 1093.13964844 c 0
 1141.75683594 871.573242188 900.756835938 691.752929688 650.905273438 691.752929688 c 0
 401.0546875 691.752929688 236.499023438 871.573242188 283.594726562 1093.13964844 c 0
EndSplineSet
Fore
SplineSet
679 501 m 2
 650 360 l 1
 493 360 l 1
 523 505 l 2
 563 692 706 759 829 852 c 0
 911 914 979 960 1007 1094 c 0
 1012.02137306 1117.71203946 1014.43572366 1139.90655838 1014.43572366 1160.54556513 c 0
 1014.43572366 1287.87489963 922.543303803 1356 784 1356 c 0
 610 1356 458 1196 434 1085 c 1
 293 1110 l 1
 364 1327 580 1497 807 1497 c 0
 1003.82948468 1497 1175.17904032 1396.62452198 1175.17904032 1189.76739552 c 0
 1175.17904032 1161.21265571 1171.91392577 1130.62887777 1165 1098 c 0
 1135 956 1050 862 964 791 c 0
 839 688 714 668 679 501 c 2
416 94 m 0
 429 154 488 202 547 202 c 0
 599 202 634 165 634 117 c 0
 634 109 633 102 631 94 c 0
 618 35 560 -13 501 -13 c 0
 446.665980339 -13 413.727457514 24.5726110987 413.727457514 76.1061346209 c 0
 413.727457514 82.0192535816 415.190983006 88.3368810394 416 94 c 0
EndSplineSet
EndChar

StartChar: at
Encoding: 64 64 32
Width: 1624
Flags: HMW
LayerCount: 2
Back
SplineSet
1250.83789062 730.85546875 m 4
 1270.60351562 823.844726562 1362.11425781 899.309570312 1455.09472656 899.309570312 c 4
 1548.08398438 899.309570312 1607.51367188 823.844726562 1587.74804688 730.85546875 c 4
 1567.98339844 637.868164062 1476.47167969 562.401367188 1383.48242188 562.401367188 c 4
 1290.50195312 562.401367188 1231.07324219 637.868164062 1250.83789062 730.85546875 c 4
1124.51464844 730.18359375 m 0
 1159.08398438 892.821289062 1319.13183594 1024.8203125 1481.77246094 1024.8203125 c 0
 1644.41210938 1024.8203125 1748.35449219 892.821289062 1713.78515625 730.18359375 c 0
 1679.21484375 567.543945312 1519.15820312 435.547851562 1356.51855469 435.547851562 c 0
 1193.87890625 435.547851562 1089.94433594 567.543945312 1124.51464844 730.18359375 c 0
736.890625 730.654296875 m 0
 761.8046875 847.868164062 878.665039062 944.243164062 995.879882812 944.243164062 c 0
 1113.09277344 944.243164062 1188.97949219 847.868164062 1164.06542969 730.654296875 c 0
 1139.15039062 613.439453125 1022.29296875 517.064453125 905.080078125 517.064453125 c 0
 787.865234375 517.064453125 711.975585938 613.439453125 736.890625 730.654296875 c 0
312.80078125 730.323242188 m 0
 387.713867188 1082.75976562 732.357421875 1366.99023438 1084.79785156 1366.99023438 c 0
 1437.24316406 1366.99023438 1661.05761719 1082.75976562 1586.14453125 730.323242188 c 0
 1511.23144531 377.880859375 1166.58691406 93.654296875 814.141601562 93.654296875 c 0
 461.702148438 93.654296875 237.88671875 377.880859375 312.80078125 730.323242188 c 0
185.094726562 730.18359375 m 0
 274.950195312 1152.91992188 689.168945312 1494.53027344 1111.90722656 1494.53027344 c 0
 1534.64257812 1494.53027344 1803.640625 1152.91992188 1713.78515625 730.18359375 c 0
 1623.9296875 307.4453125 1209.70898438 -34.16015625 786.973632812 -34.16015625 c 0
 364.236328125 -34.16015625 95.2392578125 307.4453125 185.094726562 730.18359375 c 0
607.833984375 730.18359375 m 0
 647.770507812 918.067382812 834.16796875 1071.79003906 1022.05078125 1071.79003906 c 0
 1209.93359375 1071.79003906 1330.98144531 918.067382812 1291.04492188 730.18359375 c 0
 1251.109375 542.299804688 1064.71289062 388.577148438 876.830078125 388.577148438 c 0
 688.946289062 388.577148438 567.8984375 542.299804688 607.833984375 730.18359375 c 0
EndSplineSet
Fore
SplineSet
747 731 m 0
 744 715 742 699 742 684 c 0
 742 584 815 516 915 516 c 0
 1038 516 1134 614 1159 731 c 0
 1162 745 1163 759 1163 772 c 0
 1163 866 1095 946 1006 946 c 0
 895 946 772 850 747 731 c 0
1221 213 m 1
 1277 111 l 1
 1130 18 966 -35 798 -35 c 0
 429 -35 179 224 179 569 c 0
 179 622 184 676 196 731 c 0
 286 1153 699 1495 1123 1495 c 0
 1495 1495 1745 1231 1745 913 c 0
 1745 870 1741 827 1731 782 c 0
 1687 573 1492 418 1373 418 c 0
 1299 418 1220 461 1179 518 c 1
 1103 438 994 389 888 389 c 0
 724 389 610 506 610 660 c 0
 610 683 613 707 618 731 c 0
 658 918 844 1071 1033 1071 c 0
 1195 1071 1292 951 1292 805 c 0
 1292 781 1288 756 1283 731 c 0
 1279.81053497 718.242139878 1279.98366858 704.570827965 1279.98366858 690.581742627 c 0
 1279.98366858 617.439428854 1324.76276678 547 1394 547 c 0
 1466 547 1575 655 1602 782 c 0
 1609 816 1613 850 1613 884 c 0
 1613 1138 1412 1368 1096 1368 c 0
 737 1368 396 1071 323 727 c 0
 314 683 309 639 309 597 c 0
 309 314 513 92 825 92 c 0
 952 92 1110 145 1221 213 c 1
EndSplineSet
EndChar

StartChar: m
Encoding: 109 109 33
Width: 1533
Flags: HMW
LayerCount: 2
Back
SplineSet
280.576171875 0 m 9
 129.024414062 0 l 1
 357.12890625 1073.15039062 l 1
 508.680664062 1073.15039062 l 1
 465.584960938 870.400390625 l 17
 544.388671875 980.9921875 621.271484375 1101.8203125 766.678710938 1101.8203125 c 0
 965.334960938 1101.8203125 1062.96582031 983.040039062 993.75 657.408203125 c 1
 854.015625 0 l 1
 702.463867188 0 l 0
 842.198242188 657.408203125 l 1
 888.77734375 876.543945312 872.681640625 964.608398438 737.515625 964.608398438 c 0
 581.866210938 964.608398438 448.608398438 790.528320312 412.041015625 618.49609375 c 0
 280.576171875 0 l 9
456.787109375 1474.55957031 m 25
 132.041992188 -53.248046875 l 25
741.766601562 1466.37011719 m 25
 417.020507812 -61.4404296875 l 25
271.918945312 -69.6318359375 m 25
 596.666015625 1458.1796875 l 25
 271.918945312 -69.6318359375 l 25
885.99609375 1470.45996094 m 25
 561.250976562 -57.34375 l 25
1028.48632812 1466.37011719 m 25
 703.740234375 -61.4404296875 l 25
849.711914062 -49.15234375 m 25
 1174.45898438 1478.66015625 l 25
 849.711914062 -49.15234375 l 25
EndSplineSet
Fore
SplineSet
854 0 m 1
 702 0 l 1
 818 547 l 2
 835.431523176 628.473423538 848.555040677 708.223644806 848.555040677 775.857066527 c 0
 848.555040677 886.701300937 813.305476546 965 704 965 c 0
 529 965 444 765 398 550 c 2
 281 0 l 1
 129 0 l 1
 357 1073 l 1
 509 1073 l 1
 470 891 l 1
 538 992 618 1102 776 1102 c 0
 939 1102 1012 990 1017 860 c 1
 1078 990 1200 1102 1353 1102 c 0
 1519.5 1102 1587.5625 998.5 1587.5625 834.953125 c 0
 1587.5625 780.4375 1580 719.25 1566 653 c 2
 1427 0 l 1
 1276 0 l 1
 1391 543 l 2
 1408.70569617 626.139790702 1422.26310928 706.760980976 1422.26310928 774.485015249 c 0
 1422.26310928 882.710322194 1387.64137327 958 1280 958 c 0
 1104 958 1017 765 971 549 c 2
 854 0 l 1
EndSplineSet
EndChar

StartChar: n
Encoding: 110 110 34
Width: 1064
Flags: HMW
LayerCount: 2
Back
SplineSet
280.576171875 0 m 13
 129.024414062 0 l 5
 357.12890625 1073.15039062 l 5
 508.680664062 1073.15039062 l 5
 470.374023438 892.927734375 l 21
 519.68359375 970.751953125 658.134765625 1101.8203125 787.159179688 1101.8203125 c 4
 989.71484375 1101.8203125 1148.20605469 902.240234375 1096.5859375 659.456054688 c 5
 956.416015625 0 l 5
 804.864257812 0 l 4
 945.470703125 661.50390625 l 6
 985.662109375 850.58984375 877.958007812 964.608398438 755.9453125 964.608398438 c 4
 612.5859375 964.608398438 452.088867188 806.912109375 412.0390625 618.49609375 c 4
 280.576171875 0 l 13
993.072265625 -49.15234375 m 25
 1317.81933594 1478.66015625 l 25
 993.072265625 -49.15234375 l 25
456.787109375 1474.55957031 m 25
 132.041992188 -53.248046875 l 25
741.766601562 1466.37011719 m 25
 417.020507812 -61.4404296875 l 25
271.918945312 -69.6318359375 m 25
 596.666015625 1458.1796875 l 25
 271.918945312 -69.6318359375 l 25
885.99609375 1470.45996094 m 25
 561.250976562 -57.34375 l 25
1028.48632812 1466.37011719 m 25
 703.740234375 -61.4404296875 l 25
849.711914062 -49.15234375 m 25
 1174.45898438 1478.66015625 l 25
 849.711914062 -49.15234375 l 25
EndSplineSet
Fore
SplineSet
281 0 m 1
 129 0 l 1
 357 1073 l 1
 509 1073 l 1
 471 892 l 1
 530 1004 662 1102 820 1102 c 0
 987.543683037 1102 1097.46959906 998.410610368 1097.46959906 765.317702237 c 0
 1097.46959906 700.685972614 1089.01810424 626.097552569 1071 541 c 2
 956 0 l 1
 805 0 l 1
 920 541 l 2
 933.518888619 603.998020964 940.970133635 663.925668056 940.970133635 717.837846841 c 0
 940.970133635 863.321418347 886.709734338 965 751 965 c 0
 565 965 444 768 396 540 c 2
 281 0 l 1
EndSplineSet
EndChar

StartChar: o
Encoding: 111 111 35
Width: 1054
Flags: HMW
LayerCount: 2
Back
SplineSet
993.072265625 -49.15234375 m 29
 1317.81933594 1478.66015625 l 29
 993.072265625 -49.15234375 l 29
456.787109375 1474.55957031 m 25
 132.041992188 -53.248046875 l 25
741.766601562 1466.37011719 m 25
 417.020507812 -61.4404296875 l 25
271.918945312 -69.6318359375 m 25
 596.666015625 1458.1796875 l 25
 271.918945312 -69.6318359375 l 25
885.99609375 1470.45996094 m 25
 561.250976562 -57.34375 l 25
1028.48632812 1466.37011719 m 25
 703.740234375 -61.4404296875 l 25
849.711914062 -49.15234375 m 25
 1174.45898438 1478.66015625 l 25
 849.711914062 -49.15234375 l 25
EndSplineSet
Fore
SplineSet
370 537 m 0
 357.311731636 477.872669422 350.354783957 420.999229001 350.354783957 369.043374736 c 0
 350.354783957 216.259493157 410.51436956 106 562 106 c 0
 763 106 885 304 935 537 c 0
 947.25 594.75 953.9375 649.9375 953.9375 700.234375 c 0
 953.9375 851.125 893.75 958 743 958 c 0
 540 958 419 768 370 537 c 0
216 537 m 0
 283 852 485 1094 772 1094 c 0
 1000.43954802 1094 1108.73720293 936.594845932 1108.73720293 713.448642065 c 0
 1108.73720293 658.198794751 1102.09820993 598.91881059 1089 537 c 0
 1022 221 822 -29 533 -29 c 0
 303.705294197 -29 195.687425563 131.851384034 195.687425563 356.661689735 c 0
 195.687425563 413.23842047 202.528729229 473.865984746 216 537 c 0
EndSplineSet
EndChar

StartChar: p
Encoding: 112 112 36
Width: 1044
Flags: HMW
LayerCount: 2
Back
SplineSet
280.576171875 0 m 13
 129.024414062 0 l 5
 357.12890625 1073.15039062 l 5
 508.680664062 1073.15039062 l 5
 465.584960938 870.400390625 l 21
 544.388671875 980.9921875 672.470703125 1101.8203125 817.87890625 1101.8203125 c 4
 1016.53515625 1101.8203125 1165.36523438 983.040039062 1096.15039062 657.408203125 c 5
 956.416015625 0 l 5
 804.864257812 0 l 4
 944.598632812 657.408203125 l 5
 991.176757812 876.543945312 923.881835938 964.608398438 788.715820312 964.608398438 c 4
 633.065429688 964.608398438 448.608398438 790.528320312 412.041015625 618.49609375 c 4
 280.576171875 0 l 13
456.787109375 1474.55957031 m 25
 132.041992188 -53.248046875 l 25
741.766601562 1466.37011719 m 25
 417.020507812 -61.4404296875 l 25
271.918945312 -69.6318359375 m 25
 596.666015625 1458.1796875 l 25
 271.918945312 -69.6318359375 l 25
885.99609375 1470.45996094 m 25
 561.250976562 -57.34375 l 25
1028.48632812 1466.37011719 m 25
 703.740234375 -61.4404296875 l 25
849.711914062 -49.15234375 m 25
 1174.45898438 1478.66015625 l 25
 849.711914062 -49.15234375 l 25
EndSplineSet
Fore
SplineSet
936 539 m 0
 948.488421128 597.632078853 954.301134505 650.574124927 954.301134505 697.608018764 c 0
 954.301134505 872.779935254 873.673113104 966 757 966 c 0
 609 966 448 812 390 537 c 0
 378.225366237 481.578016943 372.756388252 430.895579079 372.756388252 385.31245786 c 0
 372.756388252 206.360270045 457.045617188 106 575 106 c 0
 723 106 878 264 936 539 c 0
509 1073 m 1
 469 886 l 1
 539 996 642 1102 814 1102 c 0
 1028.45386076 1102 1112.09302481 941.268040818 1112.09302481 736.170436339 c 0
 1112.09302481 673.483963387 1104.27969462 606.652979433 1090 539 c 0
 1029 254 855 -29 572 -29 c 0
 398 -29 344 76 320 184 c 1
 190 -428 l 1
 38 -428 l 1
 357 1073 l 1
 509 1073 l 1
EndSplineSet
EndChar

StartChar: q
Encoding: 113 113 37
Width: 1048
Flags: HMW
LayerCount: 2
Back
SplineSet
376.631835938 538.624023438 m 4
 330.778320312 322.897460938 379.26953125 106.49609375 532.590820312 106.49609375 c 4
 647.279296875 106.49609375 860.891601562 253.952148438 921.400390625 538.624023438 c 4
 972.504882812 779.052734375 854.86328125 956.416015625 709.1484375 956.416015625 c 4
 569.884765625 956.416015625 426.2578125 772.095703125 376.631835938 538.624023438 c 4
837.206054688 161.791992188 m 5
 786.497070312 104.885742188 660.686523438 -28.6962890625 507.395507812 -28.6962890625 c 4
 506.217773438 -28.6962890625 505.040039062 -28.6875 503.85546875 -28.671875 c 5
 502.95703125 -28.677734375 502.059570312 -28.681640625 501.166992188 -28.681640625 c 4
 231.4140625 -28.681640625 167.90625 279.279296875 223.90234375 542.719726562 c 4
 283.9765625 825.34375 482.314453125 1093.62988281 738.314453125 1093.62988281 c 4
 871.434570312 1093.62988281 959.0859375 995.328125 993.05078125 894.975585938 c 13
 1030.92089844 1073.15039062 l 5
 1182.47265625 1073.15039062 l 5
 950.450195312 -18.431640625 l 6
 892.552734375 -290.81640625 656.282226562 -448.51171875 453.530273438 -448.51171875 c 4
 197.739257812 -448.51171875 96.8720703125 -252.852539062 110.047851562 -108.543945312 c 5
 253.40625 -108.543945312 l 21
 246.541992188 -229.3203125 355.522460938 -313.34375 474.068359375 -313.34375 c 4
 598.997070312 -313.34375 754.931640625 -225.280273438 795.850585938 -32.767578125 c 4
 837.206054688 161.791992188 l 5
456.787109375 1474.55957031 m 25
 132.041992188 -53.248046875 l 25
741.766601562 1466.37011719 m 25
 417.020507812 -61.4404296875 l 25
271.918945312 -69.6318359375 m 25
 596.666015625 1458.1796875 l 25
 271.918945312 -69.6318359375 l 25
885.99609375 1470.45996094 m 25
 561.250976562 -57.34375 l 25
1028.48632812 1466.37011719 m 25
 703.740234375 -61.4404296875 l 25
849.711914062 -49.15234375 m 25
 1174.45898438 1478.66015625 l 25
 849.711914062 -49.15234375 l 25
EndSplineSet
Fore
SplineSet
342 539 m 0
 329.636646164 480.380649917 323.861762935 427.077514047 323.861762935 379.487700515 c 0
 323.861762935 203.820198797 402.547868409 106 519 106 c 0
 667 106 828 264 886 537 c 0
 897.774633763 592.828004911 903.243611748 643.66918401 903.243611748 689.247433625 c 0
 903.243611748 868.180496285 818.954382812 966 701 966 c 0
 553 966 401 816 342 539 c 0
877 -199 m 2
 873.429090617 -215.80427945 871.490712623 -230.578925281 871.490712623 -243.43515444 c 0
 871.490712623 -291.783473553 898.904814381 -313 970 -313 c 1
 942 -449 l 1
 797.537975988 -449 714.454077512 -399.041060609 714.454077512 -278.623285164 c 0
 714.454077512 -256.502287933 717.257864845 -232.003554514 723 -205 c 2
 767 0 l 1
 806 184 l 1
 694 11 578 -29 460 -29 c 0
 247.672985171 -29 166.013877213 137.25157794 166.013877213 341.886322106 c 0
 166.013877213 405.180079284 173.825974424 472.145846031 188 539 c 0
 249 828 422 1102 702 1102 c 0
 874 1102 931 996 955 886 c 1
 995 1073 l 1
 1147 1073 l 1
 919 0 l 1
 877 -199 l 2
EndSplineSet
EndChar

StartChar: r
Encoding: 114 114 38
Width: 686
Flags: HMW
LayerCount: 2
Back
SplineSet
456.787109375 1474.55957031 m 29
 132.041992188 -53.248046875 l 29
741.766601562 1466.37011719 m 29
 417.020507812 -61.4404296875 l 29
271.918945312 -69.6318359375 m 29
 596.666015625 1458.1796875 l 29
 271.918945312 -69.6318359375 l 29
885.99609375 1470.45996094 m 29
 561.250976562 -57.34375 l 29
1028.48632812 1466.37011719 m 29
 703.740234375 -61.4404296875 l 29
849.711914062 -49.15234375 m 29
 1174.45898438 1478.66015625 l 29
 849.711914062 -49.15234375 l 29
EndSplineSet
Fore
SplineSet
964 1066 m 1
 856 935 l 1
 829 954 793 965 751 965 c 0
 565 965 444 768 396 540 c 2
 281 0 l 1
 129 0 l 1
 357 1073 l 1
 509 1073 l 1
 471 892 l 1
 530 1004 662 1102 820 1102 c 0
 874 1102 923 1090 964 1066 c 1
EndSplineSet
EndChar

StartChar: s
Encoding: 115 115 39
Width: 921
Flags: HMW
LayerCount: 2
Back
SplineSet
280.05859375 806.912109375 m 4
 314.1796875 967.442382812 498.767578125 1097.73046875 692.08203125 1097.73046875 c 4
 885.395507812 1097.73046875 1014.59570312 967.442382812 980.474609375 806.912109375 c 4
 946.352539062 646.381835938 761.765625 516.095703125 568.451171875 516.095703125 c 4
 375.137695312 516.095703125 245.936523438 646.381835938 280.05859375 806.912109375 c 4
434.8359375 802.81640625 m 0
 453.579101562 890.995117188 557.788085938 962.560546875 667.446289062 962.560546875 c 0
 777.104492188 962.560546875 850.890625 890.995117188 832.147460938 802.81640625 c 0
 813.405273438 714.637695312 709.1953125 643.072265625 599.537109375 643.072265625 c 0
 489.877929688 643.072265625 416.092773438 714.637695312 434.8359375 802.81640625 c 0
167.568359375 296.959960938 m 0
 205.53515625 475.578125 398.748046875 620.543945312 598.844726562 620.543945312 c 0
 798.942382812 620.543945312 930.52734375 475.578125 892.560546875 296.959960938 c 0
 854.594726562 118.341796875 661.3828125 -26.6240234375 461.28515625 -26.6240234375 c 0
 261.1875 -26.6240234375 129.602539062 118.341796875 167.568359375 296.959960938 c 0
319.991210938 301.055664062 m 0
 342.819335938 408.453125 454.931640625 495.616210938 570.2421875 495.616210938 c 0
 685.553710938 495.616210938 760.611328125 408.453125 737.783203125 301.055664062 c 0
 714.955078125 193.659179688 602.84375 106.49609375 487.532226562 106.49609375 c 0
 372.221679688 106.49609375 297.163085938 193.659179688 319.991210938 301.055664062 c 0
456.787109375 1474.55957031 m 25
 132.041992188 -53.248046875 l 25
741.766601562 1466.37011719 m 25
 417.020507812 -61.4404296875 l 25
271.918945312 -69.6318359375 m 25
 596.666015625 1458.1796875 l 25
 271.918945312 -69.6318359375 l 25
885.99609375 1470.45996094 m 25
 561.250976562 -57.34375 l 25
1028.48632812 1466.37011719 m 25
 703.740234375 -61.4404296875 l 25
849.711914062 -49.15234375 m 25
 1174.45898438 1478.66015625 l 25
 849.711914062 -49.15234375 l 25
EndSplineSet
Fore
SplineSet
570 477 m 0
 433.060043359 525.017906874 285.840816502 588.059362525 285.840816502 745.576733778 c 0
 285.840816502 765.200320999 288.125701898 786.290202023 293 809 c 0
 334 1000 516 1096 702 1098 c 1
 930 1098 998 957 1008 871 c 1
 856 841 l 1
 843 898 801 963 676 963 c 0
 578 963 468 914 447 813 c 0
 444.442716895 800.97129799 443.257962765 789.758936742 443.257962765 779.296642782 c 0
 443.257962765 679.297198497 551.493422965 647.821573652 604 627 c 0
 719.429341337 581.008621811 908.04923173 529.324645362 908.04923173 350.209883123 c 0
 908.04923173 330.703659562 905.812205269 309.686110556 901 287 c 0
 861 101 664 -29 467 -29 c 0
 254 -29 159 78 142 217 c 1
 295 245 l 1
 314 163 361 106 492 106 c 0
 627 106 723 174 747 287 c 0
 749.255842043 297.527262867 750.31899112 307.480266158 750.31899112 316.89969994 c 0
 750.31899112 407.694025131 651.540592339 448.913795972 570 477 c 0
EndSplineSet
EndChar

StartChar: t
Encoding: 116 116 40
Width: 696
Flags: HMW
LayerCount: 2
Back
SplineSet
456.787109375 1474.55957031 m 29
 132.041992188 -53.248046875 l 29
741.766601562 1466.37011719 m 29
 417.020507812 -61.4404296875 l 29
271.918945312 -69.6318359375 m 29
 596.666015625 1458.1796875 l 29
 271.918945312 -69.6318359375 l 29
885.99609375 1470.45996094 m 29
 561.250976562 -57.34375 l 29
1028.48632812 1466.37011719 m 29
 703.740234375 -61.4404296875 l 29
849.711914062 -49.15234375 m 29
 1174.45898438 1478.66015625 l 29
 849.711914062 -49.15234375 l 29
EndSplineSet
Fore
SplineSet
443 938 m 1
 301 938 l 1
 330 1073 l 1
 472 1073 l 1
 525 1323 l 1
 676 1323 l 1
 623 1073 l 1
 820 1073 l 1
 791 938 l 1
 594 938 l 1
 441 215 l 2
 438.029839487 201.372204707 436.555425757 188.934901751 436.555425757 177.688091132 c 0
 436.555425757 124.562697044 469.453079969 98 533 98 c 2
 603 98 l 1
 576 -29 l 1
 506 -29 l 2
 344.086171998 -29 278.516466287 17.5335556641 278.516466287 124.926688504 c 0
 278.516466287 150.188232741 282.14448904 178.817184661 289 211 c 2
 443 938 l 1
EndSplineSet
EndChar

StartChar: u
Encoding: 117 117 41
Width: 1064
Flags: HMW
LayerCount: 2
Back
SplineSet
456.787109375 1474.55957031 m 29
 132.041992188 -53.248046875 l 29
741.766601562 1466.37011719 m 29
 417.020507812 -61.4404296875 l 29
271.918945312 -69.6318359375 m 29
 596.666015625 1458.1796875 l 29
 271.918945312 -69.6318359375 l 29
885.99609375 1470.45996094 m 29
 561.250976562 -57.34375 l 29
1028.48632812 1466.37011719 m 29
 703.740234375 -61.4404296875 l 29
849.711914062 -49.15234375 m 29
 1174.45898438 1478.66015625 l 29
 849.711914062 -49.15234375 l 29
EndSplineSet
Fore
SplineSet
1023 1073 m 1
 1175 1073 l 1
 947 0 l 1
 795 0 l 1
 833 181 l 1
 774 69 642 -29 484 -29 c 0
 316.456316963 -29 206.530400941 74.5893896323 206.530400941 307.682297763 c 0
 206.530400941 372.314027386 214.981895757 446.902447431 233 532 c 2
 348 1073 l 1
 499 1073 l 1
 384 532 l 2
 370.481111381 469.001979036 363.029866365 409.074331944 363.029866365 355.162153159 c 0
 363.029866365 209.678581653 417.290265662 108 553 108 c 0
 739 108 860 305 908 533 c 2
 1023 1073 l 1
EndSplineSet
EndChar

StartChar: v
Encoding: 118 118 42
Width: 1024
Flags: HMW
LayerCount: 2
Back
SplineSet
456.787109375 1474.55957031 m 29
 132.041992188 -53.248046875 l 29
741.766601562 1466.37011719 m 29
 417.020507812 -61.4404296875 l 29
271.918945312 -69.6318359375 m 29
 596.666015625 1458.1796875 l 29
 271.918945312 -69.6318359375 l 29
885.99609375 1470.45996094 m 29
 561.250976562 -57.34375 l 29
1028.48632812 1466.37011719 m 29
 703.740234375 -61.4404296875 l 29
849.711914062 -49.15234375 m 29
 1174.45898438 1478.66015625 l 29
 849.711914062 -49.15234375 l 29
EndSplineSet
Fore
SplineSet
446 0 m 1
 310 1073 l 1
 470 1073 l 1
 563 195 l 1
 1037 1073 l 1
 1195 1073 l 1
 598 0 l 1
 446 0 l 1
EndSplineSet
EndChar

StartChar: w
Encoding: 119 119 43
Width: 1374
Flags: HMW
LayerCount: 2
Back
SplineSet
456.787109375 1474.55957031 m 29
 132.041992188 -53.248046875 l 29
741.766601562 1466.37011719 m 29
 417.020507812 -61.4404296875 l 29
271.918945312 -69.6318359375 m 29
 596.666015625 1458.1796875 l 29
 271.918945312 -69.6318359375 l 29
885.99609375 1470.45996094 m 29
 561.250976562 -57.34375 l 29
1028.48632812 1466.37011719 m 29
 703.740234375 -61.4404296875 l 29
849.711914062 -49.15234375 m 29
 1174.45898438 1478.66015625 l 29
 849.711914062 -49.15234375 l 29
EndSplineSet
Fore
SplineSet
881 862 m 1
 471 0 l 1
 354 0 l 1
 296 1073 l 1
 449 1073 l 1
 467 250 l 1
 849 1065 l 1
 849 1065 941 1065 1000 1065 c 1
 1036 250 l 1
 1404 1073 l 1
 1557 1073 l 1
 1042 0 l 1
 920 0 l 1
 881 862 l 1
EndSplineSet
EndChar

StartChar: x
Encoding: 120 120 44
Width: 901
Flags: HMW
LayerCount: 2
Back
SplineSet
456.787109375 1474.55957031 m 29
 132.041992188 -53.248046875 l 29
741.766601562 1466.37011719 m 29
 417.020507812 -61.4404296875 l 29
271.918945312 -69.6318359375 m 29
 596.666015625 1458.1796875 l 29
 271.918945312 -69.6318359375 l 29
885.99609375 1470.45996094 m 29
 561.250976562 -57.34375 l 29
1028.48632812 1466.37011719 m 29
 703.740234375 -61.4404296875 l 29
849.711914062 -49.15234375 m 29
 1174.45898438 1478.66015625 l 29
 849.711914062 -49.15234375 l 29
EndSplineSet
Fore
SplineSet
870 0 m 1
 700 0 l 1
 553 440 l 1
 229 0 l 1
 53 0 l 1
 482 539 l 1
 283 1073 l 1
 453 1073 l 1
 595 639 l 1
 920 1073 l 1
 1090 1073 l 1
 666 543 l 1
 870 0 l 1
EndSplineSet
EndChar

StartChar: y
Encoding: 121 121 45
Width: 1064
Flags: HMW
LayerCount: 2
Back
SplineSet
1022.72949219 1073.15039062 m 13
 1174.28125 1073.15039062 l 5
 946.17578125 0 l 5
 794.624023438 0 l 5
 832.931640625 180.223632812 l 21
 783.622070312 102.400390625 645.169921875 -28.671875 516.145507812 -28.671875 c 4
 313.590820312 -28.671875 155.099609375 170.912109375 206.719726562 413.696289062 c 5
 346.888671875 1073.15039062 l 5
 498.44140625 1073.15039062 l 4
 357.834960938 411.6484375 l 6
 317.642578125 222.561523438 425.34765625 108.543945312 547.359375 108.543945312 c 4
 690.719726562 108.543945312 851.216796875 266.240234375 891.266601562 454.65625 c 4
 1022.72949219 1073.15039062 l 13
456.787109375 1474.55957031 m 25
 132.041992188 -53.248046875 l 25
741.766601562 1466.37011719 m 25
 417.020507812 -61.4404296875 l 25
271.918945312 -69.6318359375 m 25
 596.666015625 1458.1796875 l 25
 271.918945312 -69.6318359375 l 25
885.99609375 1470.45996094 m 25
 561.250976562 -57.34375 l 25
1028.48632812 1466.37011719 m 25
 703.740234375 -61.4404296875 l 25
849.711914062 -49.15234375 m 25
 1174.45898438 1478.66015625 l 25
 849.711914062 -49.15234375 l 25
EndSplineSet
Fore
SplineSet
943 -18 m 2
 885 -291 628 -449 425 -449 c 0
 245 -449 152 -356 99 -275 c 1
 223 -190 l 1
 262 -252 326 -313 453 -313 c 0
 578 -313 747 -225 788 -33 c 0
 803 38 818 110 833 181 c 1
 774 69 642 -29 484 -29 c 0
 316.456316963 -29 206.530400941 74.5893896323 206.530400941 307.682297763 c 0
 206.530400941 372.314027386 214.981895757 446.902447431 233 532 c 2
 348 1073 l 1
 499 1073 l 1
 384 532 l 2
 370.481111381 469.001979036 363.029866365 409.074331944 363.029866365 355.162153159 c 0
 363.029866365 209.678581653 417.290265662 108 553 108 c 0
 739 108 860 305 908 533 c 2
 1023 1073 l 1
 1175 1073 l 1
 943 -18 l 2
EndSplineSet
EndChar

StartChar: z
Encoding: 122 122 46
Width: 962
Flags: HMW
LayerCount: 2
Back
SplineSet
456.787109375 1474.55957031 m 29
 132.041992188 -53.248046875 l 29
741.766601562 1466.37011719 m 29
 417.020507812 -61.4404296875 l 29
271.918945312 -69.6318359375 m 29
 596.666015625 1458.1796875 l 29
 271.918945312 -69.6318359375 l 29
885.99609375 1470.45996094 m 29
 561.250976562 -57.34375 l 29
1028.48632812 1466.37011719 m 29
 703.740234375 -61.4404296875 l 29
849.711914062 -49.15234375 m 29
 1174.45898438 1478.66015625 l 29
 849.711914062 -49.15234375 l 29
EndSplineSet
Fore
SplineSet
372 141 m 1
 907 141 l 1
 877 0 l 1
 90 0 l 1
 853 932 l 1
 329 932 l 1
 359 1073 l 1
 1135 1073 l 1
 372 141 l 1
EndSplineSet
EndChar

StartChar: Ograve
Encoding: 210 210 47
Width: 1333
Flags: HMW
LayerCount: 2
Fore
SplineSet
246 725 m 0
 314 1047 566 1495 994 1495 c 0
 1329 1495 1440 1222 1440 950 c 0
 1440 873 1431 796 1416 725 c 0
 1348 406 1098 -29 670 -29 c 0
 336 -29 224 238 223 508 c 0
 223 582 231 656 246 725 c 0
1250 725 m 0
 1265 797 1275 876 1275 952 c 0
 1274 1161 1201 1354 964 1354 c 0
 642 1354 469 995 412 725 c 0
 397 655 389 580 388 507 c 0
 388 300 464 113 700 113 c 0
 1021 113 1193 457 1250 725 c 0
1056 1676 m 2
 1062 1669 1065 1661 1065 1653 c 0
 1065 1649 1065 1644 1064 1639 c 0
 1061 1626 1054 1615 1044 1604 c 0
 1034 1594 1022 1587 1008 1584 c 0
 1003 1583 997 1582 993 1582 c 0
 984 1582 976 1585 969 1591 c 2
 711 1810 l 1
 700 1822 693 1836 692 1851 c 0
 692 1856 692 1861 693 1868 c 0
 697 1885 706 1901 720 1914 c 1
 733 1928 748 1938 766 1942 c 0
 772 1944 778 1944 784 1944 c 0
 801 1944 815 1939 828 1926 c 2
 1056 1676 l 2
EndSplineSet
EndChar

StartChar: Oacute
Encoding: 211 211 48
Width: 1333
Flags: HMW
LayerCount: 2
Fore
SplineSet
246 725 m 0
 314 1047 566 1495 994 1495 c 0
 1329 1495 1440 1222 1440 950 c 0
 1440 873 1431 796 1416 725 c 0
 1348 406 1098 -29 670 -29 c 0
 336 -29 224 238 223 508 c 0
 223 582 231 656 246 725 c 0
1250 725 m 0
 1265 797 1275 876 1275 952 c 0
 1274 1161 1201 1354 964 1354 c 0
 642 1354 469 995 412 725 c 0
 397 655 389 580 388 507 c 0
 388 300 464 113 700 113 c 0
 1021 113 1193 457 1250 725 c 0
948 1676 m 2
 1282 1926 l 2
 1301 1939 1317 1944 1334 1944 c 0
 1340 1944 1346 1944 1352 1942 c 0
 1368 1938 1379 1928 1386 1914 c 1
 1391.61249695 1904.87969246 1394.76404687 1894.28281669 1394.76404687 1882.8999756 c 0
 1394.76404687 1878.05782279 1394.19375153 1873.07344398 1393 1868 c 0
 1392 1861 1388 1856 1386 1851 c 0
 1379 1836 1368 1822 1351 1810 c 1
 999 1591 l 2
 990 1585 980 1582 971 1582 c 0
 967 1582 963 1583 958 1584 c 0
 946 1587 936 1594 930 1604 c 0
 925.607695155 1612.05255888 922.823085464 1620.10511777 922.823085464 1628.94228634 c 0
 922.823085464 1632.17691454 923.196152423 1635.5166605 924 1639 c 0
 925 1644 927 1649 929 1653 c 0
 933 1661 940 1669 948 1676 c 2
EndSplineSet
EndChar

StartChar: Ocircumflex
Encoding: 212 212 49
Width: 1329
Flags: HMW
LayerCount: 2
Fore
SplineSet
1362 1563 m 1
 1174 1563 l 1
 1064 1776 l 1
 861 1565 l 1
 675 1565 l 1
 1024 1907 l 1
 1155 1907 l 1
 1362 1563 l 1
256 725 m 0
 324 1047 576 1495 1004 1495 c 0
 1339 1495 1450 1222 1450 950 c 0
 1450 873 1441 796 1426 725 c 0
 1358 406 1108 -29 680 -29 c 0
 346 -29 234 238 233 508 c 0
 233 582 241 656 256 725 c 0
1260 725 m 0
 1275 797 1285 876 1285 952 c 0
 1284 1161 1211 1354 974 1354 c 0
 652 1354 479 995 422 725 c 0
 407 655 399 580 398 507 c 0
 398 300 474 113 710 113 c 0
 1031 113 1203 457 1260 725 c 0
EndSplineSet
EndChar

StartChar: Otilde
Encoding: 213 213 50
Width: 1329
Flags: HMW
LayerCount: 2
Fore
SplineSet
746 1770 m 1
 800 1807 872 1866 950 1866 c 0
 1048 1866 1080 1715 1184 1715 c 0
 1254 1715 1321 1768 1392 1813 c 1
 1362 1668 l 1
 1291 1620 1227 1569 1153 1569 c 0
 1038 1569 999 1721 917 1721 c 0
 839 1721 781 1670 715 1624 c 1
 746 1770 l 1
256 725 m 0
 324 1047 576 1495 1004 1495 c 0
 1339 1495 1450 1222 1450 950 c 0
 1450 873 1441 796 1426 725 c 0
 1358 406 1108 -29 680 -29 c 0
 346 -29 234 238 233 508 c 0
 233 582 241 656 256 725 c 0
1260 725 m 0
 1275 797 1285 876 1285 952 c 0
 1284 1161 1211 1354 974 1354 c 0
 652 1354 479 995 422 725 c 0
 407 655 399 580 398 507 c 0
 398 300 474 113 710 113 c 0
 1031 113 1203 457 1260 725 c 0
EndSplineSet
EndChar

StartChar: Odieresis
Encoding: 214 214 51
Width: 1329
Flags: HMW
LayerCount: 2
Fore
SplineSet
699 1687 m 0
 704 1712 718 1734 741 1753 c 0
 764 1772 788 1781 813 1781 c 0
 835 1781 853 1774 867 1760 c 0
 881 1746 888 1727 889 1706 c 0
 889 1701 889 1695 887 1687 c 0
 881 1661 867 1639 844 1620 c 0
 821 1601 797 1592 772 1592 c 0
 750 1592 732 1600 718 1614 c 0
 704 1628 697 1646 697 1668 c 0
 697 1672 697 1678 699 1687 c 0
1170 1689 m 0
 1175 1714 1189 1736 1212 1755 c 0
 1235 1774 1259 1783 1284 1783 c 0
 1306 1783 1325 1776 1339 1762 c 0
 1353 1748 1359 1729 1360 1708 c 0
 1360 1703 1360 1697 1358 1689 c 0
 1352 1663 1339 1641 1316 1622 c 0
 1293 1603 1269 1594 1244 1594 c 0
 1222 1594 1203 1602 1189 1616 c 0
 1175 1630 1168 1648 1168 1670 c 0
 1169 1678 1169 1684 1170 1689 c 0
256 725 m 0
 324 1047 576 1495 1004 1495 c 0
 1339 1495 1450 1222 1450 950 c 0
 1450 873 1441 796 1426 725 c 0
 1358 406 1108 -29 680 -29 c 0
 346 -29 234 238 233 508 c 0
 233 582 241 656 256 725 c 0
1260 725 m 0
 1275 797 1285 876 1285 952 c 0
 1284 1161 1211 1354 974 1354 c 0
 652 1354 479 995 422 725 c 0
 407 655 399 580 398 507 c 0
 398 300 474 113 710 113 c 0
 1031 113 1203 457 1260 725 c 0
EndSplineSet
EndChar

StartChar: multiply
Encoding: 215 215 52
Width: 833
Flags: HMW
LayerCount: 2
Fore
SplineSet
206 430 m 1
 468 649 l 1
 293 867 l 1
 413 968 l 1
 589 750 l 1
 851 969 l 1
 931 870 l 1
 669 650 l 1
 844 432 l 1
 724 331 l 1
 548 550 l 1
 287 331 l 1
 206 430 l 1
EndSplineSet
EndChar

StartChar: Oslash
Encoding: 216 216 53
Width: 1285
Flags: HMW
LayerCount: 2
Fore
SplineSet
415 279 m 1
 1092 1300 l 1
 1051 1324 1001 1338 939 1338 c 0
 630 1338 458 984 401 718 c 0
 386 647 376 571 376 498 c 0
 376 419 386 342 415 279 c 1
494 170 m 1
 540 133 601 111 679 111 c 0
 987 111 1159 452 1216 718 c 0
 1231 790 1241 868 1241 945 c 0
 1241 1042 1225 1135 1183 1207 c 1
 494 170 l 1
409 41 m 1
 363 -29 l 1
 211 -29 l 1
 319 134 l 1
 252 233 226 366 226 500 c 0
 226 574 234 649 249 718 c 0
 316 1034 558 1477 969 1477 c 0
 1053 1477 1122 1459 1177 1427 c 1
 1223 1496 l 1
 1375 1496 l 1
 1274 1345 l 1
 1356.76921432 1243.50917769 1390.02200505 1097.35648312 1390.02200505 949.592709125 c 0
 1390.02200505 947.395448473 1390.01465221 945.19783158 1390 943 c 1
 1390.05051026 939.110710194 1390.07550765 935.221420389 1390.07550765 931.33290378 c 0
 1390.07550765 858.236728105 1381.24234614 785.413771738 1367 718 c 0
 1300 402 1059 -29 649 -29 c 0
 549 -29 470 -3 409 41 c 1
EndSplineSet
EndChar

StartChar: Ucircumflex
Encoding: 219 219 54
Width: 1298
Flags: HMW
LayerCount: 2
Fore
SplineSet
1318 1567 m 1
 1130 1567 l 1
 1019 1780 l 1
 817 1569 l 1
 631 1569 l 1
 980 1911 l 1
 1111 1911 l 1
 1318 1567 l 1
1323 1456 m 1
 1484 1456 l 1
 1312 645 l 2
 1222 223 975 -29 647 -29 c 0
 384 -29 241 132 241 414 c 0
 241 484 250 561 268 645 c 2
 440 1456 l 1
 602 1456 l 1
 430 645 l 2
 414 570 407 504 407 445 c 0
 407 215 522 113 677 113 c 0
 872 113 1072 274 1151 645 c 2
 1323 1456 l 1
EndSplineSet
EndChar

StartChar: Udieresis
Encoding: 220 220 55
Width: 1298
Flags: HMW
LayerCount: 2
Fore
SplineSet
677 1687 m 0
 682 1712 696 1734 719 1753 c 0
 742 1772 766 1781 791 1781 c 0
 813 1781 831 1774 845 1760 c 0
 859 1746 866 1727 867 1706 c 0
 867 1701 867 1695 865 1687 c 0
 859 1661 845 1639 822 1620 c 0
 799 1601 775 1592 750 1592 c 0
 728 1592 710 1600 696 1614 c 0
 682 1628 675 1646 675 1668 c 0
 675 1672 675 1678 677 1687 c 0
1148 1689 m 0
 1153 1714 1167 1736 1190 1755 c 0
 1213 1774 1237 1783 1262 1783 c 0
 1284 1783 1303 1776 1317 1762 c 0
 1331 1748 1337 1729 1338 1708 c 0
 1338 1703 1338 1697 1336 1689 c 0
 1330 1663 1317 1641 1294 1622 c 0
 1271 1603 1247 1594 1222 1594 c 0
 1200 1594 1181 1602 1167 1616 c 0
 1153 1630 1146 1648 1146 1670 c 0
 1147 1678 1147 1684 1148 1689 c 0
1323 1456 m 1
 1484 1456 l 1
 1312 645 l 2
 1222 223 975 -29 647 -29 c 0
 384 -29 241 132 241 414 c 0
 241 484 250 561 268 645 c 2
 440 1456 l 1
 602 1456 l 1
 430 645 l 2
 414 570 407 504 407 445 c 0
 407 215 522 113 677 113 c 0
 872 113 1072 274 1151 645 c 2
 1323 1456 l 1
EndSplineSet
EndChar

StartChar: Yacute
Encoding: 221 221 56
Width: 1179
Flags: HMW
LayerCount: 2
Fore
SplineSet
385 1456 m 1
 553 1456 l 1
 782 856 l 1
 1265 1456 l 1
 1433 1456 l 1
 837 748 l 1
 678 0 l 1
 520 0 l 1
 679 748 l 1
 385 1456 l 1
847 1676 m 2
 1181 1926 l 2
 1200 1939 1216 1944 1233 1944 c 0
 1239 1944 1245 1944 1251 1942 c 0
 1267 1938 1278 1928 1285 1914 c 1
 1290.61249695 1904.87969246 1293.76404687 1894.28281669 1293.76404687 1882.8999756 c 0
 1293.76404687 1878.05782279 1293.19375153 1873.07344398 1292 1868 c 0
 1291 1861 1287 1856 1285 1851 c 0
 1278 1836 1267 1822 1250 1810 c 1
 898 1591 l 2
 889 1585 879 1582 870 1582 c 0
 866 1582 862 1583 857 1584 c 0
 845 1587 835 1594 829 1604 c 0
 824.607695155 1612.05255888 821.823085464 1620.10511777 821.823085464 1628.94228634 c 0
 821.823085464 1632.17691454 822.196152423 1635.5166605 823 1639 c 0
 824 1644 826 1649 828 1653 c 0
 832 1661 839 1669 847 1676 c 2
EndSplineSet
EndChar

StartChar: Thorn
Encoding: 222 222 57
Width: 1329
Flags: HMW
LayerCount: 2
Fore
SplineSet
454 1456 m 1
 612 1456 l 1
 547 1150 l 1
 889 1150 1195 1081 1195 828 c 0
 1195 804 1192 778 1186 750 c 0
 1113 407 743 337 375 337 c 1
 303 0 l 1
 145 0 l 1
 454 1456 l 1
404 477 m 1
 674 477 982 530 1029 750 c 0
 1032 765 1034 780 1034 794 c 0
 1034 987 723 1010 518 1010 c 1
 404 477 l 1
EndSplineSet
EndChar

StartChar: germandbls
Encoding: 223 223 58
Width: 1212
Flags: HMW
LayerCount: 2
Fore
SplineSet
419 1152 m 1
 525 1333 714 1479 969 1479 c 0
 1183 1479 1342 1368 1342 1174 c 0
 1341 1147 1337 1117 1331 1087 c 0
 1330 1083 1329 1078 1328 1074 c 0
 1287 880 1066 778 939 747 c 1
 1036 722 1205 629 1205 446 c 0
 1205.10435608 443.808522399 1205.1542612 441.595264416 1205.1542612 439.361362509 c 0
 1205.1542612 420.188730301 1201.47821962 399.49545417 1197 378 c 0
 1132 72 896 -30 605 -30 c 0
 540 -30 491 -11 430 23 c 1
 547 146 l 1
 578 133 604 110 634 110 c 0
 830 110 1003 158 1050 378 c 0
 1053 393 1055 408 1055 423 c 0
 1055 577 875 679 696 679 c 0
 681 679 671 679 660 679 c 0
 647 679 635 679 617 673 c 1
 649 825 l 1
 663 821 674 821 685 821 c 0
 697 821 710 821 727 821 c 0
 898 821 1146 918 1179 1074 c 0
 1185 1101 1187 1127 1187 1150 c 0
 1187 1282 1095 1342 940 1342 c 0
 736 1342 629 1241 551 1105 c 1
 430 885 325 310 240 0 c 1
 92 0 l 1
 201 361 297 928 419 1152 c 1
EndSplineSet
EndChar

StartChar: acircumflex
Encoding: 226 226 59
Width: 1036
Flags: HMW
LayerCount: 2
Fore
SplineSet
1077 1139 m 1
 889 1139 l 1
 778 1352 l 1
 576 1141 l 1
 390 1141 l 1
 739 1483 l 1
 870 1483 l 1
 1077 1139 l 1
619 717 m 0
 774 717 852 610 854 559 c 1
 874 655 l 2
 881.779599276 691.758606581 885.625257834 725.528931269 885.625257834 756.082911817 c 0
 885.625257834 882.626897183 819.659562822 954 694 954 c 0
 600 954 507 922 452 877 c 1
 397 981 l 1
 479 1038 580 1090 723 1090 c 0
 901.506716969 1090 1028.96647202 982.234191517 1028.96647202 779.239048427 c 0
 1028.96647202 741.150992711 1024.47923105 699.710373103 1015 655 c 2
 989 532 l 1
 876 0 l 1
 737 0 l 1
 770 156 l 1
 771 158 l 1
 755 109 615 -29 460 -29 c 0
 277.148656582 -29 156.937930594 79.3314207293 156.937930594 252.974840407 c 0
 156.937930594 281.605288123 160.205936545 312.011284565 167 344 c 0
 213 559 414 717 619 717 c 0
623 582 m 0
 472 582 348 473 321 344 c 0
 317.249561961 326.2824134 315.439232264 309.166929389 315.439232264 292.794141502 c 0
 315.439232264 182.565491438 397.493539298 106 522 106 c 0
 649 106 782 211 810 344 c 0
 813.579324681 361.061447644 815.265384731 377.439611812 815.265384731 393.054667789 c 0
 815.265384731 508.316724431 723.398566214 582 623 582 c 0
EndSplineSet
EndChar

StartChar: atilde
Encoding: 227 227 60
Width: 1036
Flags: HMW
LayerCount: 2
Fore
SplineSet
471 1352 m 1
 525 1389 597 1448 675 1448 c 0
 773 1448 805 1297 909 1297 c 0
 979 1297 1047 1350 1118 1395 c 1
 1087 1250 l 1
 1016 1202 952 1151 878 1151 c 0
 763 1151 724 1303 642 1303 c 0
 564 1303 506 1252 440 1206 c 1
 471 1352 l 1
619 717 m 0
 774 717 852 610 854 559 c 1
 874 655 l 2
 881.779599276 691.758606581 885.625257834 725.528931269 885.625257834 756.082911817 c 0
 885.625257834 882.626897183 819.659562822 954 694 954 c 0
 600 954 507 922 452 877 c 1
 397 981 l 1
 479 1038 580 1090 723 1090 c 0
 901.506716969 1090 1028.96647202 982.234191517 1028.96647202 779.239048427 c 0
 1028.96647202 741.150992711 1024.47923105 699.710373103 1015 655 c 2
 989 532 l 1
 876 0 l 1
 737 0 l 1
 770 156 l 1
 771 158 l 1
 755 109 615 -29 460 -29 c 0
 277.148656582 -29 156.937930594 79.3314207293 156.937930594 252.974840407 c 0
 156.937930594 281.605288123 160.205936545 312.011284565 167 344 c 0
 213 559 414 717 619 717 c 0
623 582 m 0
 472 582 348 473 321 344 c 0
 317.249561961 326.2824134 315.439232264 309.166929389 315.439232264 292.794141502 c 0
 315.439232264 182.565491438 397.493539298 106 522 106 c 0
 649 106 782 211 810 344 c 0
 813.579324681 361.061447644 815.265384731 377.439611812 815.265384731 393.054667789 c 0
 815.265384731 508.316724431 723.398566214 582 623 582 c 0
EndSplineSet
EndChar

StartChar: adieresis
Encoding: 228 228 61
Width: 1036
Flags: HMW
LayerCount: 2
Fore
SplineSet
450 1315 m 0
 455 1340 469 1362 492 1381 c 0
 515 1400 538 1409 563 1409 c 0
 585 1409 604 1402 618 1388 c 0
 632 1374 639 1355 640 1334 c 0
 640 1329 640 1323 638 1315 c 0
 632 1289 618 1267 595 1248 c 0
 572 1229 548 1220 523 1220 c 0
 501 1220 483 1228 469 1242 c 0
 455 1256 447 1274 447 1296 c 0
 447 1300 448 1306 450 1315 c 0
921 1317 m 0
 926 1342 940 1364 963 1383 c 0
 986 1402 1010 1411 1035 1411 c 0
 1057 1411 1075 1404 1089 1390 c 0
 1103 1376 1110 1357 1111 1336 c 0
 1111 1331 1111 1325 1109 1317 c 0
 1103 1291 1090 1269 1067 1250 c 0
 1044 1231 1020 1222 995 1222 c 0
 973 1222 954 1230 940 1244 c 0
 926 1258 919 1276 919 1298 c 0
 920 1306 920 1312 921 1317 c 0
619 717 m 0
 774 717 852 610 854 559 c 1
 874 655 l 2
 881.779599276 691.758606581 885.625257834 725.528931269 885.625257834 756.082911817 c 0
 885.625257834 882.626897183 819.659562822 954 694 954 c 0
 600 954 507 922 452 877 c 1
 397 981 l 1
 479 1038 580 1090 723 1090 c 0
 901.506716969 1090 1028.96647202 982.234191517 1028.96647202 779.239048427 c 0
 1028.96647202 741.150992711 1024.47923105 699.710373103 1015 655 c 2
 989 532 l 1
 876 0 l 1
 737 0 l 1
 770 156 l 1
 771 158 l 1
 755 109 615 -29 460 -29 c 0
 277.148656582 -29 156.937930594 79.3314207293 156.937930594 252.974840407 c 0
 156.937930594 281.605288123 160.205936545 312.011284565 167 344 c 0
 213 559 414 717 619 717 c 0
623 582 m 0
 472 582 348 473 321 344 c 0
 317.249561961 326.2824134 315.439232264 309.166929389 315.439232264 292.794141502 c 0
 315.439232264 182.565491438 397.493539298 106 522 106 c 0
 649 106 782 211 810 344 c 0
 813.579324681 361.061447644 815.265384731 377.439611812 815.265384731 393.054667789 c 0
 815.265384731 508.316724431 723.398566214 582 623 582 c 0
EndSplineSet
EndChar

StartChar: aring
Encoding: 229 229 62
Width: 1036
Flags: HMW
LayerCount: 2
Fore
SplineSet
536 1364 m 0
 566 1507 708 1622 853 1622 c 0
 980 1622 1066 1534 1066 1417 c 0
 1066 1400 1064 1382 1060 1364 c 0
 1029 1220 889 1105 743 1105 c 0
 617 1105 530 1193 530 1310 c 0
 530 1327 532 1345 536 1364 c 0
655 1368 m 0
 652 1356 651 1345 651 1334 c 0
 651 1267 697 1218 767 1218 c 0
 848 1218 925 1284 943 1368 c 0
 945 1379 947 1390 947 1401 c 0
 947 1468 901 1518 831 1518 c 0
 750 1518 673 1451 655 1368 c 0
619 717 m 0
 774 717 852 610 854 559 c 1
 874 655 l 2
 881.779599276 691.758606581 885.625257834 725.528931269 885.625257834 756.082911817 c 0
 885.625257834 882.626897183 819.659562822 954 694 954 c 0
 600 954 507 922 452 877 c 1
 397 981 l 1
 479 1038 580 1090 723 1090 c 0
 901.506716969 1090 1028.96647202 982.234191517 1028.96647202 779.239048427 c 0
 1028.96647202 741.150992711 1024.47923105 699.710373103 1015 655 c 2
 989 532 l 1
 876 0 l 1
 737 0 l 1
 770 156 l 1
 771 158 l 1
 755 109 615 -29 460 -29 c 0
 277.148656582 -29 156.937930594 79.3314207293 156.937930594 252.974840407 c 0
 156.937930594 281.605288123 160.205936545 312.011284565 167 344 c 0
 213 559 414 717 619 717 c 0
623 582 m 0
 472 582 348 473 321 344 c 0
 317.249561961 326.2824134 315.439232264 309.166929389 315.439232264 292.794141502 c 0
 315.439232264 182.565491438 397.493539298 106 522 106 c 0
 649 106 782 211 810 344 c 0
 813.579324681 361.061447644 815.265384731 377.439611812 815.265384731 393.054667789 c 0
 815.265384731 508.316724431 723.398566214 582 623 582 c 0
EndSplineSet
EndChar

StartChar: ae
Encoding: 230 230 63
Width: 1486
Flags: HMW
LayerCount: 2
Back
SplineSet
977.633789062 604.16015625 m 5
 1507.42773438 604.16015625 l 5
 1527.33007812 781.344726562 1477.64746094 958.463867188 1317.83789062 958.463867188 c 4
 1158.03320312 958.463867188 1033.05566406 781.344726562 977.633789062 604.16015625 c 5
948.872070312 468.9921875 m 5
 928.572265625 290.240234375 976.876953125 106.49609375 1136.74609375 106.49609375 c 4
 1230.98632812 106.49609375 1309.15234375 162.463867188 1369.30761719 242.655273438 c 4
 1490.56933594 187.616210938 l 4
 1394.15039062 55.423828125 1262.48535156 -28.671875 1108.015625 -28.671875 c 5
 841.77734375 -28.671875 749.478515625 221.18359375 816.516601562 536.576171875 c 4
 883.555664062 851.967773438 1080.33007812 1093.62988281 1346.56835938 1093.62988281 c 4
 1612.80859375 1093.62988281 1706.8515625 851.967773438 1639.8125 536.576171875 c 4
 1635.12890625 514.5390625 1629.19335938 491.83984375 1622.30761719 468.9921875 c 5
 948.872070312 468.9921875 l 5
594.926757812 602.112304688 m 4
 443.375 602.112304688 323.918945312 483.328125 296.493164062 354.303710938 c 4
 269.068359375 225.280273438 338.028320312 106.49609375 489.580078125 106.49609375 c 4
 616.556640625 106.49609375 759.717773438 221.18359375 788.013671875 354.303710938 c 5
 816.309570312 487.423828125 721.903320312 602.112304688 594.926757812 602.112304688 c 4
623.657226562 737.280273438 m 4
 762.921875 737.280273438 832.653320312 679.935546875 850.876953125 630.784179688 c 5
 859.305664062 675.83984375 l 4
 891.954101562 829.440429688 825.44921875 954.368164062 673.897460938 954.368164062 c 4
 579.689453125 954.368164062 486.708007812 921.599609375 432.075195312 876.543945312 c 13
 410.211914062 916.48046875 376.016601562 978.944335938 376.016601562 978.944335938 c 4
 457.837890625 1036.29003906 559.268554688 1089.54003906 702.62890625 1089.54003906 c 4
 900.967773438 1089.54003906 1052.37792969 944.127929688 995.3515625 675.83984375 c 4
 967.455078125 552.959960938 l 4
 909.4296875 270.3359375 l 5
 893.758789062 196.608398438 905.017578125 114.688476562 991.033203125 114.688476562 c 5
 962.302734375 -20.48046875 l 5
 839.422851562 -20.48046875 765.645507812 8.1923828125 766.802734375 100.3515625 c 5
 728.118164062 53.248046875 624.689453125 -28.671875 460.849609375 -28.671875 c 5
 235.569335938 -28.671875 107.42578125 139.263671875 153.133789062 354.303710938 c 4
 198.841796875 569.34375 418.857421875 737.280273438 623.657226562 737.280273438 c 4
EndSplineSet
Fore
SplineSet
911 604 m 1
 1349 604 l 1
 1354 648 1358 691 1358 732 c 0
 1358.01453804 733.831793278 1358.02189003 735.658091334 1358.02189003 737.478666791 c 0
 1358.02189003 860.886472911 1324.24089693 958 1205 958 c 0
 1042 958 946 756 911 604 c 1
914 910 m 1
 1008 1024 1091 1094 1234 1094 c 0
 1434 1094 1517 957 1516 756 c 0
 1516.04583654 752.928951592 1516.06856221 749.843196263 1516.06856221 746.743022919 c 0
 1516.06856221 682.207787622 1506.22077876 611.424749615 1490 537 c 0
 1485 515 1478 492 1473 469 c 1
 883 469 l 1
 876 436 867 382 867 325 c 0
 867 220 898 106 1024 106 c 0
 1119 106 1156 162 1216 243 c 1
 1337 188 l 1
 1241 55 1150 -29 995 -29 c 0
 835 -29 801 55 754 164 c 1
 681 70 623 -29 430 -29 c 0
 243 -29 147 88 147 251 c 1
 148 284 151 318 159 354 c 0
 205 569 388 737 593 737 c 0
 721 737 749 690 776 633 c 1
 781 649 781 676 787 692 c 1
 793.399494937 723.083261121 798.127416998 753.330735804 798.127416998 781.214249456 c 0
 798.127416998 783.830735804 798.085786438 786.426406871 798 789 c 0
 799 886 755 954 643 954 c 0
 549 954 497 922 442 877 c 1
 420 916 386 979 386 979 c 1
 468 1036 529 1090 672 1090 c 0
 802 1090 870 1027 914 910 c 1
564 602 m 0
 413 602 338 483 311 354 c 0
 304.723456288 323.66337206 300.982608126 294.698344216 300.982608126 265.81298717 c 0
 300.982608126 175.365437677 343.354629234 106 459 106 c 0
 586 106 684 221 712 354 c 0
 717 379 719 402 720 425 c 1
 719 525 668 602 564 602 c 0
EndSplineSet
EndChar

StartChar: egrave
Encoding: 232 232 64
Width: 996
Flags: HMW
LayerCount: 2
Fore
SplineSet
357 469 m 1
 353.169796939 439.794701657 351.173400814 410.665811935 351.173400814 382.332787996 c 0
 351.173400814 233.13147142 406.534687076 106 541 106 c 0
 635 106 755 162 815 243 c 1
 936 188 l 1
 839 55 667 -29 512 -29 c 0
 298.55988024 -29 191.839820359 132.038653232 191.839820359 357.054239347 c 0
 191.839820359 413.518824626 198.55988024 474.011976048 212 537 c 0
 279 852 485 1094 751 1094 c 0
 966.677233537 1094 1060.85738365 923.004104813 1060.85738365 719.65863632 c 0
 1060.85738365 669.384702674 1055.10065027 617.133411077 1044 565 c 0
 1039 543 1030 492 1025 469 c 1
 357 469 l 1
385 604 m 1
 907 604 l 1
 911.398278108 633.321854051 913.647128403 662.484491227 913.647128403 690.761695132 c 0
 913.647128403 836.071628457 854.261928111 958 722 958 c 0
 562 958 432 774 385 604 c 1
868 1329 m 2
 874 1322 878 1314 878 1306 c 0
 878 1302 878 1297 877 1292 c 0
 874 1279 866 1268 856 1257 c 0
 846 1247 834 1240 820 1237 c 0
 815 1236 810 1235 806 1235 c 0
 797 1235 788 1238 781 1244 c 2
 523 1463 l 1
 512 1475 506 1489 505 1504 c 0
 505 1507.33333333 504.555555556 1510.66666667 504.555555556 1514.59259259 c 0
 504.555555556 1516.55555556 504.666666667 1518.66666667 505 1521 c 0
 509 1538 518 1554 532 1567 c 1
 545 1581 560 1591 578 1595 c 0
 584 1597 590 1597 596 1597 c 0
 613 1597 628 1592 641 1579 c 2
 868 1329 l 2
EndSplineSet
EndChar

StartChar: eacute
Encoding: 233 233 65
Width: 1046
Flags: HMW
LayerCount: 2
Fore
SplineSet
367 469 m 1
 363.169796939 439.794701657 361.173400814 410.665811935 361.173400814 382.332787996 c 0
 361.173400814 233.13147142 416.534687076 106 551 106 c 0
 645 106 765 162 825 243 c 1
 946 188 l 1
 849 55 677 -29 522 -29 c 0
 308.55988024 -29 201.839820359 132.038653232 201.839820359 357.054239347 c 0
 201.839820359 413.518824626 208.55988024 474.011976048 222 537 c 0
 289 852 495 1094 761 1094 c 0
 976.677233537 1094 1070.85738365 923.004104813 1070.85738365 719.65863632 c 0
 1070.85738365 669.384702674 1065.10065027 617.133411077 1054 565 c 0
 1049 543 1040 492 1035 469 c 1
 367 469 l 1
395 604 m 1
 917 604 l 1
 921.398278108 633.321854051 923.647128403 662.484491227 923.647128403 690.761695132 c 0
 923.647128403 836.071628457 864.261928111 958 732 958 c 0
 572 958 442 774 395 604 c 1
713 1329 m 2
 1048 1579 l 2
 1067 1592 1082 1597 1099 1597 c 0
 1105 1597 1111 1597 1117 1595 c 0
 1133 1591 1144 1581 1151 1567 c 1
 1156.61249695 1557.87969246 1159.76404687 1547.28281669 1159.76404687 1535.8999756 c 0
 1159.76404687 1531.05782279 1159.19375153 1526.07344398 1158 1521 c 0
 1157 1514 1154 1509 1152 1504 c 0
 1145 1489 1133 1475 1116 1463 c 1
 764 1244 l 2
 755 1238 746 1235 737 1235 c 0
 733 1235 728 1236 723 1237 c 0
 711 1240 701 1247 695 1257 c 0
 690.857505441 1264.59457336 688.621706568 1272.18914672 688.621706568 1280.44192645 c 0
 688.621706568 1284.14249456 689.071247279 1287.97540488 690 1292 c 0
 691 1297 693 1302 695 1306 c 0
 699 1314 705 1322 713 1329 c 2
EndSplineSet
EndChar

StartChar: ecircumflex
Encoding: 234 234 66
Width: 1046
Flags: HMW
LayerCount: 2
Fore
SplineSet
1119 1153 m 1
 931 1153 l 1
 820 1366 l 1
 618 1155 l 1
 432 1155 l 1
 781 1497 l 1
 912 1497 l 1
 1119 1153 l 1
367 469 m 1
 363.169796939 439.794701657 361.173400814 410.665811935 361.173400814 382.332787996 c 0
 361.173400814 233.13147142 416.534687076 106 551 106 c 0
 645 106 765 162 825 243 c 1
 946 188 l 1
 849 55 677 -29 522 -29 c 0
 308.55988024 -29 201.839820359 132.038653232 201.839820359 357.054239347 c 0
 201.839820359 413.518824626 208.55988024 474.011976048 222 537 c 0
 289 852 495 1094 761 1094 c 0
 976.677233537 1094 1070.85738365 923.004104813 1070.85738365 719.65863632 c 0
 1070.85738365 669.384702674 1065.10065027 617.133411077 1054 565 c 0
 1049 543 1040 492 1035 469 c 1
 367 469 l 1
395 604 m 1
 917 604 l 1
 921.398278108 633.321854051 923.647128403 662.484491227 923.647128403 690.761695132 c 0
 923.647128403 836.071628457 864.261928111 958 732 958 c 0
 572 958 442 774 395 604 c 1
EndSplineSet
EndChar

StartChar: edieresis
Encoding: 235 235 67
Width: 1046
Flags: HMW
LayerCount: 2
Fore
SplineSet
483 1317 m 0
 488 1342 502 1364 525 1383 c 0
 548 1402 572 1411 597 1411 c 0
 619 1411 637 1404 651 1390 c 0
 665 1376 672 1357 673 1336 c 0
 673 1331 673 1325 671 1317 c 0
 665 1291 652 1269 629 1250 c 0
 606 1231 582 1222 557 1222 c 0
 535 1222 516 1230 502 1244 c 0
 488 1258 481 1276 481 1298 c 0
 481 1302 481 1308 483 1317 c 0
954 1319 m 0
 959 1344 973 1366 996 1385 c 0
 1019 1404 1043 1413 1068 1413 c 0
 1090 1413 1109 1406 1123 1392 c 0
 1137 1378 1143 1359 1144 1338 c 0
 1144 1333 1144 1327 1142 1319 c 0
 1136 1293 1123 1271 1100 1252 c 0
 1077 1233 1053 1224 1028 1224 c 0
 1006 1224 988 1232 974 1246 c 0
 960 1260 952 1278 952 1300 c 0
 953 1308 953 1314 954 1319 c 0
367 469 m 1
 363.169796939 439.794701657 361.173400814 410.665811935 361.173400814 382.332787996 c 0
 361.173400814 233.13147142 416.534687076 106 551 106 c 0
 645 106 765 162 825 243 c 1
 946 188 l 1
 849 55 677 -29 522 -29 c 0
 308.55988024 -29 201.839820359 132.038653232 201.839820359 357.054239347 c 0
 201.839820359 413.518824626 208.55988024 474.011976048 222 537 c 0
 289 852 495 1094 761 1094 c 0
 976.677233537 1094 1070.85738365 923.004104813 1070.85738365 719.65863632 c 0
 1070.85738365 669.384702674 1065.10065027 617.133411077 1054 565 c 0
 1049 543 1040 492 1035 469 c 1
 367 469 l 1
395 604 m 1
 917 604 l 1
 921.398278108 633.321854051 923.647128403 662.484491227 923.647128403 690.761695132 c 0
 923.647128403 836.071628457 864.261928111 958 732 958 c 0
 572 958 442 774 395 604 c 1
EndSplineSet
EndChar

StartChar: igrave
Encoding: 236 236 68
Width: 430
Flags: HMW
LayerCount: 2
Fore
SplineSet
378 1073 m 1
 529 1073 l 1
 301 0 l 1
 150 0 l 1
 378 1073 l 1
569 1329 m 2
 575 1322 579 1314 579 1306 c 0
 579 1302 579 1297 578 1292 c 0
 575 1279 567 1268 557 1257 c 0
 547 1247 535 1240 521 1237 c 0
 516 1236 511 1235 507 1235 c 0
 498 1235 489 1238 482 1244 c 2
 224 1463 l 1
 213 1475 207 1489 206 1504 c 0
 206 1507.33333333 205.555555556 1510.66666667 205.555555556 1514.59259259 c 0
 205.555555556 1516.55555556 205.666666667 1518.66666667 206 1521 c 0
 210 1538 219 1554 233 1567 c 1
 246 1581 261 1591 279 1595 c 0
 285 1597 291 1597 297 1597 c 0
 314 1597 329 1592 342 1579 c 2
 569 1329 l 2
EndSplineSet
EndChar

StartChar: iacute
Encoding: 237 237 69
Width: 421
Flags: HMW
LayerCount: 2
Fore
SplineSet
378 1073 m 1
 529 1073 l 1
 301 0 l 1
 150 0 l 1
 378 1073 l 1
449 1329 m 2
 784 1579 l 2
 803 1592 818 1597 835 1597 c 0
 841 1597 847 1597 853 1595 c 0
 869 1591 880 1581 887 1567 c 1
 892.61249695 1557.87969246 895.764046867 1547.28281669 895.764046867 1535.8999756 c 0
 895.764046867 1531.05782279 895.193751525 1526.07344398 894 1521 c 0
 893 1514 890 1509 888 1504 c 0
 881 1489 869 1475 852 1463 c 1
 500 1244 l 2
 491 1238 482 1235 473 1235 c 0
 469 1235 464 1236 459 1237 c 0
 447 1240 437 1247 431 1257 c 0
 426.857505441 1264.59457336 424.621706568 1272.18914672 424.621706568 1280.44192645 c 0
 424.621706568 1284.14249456 425.071247279 1287.97540488 426 1292 c 0
 427 1297 429 1302 431 1306 c 0
 435 1314 441 1322 449 1329 c 2
EndSplineSet
EndChar

StartChar: icircumflex
Encoding: 238 238 70
Width: 888
Flags: HMW
LayerCount: 2
Fore
SplineSet
619 1073 m 1
 771 1073 l 1
 543 0 l 1
 391 0 l 1
 619 1073 l 1
1041 1118 m 1
 853 1118 l 1
 742 1331 l 1
 539 1120 l 1
 353 1120 l 1
 703 1462 l 1
 834 1462 l 1
 1041 1118 l 1
EndSplineSet
EndChar

StartChar: idieresis
Encoding: 239 239 71
Width: 667
Flags: HMW
LayerCount: 2
Fore
SplineSet
500 1073 m 1
 652 1073 l 1
 424 0 l 1
 272 0 l 1
 500 1073 l 1
280 1282 m 0
 285 1307 300 1329 323 1348 c 0
 346 1367 369 1376 394 1376 c 0
 416 1376 435 1369 449 1355 c 0
 463 1341 470 1322 471 1301 c 0
 471 1296 470 1290 468 1282 c 0
 462 1256 449 1234 426 1215 c 0
 403 1196 379 1187 354 1187 c 0
 332 1187 314 1195 300 1209 c 0
 286 1223 278 1241 278 1263 c 0
 278 1267 278 1273 280 1282 c 0
752 1284 m 0
 757 1309 771 1331 794 1350 c 0
 817 1369 841 1378 866 1378 c 0
 888 1378 906 1371 920 1357 c 0
 934 1343 941 1324 942 1303 c 0
 942 1298 942 1292 940 1284 c 0
 934 1258 921 1236 898 1217 c 0
 875 1198 851 1189 826 1189 c 0
 804 1189 785 1197 771 1211 c 0
 757 1225 750 1243 750 1265 c 0
 751 1273 751 1279 752 1284 c 0
EndSplineSet
EndChar

StartChar: eth
Encoding: 240 240 72
Width: 1030
Flags: HMW
LayerCount: 2
Fore
SplineSet
958 1290 m 1
 1015 1204 1091 1033 1091 870 c 0
 1091 846 1089 823 1085 801 c 0
 1072 711 1065 643 1043 540 c 0
 1040 528 1038 515 1035 502 c 0
 969 193 731 -29 496 -29 c 0
 254 -29 162 118 162 307 c 0
 162 355 169 407 180 459 c 0
 235 717 445 926 660 926 c 0
 830 926 863 846 925 778 c 1
 929 799 932 824 932 851 c 0
 932 971 890 1136 827 1204 c 1
 644 1061 l 1
 566 1161 l 1
 729 1290 l 1
 679 1309 628 1315 575 1315 c 0
 536 1315 496 1311 458 1307 c 1
 475 1454 l 1
 502 1456 530 1456 557 1456 c 0
 669 1456 777 1440 870 1386 c 1
 1055 1526 l 1
 1128 1417 l 1
 958 1290 l 1
330 455 m 0
 323 420 319 389 319 359 c 0
 319 191 429 106 515 106 c 0
 668 106 836 279 873 455 c 0
 877.354143467 475.029059948 880.191601707 494.299777283 880.191601707 512.812152004 c 0
 880.191601707 515.558119896 880.129171307 518.287402561 880 521 c 0
 881 679 754 791 621 791 c 0
 498 791 362 604 330 455 c 0
EndSplineSet
EndChar

StartChar: ograve
Encoding: 242 242 73
Width: 996
Flags: HMW
LayerCount: 2
Fore
SplineSet
370 537 m 0
 357.311731636 477.872669422 350.354783957 420.999229001 350.354783957 369.043374736 c 0
 350.354783957 216.259493157 410.51436956 106 562 106 c 0
 763 106 885 304 935 537 c 0
 947.25 594.75 953.9375 649.9375 953.9375 700.234375 c 0
 953.9375 851.125 893.75 958 743 958 c 0
 540 958 419 768 370 537 c 0
216 537 m 0
 283 852 485 1094 772 1094 c 0
 1000.43954802 1094 1108.73720293 936.594845932 1108.73720293 713.448642065 c 0
 1108.73720293 658.198794751 1102.09820993 598.91881059 1089 537 c 0
 1022 221 822 -29 533 -29 c 0
 303.705294197 -29 195.687425563 131.851384034 195.687425563 356.661689735 c 0
 195.687425563 413.23842047 202.528729229 473.865984746 216 537 c 0
828 1328 m 2
 834 1321 837 1313 837 1305 c 0
 837 1301 837 1296 836 1291 c 0
 833 1278 826 1267 816 1256 c 0
 806 1246 794 1239 780 1236 c 0
 775 1235 769 1234 765 1234 c 0
 756 1234 748 1237 741 1243 c 2
 483 1462 l 1
 472 1474 465 1488 464 1503 c 0
 464 1508 464 1513 465 1520 c 0
 469 1537 478 1553 492 1566 c 1
 505 1580 520 1590 538 1594 c 0
 544 1596 550 1596 556 1596 c 0
 573 1596 587 1591 600 1578 c 2
 828 1328 l 2
EndSplineSet
EndChar

StartChar: oacute
Encoding: 243 243 74
Width: 996
Flags: HMW
LayerCount: 2
Fore
SplineSet
370 537 m 0
 357.311731636 477.872669422 350.354783957 420.999229001 350.354783957 369.043374736 c 0
 350.354783957 216.259493157 410.51436956 106 562 106 c 0
 763 106 885 304 935 537 c 0
 947.25 594.75 953.9375 649.9375 953.9375 700.234375 c 0
 953.9375 851.125 893.75 958 743 958 c 0
 540 958 419 768 370 537 c 0
216 537 m 0
 283 852 485 1094 772 1094 c 0
 1000.43954802 1094 1108.73720293 936.594845932 1108.73720293 713.448642065 c 0
 1108.73720293 658.198794751 1102.09820993 598.91881059 1089 537 c 0
 1022 221 822 -29 533 -29 c 0
 303.705294197 -29 195.687425563 131.851384034 195.687425563 356.661689735 c 0
 195.687425563 413.23842047 202.528729229 473.865984746 216 537 c 0
776 1329 m 2
 1111 1579 l 2
 1130 1592 1145 1597 1162 1597 c 0
 1168 1597 1174 1597 1180 1595 c 0
 1196 1591 1207 1581 1214 1567 c 1
 1219.61249695 1557.87969246 1222.76404687 1547.28281669 1222.76404687 1535.8999756 c 0
 1222.76404687 1531.05782279 1222.19375153 1526.07344398 1221 1521 c 0
 1220 1514 1217 1509 1215 1504 c 0
 1208 1489 1196 1475 1179 1463 c 1
 827 1244 l 2
 818 1238 809 1235 800 1235 c 0
 796 1235 791 1236 786 1237 c 0
 774 1240 764 1247 758 1257 c 0
 753.857505441 1264.59457336 751.621706568 1272.18914672 751.621706568 1280.44192645 c 0
 751.621706568 1284.14249456 752.071247279 1287.97540488 753 1292 c 0
 754 1297 756 1302 758 1306 c 0
 762 1314 768 1322 776 1329 c 2
EndSplineSet
EndChar

StartChar: ocircumflex
Encoding: 244 244 75
Width: 1062
Flags: HMW
LayerCount: 2
Fore
SplineSet
1110 1122 m 1
 922 1122 l 1
 812 1335 l 1
 609 1124 l 1
 423 1124 l 1
 773 1466 l 1
 904 1466 l 1
 1110 1122 l 1
380 537 m 0
 367.311731636 477.872669422 360.354783957 420.999229001 360.354783957 369.043374736 c 0
 360.354783957 216.259493157 420.51436956 106 572 106 c 0
 773 106 895 304 945 537 c 0
 957.25 594.75 963.9375 649.9375 963.9375 700.234375 c 0
 963.9375 851.125 903.75 958 753 958 c 0
 550 958 429 768 380 537 c 0
226 537 m 0
 293 852 495 1094 782 1094 c 0
 1010.43954802 1094 1118.73720293 936.594845932 1118.73720293 713.448642065 c 0
 1118.73720293 658.198794751 1112.09820993 598.91881059 1099 537 c 0
 1032 221 832 -29 543 -29 c 0
 313.705294197 -29 205.687425563 131.851384034 205.687425563 356.661689735 c 0
 205.687425563 413.23842047 212.528729229 473.865984746 226 537 c 0
EndSplineSet
EndChar

StartChar: otilde
Encoding: 245 245 76
Width: 1062
Flags: HMW
LayerCount: 2
Fore
SplineSet
508 1323 m 1
 562 1360 634 1419 712 1419 c 0
 810 1419 842 1268 946 1268 c 0
 1016 1268 1083 1321 1154 1366 c 1
 1124 1221 l 1
 1053 1173 988 1122 914 1122 c 0
 799 1122 761 1274 679 1274 c 0
 601 1274 543 1223 477 1177 c 1
 508 1323 l 1
380 537 m 0
 367.311731636 477.872669422 360.354783957 420.999229001 360.354783957 369.043374736 c 0
 360.354783957 216.259493157 420.51436956 106 572 106 c 0
 773 106 895 304 945 537 c 0
 957.25 594.75 963.9375 649.9375 963.9375 700.234375 c 0
 963.9375 851.125 903.75 958 753 958 c 0
 550 958 429 768 380 537 c 0
226 537 m 0
 293 852 495 1094 782 1094 c 0
 1010.43954802 1094 1118.73720293 936.594845932 1118.73720293 713.448642065 c 0
 1118.73720293 658.198794751 1112.09820993 598.91881059 1099 537 c 0
 1032 221 832 -29 543 -29 c 0
 313.705294197 -29 205.687425563 131.851384034 205.687425563 356.661689735 c 0
 205.687425563 413.23842047 212.528729229 473.865984746 226 537 c 0
EndSplineSet
EndChar

StartChar: odieresis
Encoding: 246 246 77
Width: 1060
Flags: HMW
LayerCount: 2
Fore
SplineSet
496 1311 m 0
 501 1336 515 1358 538 1377 c 0
 561 1396 585 1405 610 1405 c 0
 632 1405 650 1398 664 1384 c 0
 678 1370 685 1351 686 1330 c 0
 686 1325 686 1319 684 1311 c 0
 678 1285 664 1263 641 1244 c 0
 618 1225 594 1216 569 1216 c 0
 547 1216 529 1224 515 1238 c 0
 501 1252 494 1270 494 1292 c 0
 494 1296 494 1302 496 1311 c 0
967 1313 m 0
 972 1338 986 1360 1009 1379 c 0
 1032 1398 1056 1407 1081 1407 c 0
 1103 1407 1122 1400 1136 1386 c 0
 1150 1372 1156 1353 1157 1332 c 0
 1157 1327 1157 1321 1155 1313 c 0
 1149 1287 1136 1265 1113 1246 c 0
 1090 1227 1066 1218 1041 1218 c 0
 1019 1218 1001 1226 987 1240 c 0
 973 1254 965 1272 965 1294 c 0
 966 1302 966 1308 967 1313 c 0
380 537 m 0
 367.311731636 477.872669422 360.354783957 420.999229001 360.354783957 369.043374736 c 0
 360.354783957 216.259493157 420.51436956 106 572 106 c 0
 773 106 895 304 945 537 c 0
 957.25 594.75 963.9375 649.9375 963.9375 700.234375 c 0
 963.9375 851.125 903.75 958 753 958 c 0
 550 958 429 768 380 537 c 0
226 537 m 0
 293 852 495 1094 782 1094 c 0
 1010.43954802 1094 1118.73720293 936.594845932 1118.73720293 713.448642065 c 0
 1118.73720293 658.198794751 1112.09820993 598.91881059 1099 537 c 0
 1032 221 832 -29 543 -29 c 0
 313.705294197 -29 205.687425563 131.851384034 205.687425563 356.661689735 c 0
 205.687425563 413.23842047 212.528729229 473.865984746 226 537 c 0
EndSplineSet
EndChar

StartChar: divide
Encoding: 247 247 78
Width: 911
Flags: HMW
LayerCount: 2
Fore
SplineSet
269 705 m 1
 946 705 l 1
 916 563 l 1
 239 563 l 1
 269 705 l 1
403 278 m 0
 416 338 475 386 534 386 c 0
 586 386 621 349 621 301 c 0
 621 293 620 286 618 278 c 0
 605 219 547 171 488 171 c 0
 433.665980339 171 400.727457514 208.572611099 400.727457514 260.106134621 c 0
 400.727457514 266.019253582 402.190983006 272.336881039 403 278 c 0
558 1007 m 0
 571 1067 630 1115 689 1115 c 0
 741 1115 776 1078 776 1030 c 0
 776 1022 775 1015 773 1007 c 0
 760 948 702 900 643 900 c 0
 588.665980339 900 555.727457514 937.572611099 555.727457514 989.106134621 c 0
 555.727457514 995.019253582 557.190983006 1001.33688104 558 1007 c 0
EndSplineSet
EndChar

StartChar: oslash
Encoding: 248 248 79
Width: 1024
Flags: HMW
LayerCount: 2
Back
SplineSet
210.30859375 536.576171875 m 4
 277.34765625 851.967773438 474.122070312 1093.62988281 740.362304688 1093.62988281 c 4
 1006.60253906 1093.62988281 1100.64355469 851.967773438 1033.60449219 536.576171875 c 4
 966.56640625 221.18359375 768.049804688 -28.671875 501.809570312 -28.671875 c 5
 235.569335938 -28.671875 143.26953125 221.18359375 210.30859375 536.576171875 c 4
353.668945312 536.576171875 m 4
 311.87890625 339.967773438 350.31640625 106.49609375 530.540039062 106.49609375 c 4
 723.052734375 106.49609375 848.454101562 339.967773438 890.245117188 536.576171875 c 4
 932.03515625 733.18359375 891.85546875 958.463867188 711.631835938 958.463867188 c 4
 531.408203125 958.463867188 395.458984375 733.18359375 353.668945312 536.576171875 c 4
EndSplineSet
Fore
SplineSet
80 -29 m 1
 234 153 l 1
 210 211 197 282 197 361 c 0
 198 416 203 475 216 537 c 0
 283 852 485 1094 751 1094 c 0
 840 1094 910 1067 961 1019 c 1
 1026 1098 l 1
 1181 1098 l 1
 1030 917 l 1
 1054.10485346 861.076739962 1067.05366289 793.997435881 1067.05366289 718.451235826 c 0
 1067.05366289 715.645787565 1067.03580586 712.828663051 1067 710 c 1
 1067.06299606 706.598212598 1067.09424409 703.180551181 1067.09424409 699.747265748 c 0
 1067.09424409 648.680551181 1060.18105118 594.157240157 1048 537 c 0
 981 221 778 -29 512 -29 c 0
 423 -29 353 0 301 49 c 1
 237 -29 l 1
 80 -29 l 1
856 895 m 1
 824 934 781 958 722 958 c 0
 542 958 410 733 368 537 c 0
 357 485 350 431 350 379 c 0
 350 351 352 324 357 299 c 1
 856 895 l 1
907 771 m 1
 406 174 l 1
 437 132 481 106 541 106 c 0
 734 106 854 340 896 537 c 0
 907 588 914 641 914 691 c 0
 914 719 913 746 907 771 c 1
EndSplineSet
EndChar

StartChar: ucircumflex
Encoding: 251 251 80
Width: 1064
Flags: HMW
LayerCount: 2
Fore
SplineSet
1124 1196 m 1
 936 1196 l 1
 825 1409 l 1
 623 1198 l 1
 437 1198 l 1
 786 1540 l 1
 917 1540 l 1
 1124 1196 l 1
1033 1073 m 1
 1185 1073 l 1
 957 0 l 1
 805 0 l 1
 843 181 l 1
 784 69 652 -29 494 -29 c 0
 326.456316963 -29 216.530400941 74.5893896323 216.530400941 307.682297763 c 0
 216.530400941 372.314027386 224.981895757 446.902447431 243 532 c 2
 358 1073 l 1
 509 1073 l 1
 394 532 l 2
 380.481111381 469.001979036 373.029866365 409.074331944 373.029866365 355.162153159 c 0
 373.029866365 209.678581653 427.290265662 108 563 108 c 0
 749 108 870 305 918 533 c 2
 1033 1073 l 1
EndSplineSet
EndChar

StartChar: udieresis
Encoding: 252 252 81
Width: 1064
Flags: HMW
LayerCount: 2
Fore
SplineSet
483 1319 m 0
 488 1344 502 1366 525 1385 c 0
 548 1404 572 1413 597 1413 c 0
 619 1413 638 1406 652 1392 c 0
 666 1378 672 1359 673 1338 c 0
 673 1333 673 1327 671 1319 c 0
 665 1293 652 1271 629 1252 c 0
 606 1233 582 1224 557 1224 c 0
 535 1224 517 1232 503 1246 c 0
 489 1260 481 1278 481 1300 c 0
 481 1304 481 1310 483 1319 c 0
955 1321 m 0
 960 1346 974 1368 997 1387 c 0
 1020 1406 1044 1415 1069 1415 c 0
 1091 1415 1109 1408 1123 1394 c 0
 1137 1380 1144 1361 1145 1340 c 0
 1145 1335 1145 1329 1143 1321 c 0
 1137 1295 1124 1273 1101 1254 c 0
 1078 1235 1054 1226 1029 1226 c 0
 1007 1226 988 1234 974 1248 c 0
 960 1262 953 1280 953 1302 c 0
 954 1310 954 1316 955 1321 c 0
1033 1073 m 1
 1185 1073 l 1
 957 0 l 1
 805 0 l 1
 843 181 l 1
 784 69 652 -29 494 -29 c 0
 326.456316963 -29 216.530400941 74.5893896323 216.530400941 307.682297763 c 0
 216.530400941 372.314027386 224.981895757 446.902447431 243 532 c 2
 358 1073 l 1
 509 1073 l 1
 394 532 l 2
 380.481111381 469.001979036 373.029866365 409.074331944 373.029866365 355.162153159 c 0
 373.029866365 209.678581653 427.290265662 108 563 108 c 0
 749 108 870 305 918 533 c 2
 1033 1073 l 1
EndSplineSet
EndChar

StartChar: yacute
Encoding: 253 253 82
Width: 996
Flags: HMW
LayerCount: 2
Fore
SplineSet
943 -18 m 2
 885 -291 628 -449 425 -449 c 0
 245 -449 152 -356 99 -275 c 1
 223 -190 l 1
 262 -252 326 -313 453 -313 c 0
 578 -313 747 -225 788 -33 c 0
 803 38 818 110 833 181 c 1
 774 69 642 -29 484 -29 c 0
 316.456316963 -29 206.530400941 74.5893896323 206.530400941 307.682297763 c 0
 206.530400941 372.314027386 214.981895757 446.902447431 233 532 c 2
 348 1073 l 1
 499 1073 l 1
 384 532 l 2
 370.481111381 469.001979036 363.029866365 409.074331944 363.029866365 355.162153159 c 0
 363.029866365 209.678581653 417.290265662 108 553 108 c 0
 739 108 860 305 908 533 c 2
 1023 1073 l 1
 1175 1073 l 1
 943 -18 l 2
706 1329 m 2
 1041 1579 l 2
 1060 1592 1075 1597 1092 1597 c 0
 1098 1597 1104 1597 1110 1595 c 0
 1126 1591 1137 1581 1144 1567 c 1
 1149.61249695 1557.87969246 1152.76404687 1547.28281669 1152.76404687 1535.8999756 c 0
 1152.76404687 1531.05782279 1152.19375153 1526.07344398 1151 1521 c 0
 1150 1514 1147 1509 1145 1504 c 0
 1138 1489 1126 1475 1109 1463 c 1
 757 1244 l 2
 748 1238 739 1235 730 1235 c 0
 726 1235 721 1236 716 1237 c 0
 704 1240 694 1247 688 1257 c 0
 683.857505441 1264.59457336 681.621706568 1272.18914672 681.621706568 1280.44192645 c 0
 681.621706568 1284.14249456 682.071247279 1287.97540488 683 1292 c 0
 684 1297 686 1302 688 1306 c 0
 692 1314 698 1322 706 1329 c 2
EndSplineSet
EndChar

StartChar: thorn
Encoding: 254 254 83
Width: 1003
Flags: HMW
LayerCount: 2
Fore
SplineSet
937 729 m 0
 950 792 957 851 957 904 c 0
 957 1049 908 1149 815 1149 c 0
 676 1149 486 987 431 729 c 0
 418.698933307 670.569933209 413.992006618 620.03996921 413.992006618 573.016000421 c 0
 413.992006618 388.042471474 506.4800445 299 596 299 c 0
 746 299 879 455 937 729 c 0
281 0 m 1
 129 0 l 1
 438 1454 l 1
 590 1454 l 1
 517 1112 l 1
 602 1206 689 1284 834 1284 c 0
 1028 1284 1111 1125 1111 922 c 0
 1111 862 1104 798 1090 733 c 0
 1030 451 881 164 557 164 c 0
 393 164 347 311 347 311 c 1
 347 311 307 121 281 0 c 1
EndSplineSet
EndChar

StartChar: ydieresis
Encoding: 255 255 84
Width: 1064
Flags: HMW
LayerCount: 2
Fore
SplineSet
501 1308 m 0
 506 1333 520 1355 543 1374 c 0
 566 1393 590 1402 615 1402 c 0
 637 1402 656 1395 670 1381 c 0
 684 1367 690 1348 691 1327 c 0
 691 1322 691 1316 689 1308 c 0
 683 1282 670 1260 647 1241 c 0
 624 1222 600 1213 575 1213 c 0
 553 1213 535 1221 521 1235 c 0
 507 1249 499 1267 499 1289 c 0
 499 1293 499 1299 501 1308 c 0
972 1310 m 0
 977 1335 991 1357 1014 1376 c 0
 1037 1395 1061 1404 1086 1404 c 0
 1108 1404 1127 1397 1141 1383 c 0
 1155 1369 1161 1350 1162 1329 c 0
 1162 1324 1162 1318 1160 1310 c 0
 1154 1284 1141 1262 1118 1243 c 0
 1095 1224 1071 1215 1046 1215 c 0
 1024 1215 1006 1223 992 1237 c 0
 978 1251 970 1269 970 1291 c 0
 971 1299 971 1305 972 1310 c 0
953 -18 m 2
 895 -291 638 -449 435 -449 c 0
 255 -449 162 -356 109 -275 c 1
 233 -190 l 1
 272 -252 336 -313 463 -313 c 0
 588 -313 757 -225 798 -33 c 0
 813 38 828 110 843 181 c 1
 784 69 652 -29 494 -29 c 0
 326.456316963 -29 216.530400941 74.5893896323 216.530400941 307.682297763 c 0
 216.530400941 372.314027386 224.981895757 446.902447431 243 532 c 2
 358 1073 l 1
 509 1073 l 1
 394 532 l 2
 380.481111381 469.001979036 373.029866365 409.074331944 373.029866365 355.162153159 c 0
 373.029866365 209.678581653 427.290265662 108 563 108 c 0
 749 108 870 305 918 533 c 2
 1033 1073 l 1
 1185 1073 l 1
 953 -18 l 2
EndSplineSet
EndChar

StartChar: quotedblbase
Encoding: 8222 8222 85
Width: 688
Flags: HMW
LayerCount: 2
Fore
SplineSet
679 109 m 0
 646 -48 518 -171 489 -206 c 1
 440 -175 l 1
 467 -145 535 -69 550 3 c 1
 498 3 462 38 462 87 c 0
 461 94 463 102 464 109 c 0
 477 169 536 217 595 217 c 0
 647 217 682 180 682 132 c 0
 682 124 681 117 679 109 c 0
352 111 m 0
 319 -46 191 -169 162 -204 c 1
 112 -173 l 1
 139 -143 207 -67 222 5 c 1
 170 5 135 40 135 89 c 0
 134 96 136 104 137 111 c 0
 150 171 209 219 268 219 c 0
 320 219 354 182 354 134 c 0
 354 126 354 119 352 111 c 0
EndSplineSet
EndChar

StartChar: uni201F
Encoding: 8223 8223 86
Width: 688
Flags: HMW
LayerCount: 2
Fore
SplineSet
675 1194 m 0
 708 1351 836 1474 865 1509 c 1
 914 1478 l 1
 887 1448 819 1372 804 1300 c 1
 856 1300 891 1265 891 1216 c 0
 892 1209 891 1201 890 1194 c 0
 877 1134 818 1086 759 1086 c 0
 707 1086 672 1123 672 1171 c 0
 672 1179 673 1186 675 1194 c 0
345 1196 m 0
 378 1353 506 1476 535 1511 c 1
 585 1480 l 1
 558 1450 490 1374 475 1302 c 1
 527 1302 562 1267 562 1218 c 0
 563 1211 561 1203 560 1196 c 0
 547 1136 488 1088 429 1088 c 0
 377 1088 342 1125 342 1173 c 0
 342 1181 343 1188 345 1196 c 0
EndSplineSet
EndChar

StartChar: Euro
Encoding: 8364 8364 87
Width: 1089
Flags: HMW
LayerCount: 2
Fore
SplineSet
432 762 m 1
 303 762 l 1
 332 897 l 1
 485 897 l 1
 572 1069 719 1196 891 1196 c 0
 1051 1196 1104 1155 1178 1063 c 1
 1133 1025 1062 967 1062 967 c 1
 1017 1024 982 1061 863 1061 c 0
 778 1061 699 988 642 897 c 1
 912 897 l 1
 883 762 l 1
 577 762 l 1
 571 743 566 724 562 707 c 0
 557 685 554 665 552 645 c 1
 852 645 l 1
 823 510 l 1
 558 510 l 1
 582 403 651 346 711 346 c 0
 797 346 851 362 957 457 c 1
 1033 360 l 1
 950 283 872 211 682 211 c 0
 497 211 413 341 402 510 c 1
 243 510 l 1
 272 645 l 1
 408 645 l 1
 411 667 414 689 419 711 c 0
 423 728 427 745 432 762 c 1
EndSplineSet
EndChar

StartChar: A
Encoding: 65 65 88
Width: 1302
Flags: HMW
LayerCount: 2
Fore
SplineSet
1010 485 m 1
 513 485 l 1
 248 0 l 1
 72 0 l 1
 905 1456 l 1
 905 1456 982 1456 1032 1456 c 1
 1247 0 l 1
 1067 0 l 1
 1010 485 l 1
917 1214 m 1
 587 621 l 1
 1002 621 l 1
 917 1214 l 1
EndSplineSet
EndChar

StartChar: B
Encoding: 66 66 89
Width: 1179
Flags: HMW
LayerCount: 2
Back
SplineSet
568.637695312 1085.44042969 m 4
 602.278320312 1243.70996094 758.03125 1372.16015625 916.301757812 1372.16015625 c 4
 1074.5703125 1372.16015625 1175.71875 1243.70996094 1142.07714844 1085.44042969 c 4
 1108.43652344 927.170898438 952.682617188 798.719726562 794.413085938 798.719726562 c 4
 636.143554688 798.719726562 534.99609375 927.170898438 568.637695312 1085.44042969 c 4
348.336914062 405.50390625 m 4
 390.62890625 604.471679688 586.43359375 765.952148438 785.400390625 765.952148438 c 4
 984.368164062 765.952148438 1111.52441406 604.471679688 1069.23242188 405.50390625 c 4
 1026.94042969 206.537109375 831.13671875 45.0556640625 632.168945312 45.0556640625 c 4
 433.202148438 45.0556640625 306.044921875 206.537109375 348.336914062 405.50390625 c 4
EndSplineSet
Fore
SplineSet
430 1456 m 1
 825 1456 l 2
 1153 1456 1248 1301 1248 1156 c 0
 1247 1130 1244 1104 1239 1079 c 0
 1204 915 1030 782 922 782 c 1
 1124 782 1182 620 1182 496 c 0
 1182 469 1179 445 1175 424 c 0
 1146 287 1034 0 598 0 c 2
 121 0 l 1
 430 1456 l 1
559 1317 m 1
 458 844 l 1
 496 844 662 844 695 844 c 0
 984 844 1060 991 1079 1079 c 0
 1082 1095 1085 1112 1085 1130 c 0
 1085 1214 1034 1315 796 1315 c 0
 765 1315 595 1317 559 1317 c 1
429 705 m 1
 309 141 l 1
 628 141 l 2
 868 141 991 287 1021 430 c 0
 1025.35414347 449.158231255 1028.19160171 467.558119896 1028.19160171 485.860052431 c 0
 1028.19160171 488.574805122 1028.12917131 491.287402561 1028 494 c 0
 1029 610 951 705 748 705 c 0
 721 705 461 705 429 705 c 1
EndSplineSet
EndChar

StartChar: C
Encoding: 67 67 90
Width: 1220
Flags: HMW
LayerCount: 2
Fore
SplineSet
1229 293 m 1
 1134 133 959 -29 694 -29 c 0
 366.761988019 -29 229.007994424 205.29442814 229.007994424 497.693893051 c 0
 229.007994424 570.75130286 237.607620984 647.436060266 254 725 c 0
 337 1114 611 1495 1020 1495 c 0
 1285 1495 1388 1327 1407 1194 c 1
 1346 1178 1249 1153 1249 1153 c 1
 1236 1276 1126 1354 990 1354 c 2
 988 1354 l 2
 700 1354 486 1037 420 725 c 0
 406.271092943 660.191482862 399.390180122 596.524298097 399.390180122 536.179301906 c 0
 399.390180122 297.632352521 506.915628229 111 724 111 c 0
 868 111 1025 215 1091 334 c 1
 1145 318 1229 293 1229 293 c 1
EndSplineSet
EndChar

StartChar: D
Encoding: 68 68 91
Width: 1220
Flags: HMW
LayerCount: 2
Fore
SplineSet
1308 727 m 0
 1221 319 942 0 565 0 c 2
 121 0 l 1
 430 1456 l 1
 874 1456 l 2
 1182.17282416 1456 1329.97783111 1220.12566886 1329.97783111 928.626023303 c 0
 1329.97783111 863.52262745 1322.60523625 795.644610389 1308 727 c 0
1142 727 m 0
 1154.05779867 783.421397571 1161.40554526 844.60460604 1161.40554526 905.462643152 c 0
 1161.40554526 1112.10583525 1076.69051072 1315 804 1315 c 2
 559 1315 l 1
 309 141 l 1
 554 141 l 2
 902 141 1068 381 1142 727 c 0
EndSplineSet
EndChar

StartChar: E
Encoding: 69 69 92
Width: 1142
Flags: HMW
LayerCount: 2
Fore
SplineSet
430 1456 m 1
 1351 1456 l 1
 1322 1315 l 1
 559 1315 l 1
 453 817 l 1
 1173 817 l 1
 1143 676 l 1
 423 676 l 1
 309 141 l 1
 1072 141 l 1
 1042 0 l 1
 121 0 l 1
 430 1456 l 1
EndSplineSet
EndChar

StartChar: F
Encoding: 70 70 93
Width: 1146
Flags: HMW
LayerCount: 2
Fore
SplineSet
430 1456 m 1
 1351 1456 l 1
 1322 1315 l 1
 559 1315 l 1
 453 817 l 1
 1173 817 l 1
 1143 676 l 1
 423 676 l 1
 279 0 l 1
 121 0 l 1
 430 1456 l 1
EndSplineSet
EndChar

StartChar: G
Encoding: 71 71 94
Width: 1363
Flags: HMW
LayerCount: 2
Fore
SplineSet
694 -29 m 0
 379.03085817 -29 231.442763193 213.504823788 231.442763193 514.493513372 c 0
 231.442763193 584.282770097 239.377419515 657.216246385 255 731 c 0
 327 1071 609 1495 1020 1495 c 0
 1244 1495 1345 1401 1405 1260 c 1
 1345 1233 1252 1192 1252 1192 c 1
 1203 1288 1142 1354 990 1354 c 0
 702 1354 479 1004 421 731 c 0
 408.063558896 670.073535443 401.309197448 607.579783087 401.309197448 546.825259946 c 0
 401.309197448 316.403840315 498.465898625 111 724 111 c 0
 1017 111 1160 389 1195 555 c 1
 802 555 l 1
 832 696 l 1
 1381 696 l 1
 1363 610 l 2
 1301 319 1072 -29 700 -29 c 0
 698 -29 696 -29 694 -29 c 0
EndSplineSet
EndChar

StartChar: H
Encoding: 72 72 95
Width: 1198
Flags: HMW
LayerCount: 2
Fore
SplineSet
430 1456 m 1
 588 1456 l 1
 452 815 l 1
 1113 815 l 1
 1249 1456 l 1
 1407 1456 l 1
 1098 0 l 1
 940 0 l 1
 1083 674 l 1
 422 674 l 1
 279 0 l 1
 121 0 l 1
 430 1456 l 1
EndSplineSet
EndChar

StartChar: I
Encoding: 73 73 96
Width: 444
Flags: HMW
LayerCount: 2
Fore
SplineSet
154 0 m 1
 463 1456 l 1
 620 1456 l 1
 311 0 l 1
 154 0 l 1
EndSplineSet
EndChar

StartChar: J
Encoding: 74 74 97
Width: 1140
Flags: HMW
LayerCount: 2
Fore
SplineSet
227 535 m 1
 368 535 l 1
 361 500 356 464 356 430 c 0
 356 270 435 121 591 121 c 0
 784 121 941 334 984 535 c 2
 1179 1456 l 1
 1337 1456 l 1
 1142 535 l 2
 1073 209 834 -29 559 -29 c 0
 334 -29 208 144 209 378 c 0
 208.936749892 381.099255294 208.905504393 384.214512892 208.905504393 387.345266721 c 0
 208.905504393 433.712512604 215.759001296 483.478755942 227 535 c 1
EndSplineSet
EndChar

StartChar: K
Encoding: 75 75 98
Width: 1239
Flags: HMW
LayerCount: 2
Fore
SplineSet
430 1456 m 1
 588 1456 l 1
 428 702 l 1
 1335 1456 l 1
 1528 1456 l 1
 742 803 l 1
 1235 0 l 1
 1028 0 l 1
 616 702 l 1
 389 516 l 1
 279 0 l 1
 121 0 l 1
 430 1456 l 1
EndSplineSet
EndChar

StartChar: L
Encoding: 76 76 99
Width: 1105
Flags: HMW
LayerCount: 2
Fore
SplineSet
430 1456 m 1
 588 1456 l 1
 309 141 l 1
 1074 141 l 1
 1044 0 l 1
 121 0 l 1
 430 1456 l 1
EndSplineSet
EndChar

StartChar: M
Encoding: 77 77 100
Width: 1562
Flags: HMW
LayerCount: 2
Fore
SplineSet
121 0 m 1
 430 1456 l 1
 645 1456 l 1
 839 209 l 1
 1564 1456 l 1
 1771 1456 l 1
 1462 0 l 1
 1309 0 l 1
 1565 1204 l 1
 884 16 l 1
 705 16 l 1
 530 1204 l 1
 274 0 l 1
 121 0 l 1
EndSplineSet
EndChar

StartChar: N
Encoding: 78 78 101
Width: 1271
Flags: HMW
LayerCount: 2
Fore
SplineSet
121 0 m 1
 430 1456 l 1
 583 1456 l 1
 1077 295 l 1
 1323 1456 l 1
 1480 1456 l 1
 1171 0 l 1
 1026 0 l 1
 532 1190 l 1
 279 0 l 1
 121 0 l 1
EndSplineSet
EndChar

StartChar: O
Encoding: 79 79 102
Width: 1333
Flags: HMW
LayerCount: 2
Fore
SplineSet
246 725 m 0
 314 1047 566 1495 994 1495 c 0
 1329 1495 1440 1222 1440 950 c 0
 1440 873 1431 796 1416 725 c 0
 1348 406 1098 -29 670 -29 c 0
 336 -29 224 238 223 508 c 0
 223 582 231 656 246 725 c 0
1250 725 m 0
 1265 797 1275 876 1275 952 c 0
 1274 1161 1201 1354 964 1354 c 0
 642 1354 469 995 412 725 c 0
 397 655 389 580 388 507 c 0
 388 300 464 113 700 113 c 0
 1021 113 1193 457 1250 725 c 0
EndSplineSet
EndChar

StartChar: P
Encoding: 80 80 103
Width: 1099
Flags: HMW
LayerCount: 2
Fore
SplineSet
430 1456 m 1
 588 1456 l 1
 794 1456 l 2
 1110 1456 1264 1322 1265 1132 c 1
 1264 1104 1261 1076 1255 1047 c 0
 1207 821 998 631 619 631 c 2
 413 631 l 1
 279 0 l 1
 121 0 l 1
 430 1456 l 1
444 774 m 1
 650 774 l 2
 970 774 1066 918 1093 1047 c 0
 1096.47406837 1063.50182474 1099.1938148 1080.75797143 1099.1938148 1098.76844005 c 0
 1099.1938148 1101.49500561 1099.13148291 1104.23885893 1099 1107 c 0
 1099 1208 1037 1315 765 1315 c 2
 559 1315 l 1
 444 774 l 1
EndSplineSet
EndChar

StartChar: Q
Encoding: 81 81 104
Width: 1370
Flags: HMW
LayerCount: 2
Back
SplineSet
1290.8125 83.6142578125 m 5
 1179.50292969 -32.9658203125 l 5
 769.435546875 328.427734375 l 5
 880.74609375 445.005859375 l 5
 1290.8125 83.6142578125 l 5
1255.97753906 725.9140625 m 0
 1313.15820312 994.928710938 1282.64941406 1353.62011719 960.259765625 1353.62011719 c 0
 637.8671875 1353.62011719 454.874023438 994.928710938 397.692382812 725.9140625 c 1
 340.51171875 456.8984375 375.880859375 111.022460938 696.137695312 111.022460938 c 1
 1016.39355469 111.022460938 1198.796875 456.8984375 1255.97753906 725.9140625 c 0
248.240234375 725.9140625 m 1
 316.3125 1046.16992188 561.067382812 1494.53027344 990.2109375 1494.53027344 c 1
 1419.35253906 1494.53027344 1473.5 1046.16992188 1405.42773438 725.9140625 c 1
 1337.35546875 405.657226562 1093.19628906 -29.8896484375 666.185546875 -29.8896484375 c 1
 239.176757812 -29.8896484375 180.166992188 405.657226562 248.240234375 725.9140625 c 1
EndSplineSet
Fore
SplineSet
246 725 m 0
 314 1047 574 1495 994 1495 c 0
 1333 1495 1446 1218 1446 943 c 0
 1446 869 1439 794 1424 725 c 0
 1377 506 1266 309 1166 207 c 1
 1306 86 l 1
 1191 -31 l 1
 1046 96 l 1
 948 29 844 -29 682 -29 c 0
 339 -29 223 237 223 509 c 0
 223 582 231 656 246 725 c 0
1258 725 m 0
 1273 797 1283 873 1283 945 c 0
 1282 1163 1200 1354 962 1354 c 0
 685 1354 480 1047 412 725 c 0
 398 661 390 589 390 516 c 0
 390 312 463 113 716 113 c 0
 784 113 886 141 943 188 c 1
 785 330 l 1
 898 446 l 1
 1064 297 l 1
 1155 395 1216 528 1258 725 c 0
EndSplineSet
EndChar

StartChar: R
Encoding: 82 82 105
Width: 1101
Flags: HMW
LayerCount: 2
Back
SplineSet
432.837890625 774.14453125 m 5
 639.685546875 774.14453125 l 5
 959.173828125 774.14453125 1055.18164062 917.50390625 1082.60644531 1046.53027344 c 5
 1106.54882812 1159.16992188 1082.29003906 1314.8203125 754.609375 1314.8203125 c 5
 547.76171875 1314.8203125 l 5
 432.837890625 774.14453125 l 5
420.1015625 1456.12988281 m 4
 577.797851562 1456.12988281 l 5
 784.645507812 1456.12988281 l 5
 1144.65820312 1454.08007812 1294.45800781 1282.04980469 1244.39648438 1046.53027344 c 4
 1196.51171875 821.248046875 988.09375 630.784179688 609.212890625 630.784179688 c 5
 402.365234375 630.784179688 l 5
 268.288085938 0 l 5
 110.591796875 0 l 5
 420.1015625 1456.12988281 l 4
EndSplineSet
Fore
SplineSet
923 0 m 1
 628 631 l 1
 413 631 l 1
 279 0 l 1
 121 0 l 1
 430 1456 l 1
 588 1456 l 1
 794 1456 l 2
 1071.64709928 1456 1266.14340619 1341.17271529 1266.14340619 1129.84082549 c 0
 1266.14340619 1103.69301611 1263.16590526 1076.06783907 1257 1047 c 0
 1215 850 1040 688 808 648 c 1
 1104 0 l 1
 923 0 l 1
444 774 m 1
 650 774 l 2
 976 774 1067 926 1093 1047 c 0
 1097.51458724 1068.20487947 1099.87685835 1088.62369566 1099.87685835 1108.07465827 c 0
 1099.87685835 1230.80319778 1005.83121695 1315 765 1315 c 2
 559 1315 l 1
 444 774 l 1
EndSplineSet
EndChar

StartChar: S
Encoding: 83 83 106
Width: 1079
Flags: HMW
LayerCount: 2
Back
SplineSet
159.83203125 395.263671875 m 0
 209.813476562 630.407226562 467.72265625 821.248046875 745.615234375 821.248046875 c 0
 1023.50878906 821.248046875 1200.28710938 630.407226562 1150.30566406 395.263671875 c 0
 1100.32421875 160.120117188 842.416992188 -30.7197265625 564.524414062 -30.7197265625 c 0
 286.630859375 -30.7197265625 109.850585938 160.120117188 159.83203125 395.263671875 c 0
318.4453125 397.311523438 m 0
 352.0859375 555.581054688 529.42578125 684.032226562 714.2890625 684.032226562 c 0
 899.151367188 684.032226562 1021.88574219 555.581054688 988.244140625 397.311523438 c 0
 954.603515625 239.04296875 777.262695312 110.591796875 592.401367188 110.591796875 c 0
 407.537109375 110.591796875 284.803710938 239.04296875 318.4453125 397.311523438 c 0
349.758789062 1105.91992188 m 4
 395.4140625 1320.70996094 635.236328125 1495.04003906 885.076171875 1495.04003906 c 0
 1134.91699219 1495.04003906 1300.62597656 1320.70996094 1254.97070312 1105.91992188 c 0
 1209.31445312 891.125976562 969.49609375 716.799804688 719.65625 716.799804688 c 0
 469.81640625 716.799804688 304.102539062 891.125976562 349.758789062 1105.91992188 c 4
511.986328125 1107.96972656 m 4
 540.821289062 1243.62988281 693.591796875 1353.73046875 852.9921875 1353.73046875 c 0
 1012.39257812 1353.73046875 1118.35742188 1243.62988281 1089.52246094 1107.96972656 c 0
 1060.68652344 972.30859375 907.916015625 862.208007812 748.515625 862.208007812 c 0
 589.116210938 862.208007812 483.150390625 972.30859375 511.986328125 1107.96972656 c 4
EndSplineSet
Fore
SplineSet
115 327 m 1
 291 358 l 1
 293 252 400 113 563 113 c 0
 745 113 927 214 960 371 c 0
 963.516224433 387.555556707 965.17036098 403.408134991 965.17036098 418.592720993 c 0
 965.17036098 610.693005987 700.429202943 695.882497812 592 745 c 0
 477.948881101 796.841417681 344.487804629 866.599719277 344.487804629 1043.93344374 c 0
 344.487804629 1071.84147276 347.793252285 1102.41383612 355 1136 c 0
 403 1361 623 1495 857 1495 c 0
 1096 1495 1231 1360 1248 1194 c 1
 1090 1169 l 1
 1080 1256 986 1354 827 1354 c 0
 673 1354 543 1260 517 1136 c 0
 512.89442637 1116.84065639 510.957929728 1099.171956 510.957929728 1082.81455977 c 0
 510.957929728 931.835865164 675.933535754 892.570866765 823 824 c 0
 951.360660967 764.215582563 1122.23423527 667.328986218 1122.23423527 459.946132414 c 0
 1122.23423527 431.447553174 1119.00740866 400.862330254 1112 368 c 0
 1055 99 803 -29 533 -29 c 0
 262 -29 145 132 115 327 c 1
EndSplineSet
EndChar

StartChar: T
Encoding: 84 84 107
Width: 1243
Flags: HMW
LayerCount: 2
Fore
SplineSet
397 1456 m 1
 1489 1456 l 1
 1460 1315 l 1
 1003 1315 l 1
 723 0 l 1
 565 0 l 1
 845 1315 l 1
 368 1315 l 1
 397 1456 l 1
EndSplineSet
EndChar

StartChar: U
Encoding: 85 85 108
Width: 1265
Flags: HMW
LayerCount: 2
Back
SplineSet
581.893554688 1456.12988281 m 5
 420.1015625 1456.12988281 l 5
 251.19921875 661.50390625 l 5
 161.524414062 239.616210938 300.669921875 -30.7197265625 626.302734375 -30.7197265625 c 4
 951.940429688 -30.7197265625 1206.00195312 239.616210938 1295.67675781 661.50390625 c 5
 1464.58007812 1456.12988281 l 5
 1302.79003906 1456.12988281 l 5
 1133.88671875 661.50390625 l 5
 1055.09472656 290.81640625 850.899414062 110.591796875 656.338867188 110.591796875 c 5
 461.779296875 110.591796875 336.247070312 290.81640625 412.991210938 661.50390625 c 5
 581.893554688 1456.12988281 l 5
EndSplineSet
Fore
SplineSet
1313 1456 m 1
 1474 1456 l 1
 1302 645 l 2
 1212 223 965 -29 637 -29 c 0
 374 -29 231 132 231 414 c 0
 231 484 240 561 258 645 c 2
 430 1456 l 1
 592 1456 l 1
 420 645 l 2
 404 570 397 504 397 445 c 0
 397 215 512 113 667 113 c 0
 862 113 1062 274 1141 645 c 2
 1313 1456 l 1
EndSplineSet
EndChar

StartChar: V
Encoding: 86 86 109
Width: 1245
Flags: HMW
LayerCount: 2
Fore
SplineSet
1331 1456 m 1
 1495 1456 l 1
 745 0 l 1
 526 0 l 1
 389 1456 l 1
 559 1456 l 1
 671 168 l 1
 1331 1456 l 1
EndSplineSet
EndChar

StartChar: W
Encoding: 87 87 110
Width: 1576
Flags: HMW
LayerCount: 2
Fore
SplineSet
393 1456 m 1
 553 1456 l 1
 467 182 l 1
 1004 1419 l 1
 1199 1419 l 1
 1210 182 l 1
 1665 1456 l 1
 1825 1456 l 1
 1286 0 l 1
 1067 0 l 1
 1062 1229 l 1
 535 0 l 1
 311 0 l 1
 393 1456 l 1
EndSplineSet
EndChar

StartChar: X
Encoding: 88 88 111
Width: 1214
Flags: HMW
LayerCount: 2
Fore
SplineSet
383 1456 m 1
 565 1456 l 1
 799 850 l 1
 1282 1456 l 1
 1464 1456 l 1
 857 729 l 1
 1161 0 l 1
 971 0 l 1
 743 586 l 1
 258 0 l 1
 80 0 l 1
 690 729 l 1
 383 1456 l 1
EndSplineSet
EndChar

StartChar: Y
Encoding: 89 89 112
Width: 1179
Flags: HMW
LayerCount: 2
Fore
SplineSet
385 1456 m 1
 553 1456 l 1
 782 856 l 1
 1265 1456 l 1
 1433 1456 l 1
 837 748 l 1
 678 0 l 1
 520 0 l 1
 679 748 l 1
 385 1456 l 1
EndSplineSet
EndChar

StartChar: Z
Encoding: 90 90 113
Width: 1325
Flags: HMW
LayerCount: 2
Fore
SplineSet
438 1456 m 1
 1542 1456 l 1
 399 141 l 1
 1275 141 l 1
 1245 0 l 1
 100 0 l 1
 1253 1315 l 1
 409 1315 l 1
 438 1456 l 1
EndSplineSet
EndChar

StartChar: bracketleft
Encoding: 91 91 114
Width: 626
Flags: HMW
LayerCount: 2
Fore
SplineSet
506 -96 m 1
 111 -96 l 1
 456 1530 l 1
 851 1530 l 1
 821 1389 l 1
 576 1389 l 1
 290 43 l 1
 535 43 l 1
 506 -96 l 1
EndSplineSet
EndChar

StartChar: backslash
Encoding: 92 92 115
Width: 811
Flags: HMW
LayerCount: 2
Fore
SplineSet
690 0 m 1
 299 1544 l 1
 471 1544 l 1
 860 0 l 1
 690 0 l 1
EndSplineSet
EndChar

StartChar: bracketright
Encoding: 93 93 116
Width: 638
Flags: HMW
LayerCount: 2
Fore
SplineSet
109 -96 m 1
 139 45 l 1
 385 45 l 1
 670 1389 l 1
 424 1389 l 1
 454 1530 l 1
 849 1530 l 1
 504 -96 l 1
 109 -96 l 1
EndSplineSet
EndChar

StartChar: asciicircum
Encoding: 94 94 117
Width: 927
Flags: HMW
LayerCount: 2
Fore
SplineSet
1065 1149 m 1
 877 1149 l 1
 767 1362 l 1
 564 1151 l 1
 378 1151 l 1
 727 1493 l 1
 858 1493 l 1
 1065 1149 l 1
EndSplineSet
EndChar

StartChar: underscore
Encoding: 95 95 118
Width: 1241
Flags: HMW
LayerCount: 2
Fore
SplineSet
39 -231 m 1
 69 -90 l 1
 1159 -90 l 1
 1129 -231 l 1
 39 -231 l 1
EndSplineSet
EndChar

StartChar: grave
Encoding: 96 96 119
Width: 550
Flags: HMW
LayerCount: 2
Fore
SplineSet
820 1676 m 2
 826 1669 829 1661 829 1653 c 0
 829 1649 829 1644 828 1639 c 0
 825 1626 818 1615 808 1604 c 0
 798 1594 786 1587 772 1584 c 0
 767 1583 761 1582 757 1582 c 0
 748 1582 740 1585 733 1591 c 2
 475 1810 l 1
 464 1822 457 1836 456 1851 c 0
 456 1856 456 1861 457 1868 c 0
 461 1885 470 1901 484 1914 c 1
 497 1928 512 1938 530 1942 c 0
 536 1944 542 1944 548 1944 c 0
 565 1944 579 1939 592 1926 c 2
 820 1676 l 2
EndSplineSet
EndChar

StartChar: a
Encoding: 97 97 120
Width: 993
Flags: HMW
LayerCount: 2
Back
SplineSet
456.787109375 1474.55957031 m 29
 132.041992188 -53.248046875 l 29
741.766601562 1466.37011719 m 29
 417.020507812 -61.4404296875 l 29
271.918945312 -69.6318359375 m 29
 596.666015625 1458.1796875 l 29
 271.918945312 -69.6318359375 l 29
885.99609375 1470.45996094 m 29
 561.250976562 -57.34375 l 29
1028.48632812 1466.37011719 m 29
 703.740234375 -61.4404296875 l 29
849.711914062 -49.15234375 m 29
 1174.45898438 1478.66015625 l 29
 849.711914062 -49.15234375 l 29
456.787109375 1474.55957031 m 29
 132.041992188 -53.248046875 l 29
741.766601562 1466.37011719 m 29
 417.020507812 -61.4404296875 l 29
271.918945312 -69.6318359375 m 29
 596.666015625 1458.1796875 l 29
 271.918945312 -69.6318359375 l 29
885.99609375 1470.45996094 m 29
 561.250976562 -57.34375 l 29
1028.48632812 1466.37011719 m 29
 703.740234375 -61.4404296875 l 29
849.711914062 -49.15234375 m 29
 1174.45898438 1478.66015625 l 29
 849.711914062 -49.15234375 l 29
456.787109375 1474.55957031 m 29
 132.041992188 -53.248046875 l 29
741.766601562 1466.37011719 m 29
 417.020507812 -61.4404296875 l 29
271.918945312 -69.6318359375 m 29
 596.666015625 1458.1796875 l 29
 271.918945312 -69.6318359375 l 29
885.99609375 1470.45996094 m 29
 561.250976562 -57.34375 l 29
1028.48632812 1466.37011719 m 29
 703.740234375 -61.4404296875 l 29
849.711914062 -49.15234375 m 29
 1174.45898438 1478.66015625 l 29
 849.711914062 -49.15234375 l 29
456.787109375 1474.55957031 m 29
 132.041992188 -53.248046875 l 29
741.766601562 1466.37011719 m 29
 417.020507812 -61.4404296875 l 29
271.918945312 -69.6318359375 m 29
 596.666015625 1458.1796875 l 29
 271.918945312 -69.6318359375 l 29
885.99609375 1470.45996094 m 29
 561.250976562 -57.34375 l 29
1028.48632812 1466.37011719 m 29
 703.740234375 -61.4404296875 l 29
849.711914062 -49.15234375 m 29
 1174.45898438 1478.66015625 l 29
 849.711914062 -49.15234375 l 29
456.787109375 1474.55957031 m 29
 132.041992188 -53.248046875 l 29
741.766601562 1466.37011719 m 29
 417.020507812 -61.4404296875 l 29
271.918945312 -69.6318359375 m 29
 596.666015625 1458.1796875 l 29
 271.918945312 -69.6318359375 l 29
885.99609375 1470.45996094 m 29
 561.250976562 -57.34375 l 29
1028.48632812 1466.37011719 m 29
 703.740234375 -61.4404296875 l 29
849.711914062 -49.15234375 m 29
 1174.45898438 1478.66015625 l 29
 849.711914062 -49.15234375 l 29
456.787109375 1474.55957031 m 29
 132.041992188 -53.248046875 l 29
741.766601562 1466.37011719 m 29
 417.020507812 -61.4404296875 l 29
271.918945312 -69.6318359375 m 29
 596.666015625 1458.1796875 l 29
 271.918945312 -69.6318359375 l 29
885.99609375 1470.45996094 m 29
 561.250976562 -57.34375 l 29
1028.48632812 1466.37011719 m 29
 703.740234375 -61.4404296875 l 29
849.711914062 -49.15234375 m 29
 1174.45898438 1478.66015625 l 29
 849.711914062 -49.15234375 l 29
456.787109375 1474.55957031 m 29
 132.041992188 -53.248046875 l 29
741.766601562 1466.37011719 m 29
 417.020507812 -61.4404296875 l 29
271.918945312 -69.6318359375 m 29
 596.666015625 1458.1796875 l 29
 271.918945312 -69.6318359375 l 29
885.99609375 1470.45996094 m 29
 561.250976562 -57.34375 l 29
1028.48632812 1466.37011719 m 29
 703.740234375 -61.4404296875 l 29
849.711914062 -49.15234375 m 29
 1174.45898438 1478.66015625 l 29
 849.711914062 -49.15234375 l 29
456.787109375 1474.55957031 m 29
 132.041992188 -53.248046875 l 29
741.766601562 1466.37011719 m 29
 417.020507812 -61.4404296875 l 29
271.918945312 -69.6318359375 m 29
 596.666015625 1458.1796875 l 29
 271.918945312 -69.6318359375 l 29
885.99609375 1470.45996094 m 29
 561.250976562 -57.34375 l 29
1028.48632812 1466.37011719 m 29
 703.740234375 -61.4404296875 l 29
849.711914062 -49.15234375 m 29
 1174.45898438 1478.66015625 l 29
 849.711914062 -49.15234375 l 29
456.787109375 1474.55957031 m 29
 132.041992188 -53.248046875 l 29
741.766601562 1466.37011719 m 29
 417.020507812 -61.4404296875 l 29
271.918945312 -69.6318359375 m 29
 596.666015625 1458.1796875 l 29
 271.918945312 -69.6318359375 l 29
885.99609375 1470.45996094 m 29
 561.250976562 -57.34375 l 29
1028.48632812 1466.37011719 m 29
 703.740234375 -61.4404296875 l 29
849.711914062 -49.15234375 m 29
 1174.45898438 1478.66015625 l 29
 849.711914062 -49.15234375 l 29
456.787109375 1474.55957031 m 29
 132.041992188 -53.248046875 l 29
741.766601562 1466.37011719 m 29
 417.020507812 -61.4404296875 l 29
271.918945312 -69.6318359375 m 29
 596.666015625 1458.1796875 l 29
 271.918945312 -69.6318359375 l 29
885.99609375 1470.45996094 m 29
 561.250976562 -57.34375 l 29
1028.48632812 1466.37011719 m 29
 703.740234375 -61.4404296875 l 29
849.711914062 -49.15234375 m 29
 1174.45898438 1478.66015625 l 29
 849.711914062 -49.15234375 l 29
456.787109375 1474.55957031 m 29
 132.041992188 -53.248046875 l 29
741.766601562 1466.37011719 m 29
 417.020507812 -61.4404296875 l 29
271.918945312 -69.6318359375 m 29
 596.666015625 1458.1796875 l 29
 271.918945312 -69.6318359375 l 29
885.99609375 1470.45996094 m 29
 561.250976562 -57.34375 l 29
1028.48632812 1466.37011719 m 29
 703.740234375 -61.4404296875 l 29
849.711914062 -49.15234375 m 29
 1174.45898438 1478.66015625 l 29
 849.711914062 -49.15234375 l 29
456.787109375 1474.55957031 m 29
 132.041992188 -53.248046875 l 29
741.766601562 1466.37011719 m 29
 417.020507812 -61.4404296875 l 29
271.918945312 -69.6318359375 m 29
 596.666015625 1458.1796875 l 29
 271.918945312 -69.6318359375 l 29
885.99609375 1470.45996094 m 29
 561.250976562 -57.34375 l 29
1028.48632812 1466.37011719 m 29
 703.740234375 -61.4404296875 l 29
849.711914062 -49.15234375 m 29
 1174.45898438 1478.66015625 l 29
 849.711914062 -49.15234375 l 29
456.787109375 1474.55957031 m 29
 132.041992188 -53.248046875 l 29
741.766601562 1466.37011719 m 29
 417.020507812 -61.4404296875 l 29
271.918945312 -69.6318359375 m 29
 596.666015625 1458.1796875 l 29
 271.918945312 -69.6318359375 l 29
885.99609375 1470.45996094 m 29
 561.250976562 -57.34375 l 29
1028.48632812 1466.37011719 m 29
 703.740234375 -61.4404296875 l 29
849.711914062 -49.15234375 m 29
 1174.45898438 1478.66015625 l 29
 849.711914062 -49.15234375 l 29
456.787109375 1474.55957031 m 29
 132.041992188 -53.248046875 l 29
741.766601562 1466.37011719 m 29
 417.020507812 -61.4404296875 l 29
271.918945312 -69.6318359375 m 29
 596.666015625 1458.1796875 l 29
 271.918945312 -69.6318359375 l 29
885.99609375 1470.45996094 m 29
 561.250976562 -57.34375 l 29
1028.48632812 1466.37011719 m 29
 703.740234375 -61.4404296875 l 29
849.711914062 -49.15234375 m 29
 1174.45898438 1478.66015625 l 29
 849.711914062 -49.15234375 l 29
456.787109375 1474.55957031 m 29
 132.041992188 -53.248046875 l 29
741.766601562 1466.37011719 m 29
 417.020507812 -61.4404296875 l 29
271.918945312 -69.6318359375 m 29
 596.666015625 1458.1796875 l 29
 271.918945312 -69.6318359375 l 29
885.99609375 1470.45996094 m 29
 561.250976562 -57.34375 l 29
1028.48632812 1466.37011719 m 29
 703.740234375 -61.4404296875 l 29
849.711914062 -49.15234375 m 29
 1174.45898438 1478.66015625 l 29
 849.711914062 -49.15234375 l 29
456.787109375 1474.55957031 m 29
 132.041992188 -53.248046875 l 29
741.766601562 1466.37011719 m 29
 417.020507812 -61.4404296875 l 29
271.918945312 -69.6318359375 m 29
 596.666015625 1458.1796875 l 29
 271.918945312 -69.6318359375 l 29
885.99609375 1470.45996094 m 29
 561.250976562 -57.34375 l 29
1028.48632812 1466.37011719 m 29
 703.740234375 -61.4404296875 l 29
849.711914062 -49.15234375 m 29
 1174.45898438 1478.66015625 l 29
 849.711914062 -49.15234375 l 29
456.787109375 1474.55957031 m 25
 132.041992188 -53.248046875 l 25
741.766601562 1466.37011719 m 25
 417.020507812 -61.4404296875 l 25
271.918945312 -69.6318359375 m 25
 596.666015625 1458.1796875 l 25
 271.918945312 -69.6318359375 l 25
885.99609375 1470.45996094 m 25
 561.250976562 -57.34375 l 25
1028.48632812 1466.37011719 m 25
 703.740234375 -61.4404296875 l 25
849.711914062 -49.15234375 m 25
 1174.45898438 1478.66015625 l 25
 849.711914062 -49.15234375 l 25
456.787109375 1474.55957031 m 25
 132.041992188 -53.248046875 l 25
741.766601562 1466.37011719 m 25
 417.020507812 -61.4404296875 l 25
271.918945312 -69.6318359375 m 25
 596.666015625 1458.1796875 l 25
 271.918945312 -69.6318359375 l 25
885.99609375 1470.45996094 m 25
 561.250976562 -57.34375 l 25
1028.48632812 1466.37011719 m 25
 703.740234375 -61.4404296875 l 25
849.711914062 -49.15234375 m 25
 1174.45898438 1478.66015625 l 25
 849.711914062 -49.15234375 l 25
456.787109375 1474.55957031 m 25
 132.041992188 -53.248046875 l 25
741.766601562 1466.37011719 m 25
 417.020507812 -61.4404296875 l 25
271.918945312 -69.6318359375 m 25
 596.666015625 1458.1796875 l 25
 271.918945312 -69.6318359375 l 25
885.99609375 1470.45996094 m 25
 561.250976562 -57.34375 l 25
1028.48632812 1466.37011719 m 25
 703.740234375 -61.4404296875 l 25
849.711914062 -49.15234375 m 25
 1174.45898438 1478.66015625 l 25
 849.711914062 -49.15234375 l 25
456.787109375 1474.55957031 m 25
 132.041992188 -53.248046875 l 25
741.766601562 1466.37011719 m 25
 417.020507812 -61.4404296875 l 25
271.918945312 -69.6318359375 m 25
 596.666015625 1458.1796875 l 25
 271.918945312 -69.6318359375 l 25
885.99609375 1470.45996094 m 25
 561.250976562 -57.34375 l 25
1028.48632812 1466.37011719 m 25
 703.740234375 -61.4404296875 l 25
849.711914062 -49.15234375 m 25
 1174.45898438 1478.66015625 l 25
 849.711914062 -49.15234375 l 25
456.787109375 1474.55957031 m 25
 132.041992188 -53.248046875 l 25
741.766601562 1466.37011719 m 25
 417.020507812 -61.4404296875 l 25
271.918945312 -69.6318359375 m 25
 596.666015625 1458.1796875 l 25
 271.918945312 -69.6318359375 l 25
885.99609375 1470.45996094 m 25
 561.250976562 -57.34375 l 25
1028.48632812 1466.37011719 m 25
 703.740234375 -61.4404296875 l 25
849.711914062 -49.15234375 m 25
 1174.45898438 1478.66015625 l 25
 849.711914062 -49.15234375 l 25
456.787109375 1474.55957031 m 25
 132.041992188 -53.248046875 l 25
741.766601562 1466.37011719 m 25
 417.020507812 -61.4404296875 l 25
271.918945312 -69.6318359375 m 25
 596.666015625 1458.1796875 l 25
 271.918945312 -69.6318359375 l 25
885.99609375 1470.45996094 m 25
 561.250976562 -57.34375 l 25
1028.48632812 1466.37011719 m 25
 703.740234375 -61.4404296875 l 25
849.711914062 -49.15234375 m 25
 1174.45898438 1478.66015625 l 25
 849.711914062 -49.15234375 l 25
456.787109375 1474.55957031 m 25
 132.041992188 -53.248046875 l 25
741.766601562 1466.37011719 m 25
 417.020507812 -61.4404296875 l 25
271.918945312 -69.6318359375 m 25
 596.666015625 1458.1796875 l 25
 271.918945312 -69.6318359375 l 25
885.99609375 1470.45996094 m 25
 561.250976562 -57.34375 l 25
1028.48632812 1466.37011719 m 25
 703.740234375 -61.4404296875 l 25
849.711914062 -49.15234375 m 25
 1174.45898438 1478.66015625 l 25
 849.711914062 -49.15234375 l 25
456.787109375 1474.55957031 m 25
 132.041992188 -53.248046875 l 25
741.766601562 1466.37011719 m 25
 417.020507812 -61.4404296875 l 25
271.918945312 -69.6318359375 m 25
 596.666015625 1458.1796875 l 25
 271.918945312 -69.6318359375 l 25
885.99609375 1470.45996094 m 25
 561.250976562 -57.34375 l 25
1028.48632812 1466.37011719 m 25
 703.740234375 -61.4404296875 l 25
849.711914062 -49.15234375 m 25
 1174.45898438 1478.66015625 l 25
 849.711914062 -49.15234375 l 25
456.787109375 1474.55957031 m 25
 132.041992188 -53.248046875 l 25
741.766601562 1466.37011719 m 25
 417.020507812 -61.4404296875 l 25
271.918945312 -69.6318359375 m 25
 596.666015625 1458.1796875 l 25
 271.918945312 -69.6318359375 l 25
885.99609375 1470.45996094 m 25
 561.250976562 -57.34375 l 25
1028.48632812 1466.37011719 m 25
 703.740234375 -61.4404296875 l 25
849.711914062 -49.15234375 m 25
 1174.45898438 1478.66015625 l 25
 849.711914062 -49.15234375 l 25
456.787109375 1474.55957031 m 25
 132.041992188 -53.248046875 l 25
741.766601562 1466.37011719 m 25
 417.020507812 -61.4404296875 l 25
271.918945312 -69.6318359375 m 25
 596.666015625 1458.1796875 l 25
 271.918945312 -69.6318359375 l 25
885.99609375 1470.45996094 m 25
 561.250976562 -57.34375 l 25
1028.48632812 1466.37011719 m 25
 703.740234375 -61.4404296875 l 25
849.711914062 -49.15234375 m 25
 1174.45898438 1478.66015625 l 25
 849.711914062 -49.15234375 l 25
456.787109375 1474.55957031 m 25
 132.041992188 -53.248046875 l 25
741.766601562 1466.37011719 m 25
 417.020507812 -61.4404296875 l 25
271.918945312 -69.6318359375 m 25
 596.666015625 1458.1796875 l 25
 271.918945312 -69.6318359375 l 25
885.99609375 1470.45996094 m 25
 561.250976562 -57.34375 l 25
1028.48632812 1466.37011719 m 25
 703.740234375 -61.4404296875 l 25
849.711914062 -49.15234375 m 25
 1174.45898438 1478.66015625 l 25
 849.711914062 -49.15234375 l 25
456.787109375 1474.55957031 m 25
 132.041992188 -53.248046875 l 25
741.766601562 1466.37011719 m 25
 417.020507812 -61.4404296875 l 25
271.918945312 -69.6318359375 m 25
 596.666015625 1458.1796875 l 25
 271.918945312 -69.6318359375 l 25
885.99609375 1470.45996094 m 25
 561.250976562 -57.34375 l 25
1028.48632812 1466.37011719 m 25
 703.740234375 -61.4404296875 l 25
849.711914062 -49.15234375 m 25
 1174.45898438 1478.66015625 l 25
 849.711914062 -49.15234375 l 25
456.787109375 1474.55957031 m 25
 132.041992188 -53.248046875 l 25
741.766601562 1466.37011719 m 25
 417.020507812 -61.4404296875 l 25
271.918945312 -69.6318359375 m 25
 596.666015625 1458.1796875 l 25
 271.918945312 -69.6318359375 l 25
885.99609375 1470.45996094 m 25
 561.250976562 -57.34375 l 25
1028.48632812 1466.37011719 m 25
 703.740234375 -61.4404296875 l 25
849.711914062 -49.15234375 m 25
 1174.45898438 1478.66015625 l 25
 849.711914062 -49.15234375 l 25
456.787109375 1474.55957031 m 25
 132.041992188 -53.248046875 l 25
741.766601562 1466.37011719 m 25
 417.020507812 -61.4404296875 l 25
271.918945312 -69.6318359375 m 25
 596.666015625 1458.1796875 l 25
 271.918945312 -69.6318359375 l 25
885.99609375 1470.45996094 m 25
 561.250976562 -57.34375 l 25
1028.48632812 1466.37011719 m 25
 703.740234375 -61.4404296875 l 25
849.711914062 -49.15234375 m 25
 1174.45898438 1478.66015625 l 25
 849.711914062 -49.15234375 l 25
456.787109375 1474.55957031 m 25
 132.041992188 -53.248046875 l 25
741.766601562 1466.37011719 m 25
 417.020507812 -61.4404296875 l 25
271.918945312 -69.6318359375 m 25
 596.666015625 1458.1796875 l 25
 271.918945312 -69.6318359375 l 25
885.99609375 1470.45996094 m 25
 561.250976562 -57.34375 l 25
1028.48632812 1466.37011719 m 25
 703.740234375 -61.4404296875 l 25
849.711914062 -49.15234375 m 25
 1174.45898438 1478.66015625 l 25
 849.711914062 -49.15234375 l 25
456.787109375 1474.55957031 m 25
 132.041992188 -53.248046875 l 25
741.766601562 1466.37011719 m 25
 417.020507812 -61.4404296875 l 25
271.918945312 -69.6318359375 m 25
 596.666015625 1458.1796875 l 25
 271.918945312 -69.6318359375 l 25
885.99609375 1470.45996094 m 25
 561.250976562 -57.34375 l 25
1028.48632812 1466.37011719 m 25
 703.740234375 -61.4404296875 l 25
849.711914062 -49.15234375 m 25
 1174.45898438 1478.66015625 l 25
 849.711914062 -49.15234375 l 25
EndSplineSet
Fore
SplineSet
609 717 m 0
 764 717 842 610 844 559 c 1
 864 655 l 2
 871.779599276 691.758606581 875.625257834 725.528931269 875.625257834 756.082911817 c 0
 875.625257834 882.626897183 809.659562822 954 684 954 c 0
 590 954 497 922 442 877 c 1
 387 981 l 1
 469 1038 570 1090 713 1090 c 0
 891.506716969 1090 1018.96647202 982.234191517 1018.96647202 779.239048427 c 0
 1018.96647202 741.150992711 1014.47923105 699.710373103 1005 655 c 2
 979 532 l 1
 866 0 l 1
 727 0 l 1
 760 156 l 1
 761 158 l 1
 745 109 605 -29 450 -29 c 0
 267.148656582 -29 146.937930594 79.3314207293 146.937930594 252.974840407 c 0
 146.937930594 281.605288123 150.205936545 312.011284565 157 344 c 0
 203 559 404 717 609 717 c 0
613 582 m 0
 462 582 338 473 311 344 c 0
 307.249561961 326.2824134 305.439232264 309.166929389 305.439232264 292.794141502 c 0
 305.439232264 182.565491438 387.493539298 106 512 106 c 0
 639 106 772 211 800 344 c 0
 803.579324681 361.061447644 805.265384731 377.439611812 805.265384731 393.054667789 c 0
 805.265384731 508.316724431 713.398566214 582 613 582 c 0
EndSplineSet
EndChar

StartChar: b
Encoding: 98 98 121
Width: 1044
Flags: HMW
LayerCount: 2
Back
SplineSet
281 0 m 13
 129 0 l 5
 438.057617188 1454 l 5
 590.057617188 1454 l 5
 470.600585938 892 l 21
 537.83203125 1006 662.237304688 1102 820.237304688 1102 c 4
 1046.23730469 1102 1155.80273438 940 1089.2734375 627 c 5
 956 0 l 5
 805 0 l 4
 917.017578125 527 l 5
 968.243164062 768 965.1171875 965 751.1171875 965 c 4
 537.1171875 965 446.793945312 780 395.780273438 540 c 4
 281 0 l 13
456.787109375 1474.55957031 m 25
 132.041992188 -53.248046875 l 25
741.766601562 1466.37011719 m 25
 417.020507812 -61.4404296875 l 25
271.918945312 -69.6318359375 m 25
 596.666015625 1458.1796875 l 25
 271.918945312 -69.6318359375 l 25
885.99609375 1470.45996094 m 25
 561.250976562 -57.34375 l 25
1028.48632812 1466.37011719 m 25
 703.740234375 -61.4404296875 l 25
849.711914062 -49.15234375 m 25
 1174.45898438 1478.66015625 l 25
 849.711914062 -49.15234375 l 25
EndSplineSet
Fore
SplineSet
936 539 m 0
 948.488421128 597.632078853 954.301134505 650.574124927 954.301134505 697.608018764 c 0
 954.301134505 872.779935254 873.673113104 966 757 966 c 0
 609 966 448 812 390 537 c 0
 378.225366237 481.578016943 372.756388252 430.895579079 372.756388252 385.31245786 c 0
 372.756388252 206.360270045 457.045617188 106 575 106 c 0
 723 106 878 264 936 539 c 0
590 1454 m 1
 469 886 l 1
 539 996 642 1102 814 1102 c 0
 1028.45386076 1102 1112.09302481 941.268040818 1112.09302481 736.170436339 c 0
 1112.09302481 673.483963387 1104.27969462 606.652979433 1090 539 c 0
 1029 254 854 -29 572 -29 c 0
 398 -29 344 76 320 184 c 1
 281 0 l 1
 129 0 l 1
 438 1454 l 1
 590 1454 l 1
EndSplineSet
EndChar

StartChar: c
Encoding: 99 99 122
Width: 921
Flags: HMW
LayerCount: 2
Back
SplineSet
1242 0 m 21
 342.142578125 537 l 5
 1470.28613281 1074 l 13
199.197265625 532.48046875 m 0
 265.278320312 843.366210938 518.92578125 1095.6796875 765.374023438 1095.6796875 c 0
 1011.82226562 1095.6796875 1158.20703125 843.366210938 1092.12597656 532.48046875 c 0
 1026.04492188 221.59375 772.3984375 -30.7197265625 525.950195312 -30.7197265625 c 0
 279.501953125 -30.7197265625 133.1171875 221.59375 199.197265625 532.48046875 c 0
352.36328125 530.431640625 m 0
 402.34375 765.575195312 574.111328125 956.416015625 735.772460938 956.416015625 c 0
 897.43359375 956.416015625 988.072265625 765.575195312 938.090820312 530.431640625 c 0
 888.109375 295.2890625 716.341796875 104.448242188 554.680664062 104.448242188 c 0
 393.020507812 104.448242188 302.381835938 295.2890625 352.36328125 530.431640625 c 0
456.787109375 1474.55957031 m 25
 132.041992188 -53.248046875 l 25
741.766601562 1466.37011719 m 25
 417.020507812 -61.4404296875 l 25
271.918945312 -69.6318359375 m 25
 596.666015625 1458.1796875 l 25
 271.918945312 -69.6318359375 l 25
885.99609375 1470.45996094 m 25
 561.250976562 -57.34375 l 25
1028.48632812 1466.37011719 m 25
 703.740234375 -61.4404296875 l 25
849.711914062 -49.15234375 m 25
 1174.45898438 1478.66015625 l 25
 849.711914062 -49.15234375 l 25
EndSplineSet
Fore
SplineSet
917 809 m 1
 909 866 843 958 741 958 c 0
 575 958 396 784 343 537 c 0
 332.56341556 487.612591489 327.649358183 441.663737564 327.649358183 399.587134704 c 0
 327.649358183 215.891620862 421.30975332 106 558 106 c 0
 682 106 779 217 810 264 c 1
 916 187 l 1
 834 86 694 -29 529 -29 c 0
 306.55809647 -29 173.652750579 147.296787909 173.652750579 386.553263764 c 0
 173.652750579 434.479544573 178.985639075 484.93211199 190 537 c 0
 251 823 483 1094 770 1094 c 0
 932 1094 1022 993 1062 875 c 1
 917 809 l 1
EndSplineSet
EndChar

StartChar: d
Encoding: 100 100 123
Width: 1044
Flags: HMW
LayerCount: 2
Back
SplineSet
987.784179688 1062.91015625 m 21
 1139.33691406 1062.91015625 l 5
 830.262695312 -391.16796875 l 5
 678.7109375 -391.16796875 l 5
 796.681640625 163.83984375 l 21
 714.823242188 67.78125 620.206054688 -30.4951171875 475.185546875 -28.671875 c 5
 223.28125 -28.671875 162.958007812 256 223.032226562 538.624023438 c 4
 283.10546875 821.248046875 457.302734375 1091.58007812 715.350585938 1091.58007812 c 5
 852.56640625 1091.58007812 918.123046875 995.328125 952.088867188 894.975585938 c 5
 987.784179688 1062.91015625 l 21
376.631835938 538.624023438 m 4
 327.005859375 305.15234375 372.844726562 106.49609375 505.96484375 106.49609375 c 5
 645.228515625 106.49609375 825.155273438 278.528320312 880.004882812 536.576171875 c 5
 941.819335938 827.391601562 799.260742188 956.416015625 686.620117188 956.416015625 c 4
 555.548828125 956.416015625 427.564453125 778.240234375 376.631835938 538.624023438 c 4
456.787109375 1474.55957031 m 25
 132.041992188 -53.248046875 l 25
741.766601562 1466.37011719 m 25
 417.020507812 -61.4404296875 l 25
271.918945312 -69.6318359375 m 25
 596.666015625 1458.1796875 l 25
 271.918945312 -69.6318359375 l 25
885.99609375 1470.45996094 m 25
 561.250976562 -57.34375 l 25
1028.48632812 1466.37011719 m 25
 703.740234375 -61.4404296875 l 25
849.711914062 -49.15234375 m 25
 1174.45898438 1478.66015625 l 25
 849.711914062 -49.15234375 l 25
EndSplineSet
Fore
SplineSet
342 539 m 0
 329.636646164 480.380649917 323.861762935 427.077514047 323.861762935 379.487700515 c 0
 323.861762935 203.820198797 402.547868409 106 519 106 c 0
 667 106 828 264 886 537 c 0
 897.774633763 592.828004911 903.243611748 643.66918401 903.243611748 689.247433625 c 0
 903.243611748 868.180496285 818.954382812 966 701 966 c 0
 553 966 401 816 342 539 c 0
1076 1454 m 1
 1228 1454 l 1
 919 0 l 1
 767 0 l 1
 806 184 l 1
 736 76 638 -29 463 -29 c 0
 248.214458661 -29 166.053277834 136.926512712 166.053277834 341.951723704 c 0
 166.053277834 405.157250821 173.861681425 472.078625411 188 539 c 0
 249 828 422 1102 702 1102 c 0
 874 1102 931 996 955 886 c 1
 1076 1454 l 1
EndSplineSet
EndChar

StartChar: e
Encoding: 101 101 124
Width: 1013
Flags: HMW
LayerCount: 2
Back
SplineSet
456.787109375 1474.55957031 m 25
 132.041992188 -53.248046875 l 25
741.766601562 1466.37011719 m 25
 417.020507812 -61.4404296875 l 25
271.918945312 -69.6318359375 m 25
 596.666015625 1458.1796875 l 25
 271.918945312 -69.6318359375 l 25
885.99609375 1470.45996094 m 25
 561.250976562 -57.34375 l 25
1028.48632812 1466.37011719 m 25
 703.740234375 -61.4404296875 l 25
849.711914062 -49.15234375 m 25
 1174.45898438 1478.66015625 l 25
 849.711914062 -49.15234375 l 25
EndSplineSet
Fore
SplineSet
357 469 m 1
 353.169796939 439.794701657 351.173400814 410.665811935 351.173400814 382.332787996 c 0
 351.173400814 233.13147142 406.534687076 106 541 106 c 0
 635 106 755 162 815 243 c 1
 936 188 l 1
 839 55 667 -29 512 -29 c 0
 298.55988024 -29 191.839820359 132.038653232 191.839820359 357.054239347 c 0
 191.839820359 413.518824626 198.55988024 474.011976048 212 537 c 0
 279 852 485 1094 751 1094 c 0
 966.677233537 1094 1060.85738365 923.004104813 1060.85738365 719.65863632 c 0
 1060.85738365 669.384702674 1055.10065027 617.133411077 1044 565 c 0
 1039 543 1030 492 1025 469 c 1
 357 469 l 1
385 604 m 1
 907 604 l 1
 911.398278108 633.321854051 913.647128403 662.484491227 913.647128403 690.761695132 c 0
 913.647128403 836.071628457 854.261928111 958 722 958 c 0
 562 958 432 774 385 604 c 1
EndSplineSet
EndChar

StartChar: f
Encoding: 102 102 125
Width: 716
Flags: HMW
LayerCount: 2
Back
SplineSet
456.787109375 1474.55957031 m 25
 132.041992188 -53.248046875 l 25
741.766601562 1466.37011719 m 25
 417.020507812 -61.4404296875 l 25
271.918945312 -69.6318359375 m 25
 596.666015625 1458.1796875 l 25
 271.918945312 -69.6318359375 l 25
885.99609375 1470.45996094 m 25
 561.250976562 -57.34375 l 25
1028.48632812 1466.37011719 m 25
 703.740234375 -61.4404296875 l 25
849.711914062 -49.15234375 m 25
 1174.45898438 1478.66015625 l 25
 849.711914062 -49.15234375 l 25
EndSplineSet
Fore
SplineSet
615 938 m 1
 416 0 l 1
 264 0 l 1
 463 938 l 1
 324 938 l 1
 353 1073 l 1
 491 1073 l 1
 520 1208 l 2
 556 1376 759 1481 860 1481 c 0
 946 1481 983 1444 1020 1399 c 1
 889 1294 l 1
 873 1323 859 1346 800 1346 c 0
 749 1346 695 1311 682 1249 c 2
 645 1073 l 1
 840 1073 l 1
 811 938 l 1
 615 938 l 1
EndSplineSet
EndChar

StartChar: g
Encoding: 103 103 126
Width: 1021
Flags: HMW
LayerCount: 2
Back
SplineSet
967.3046875 1062.91015625 m 21
 1118.85644531 1062.91015625 l 5
 809.782226562 -391.16796875 l 5
 658.23046875 -391.16796875 l 5
 776.201171875 163.83984375 l 21
 694.34375 67.7822265625 599.725585938 -30.49609375 454.706054688 -28.671875 c 5
 202.801757812 -28.671875 142.478515625 256 202.552734375 538.624023438 c 4
 262.625976562 821.248046875 436.822265625 1091.58007812 694.870117188 1091.58007812 c 5
 832.086914062 1091.58007812 897.643554688 995.328125 931.609375 894.975585938 c 5
 967.3046875 1062.91015625 l 21
356.15234375 538.624023438 m 4
 306.526367188 305.15234375 352.364257812 106.49609375 485.484375 106.49609375 c 5
 624.748046875 106.49609375 804.674804688 278.528320312 859.524414062 536.576171875 c 5
 921.33984375 827.391601562 778.780273438 956.416015625 666.140625 956.416015625 c 4
 535.068359375 956.416015625 407.083984375 778.240234375 356.15234375 538.624023438 c 4
993.072265625 -49.15234375 m 25
 1317.81933594 1478.66015625 l 25
 993.072265625 -49.15234375 l 25
456.787109375 1474.55957031 m 25
 132.041992188 -53.248046875 l 25
741.766601562 1466.37011719 m 25
 417.020507812 -61.4404296875 l 25
271.918945312 -69.6318359375 m 25
 596.666015625 1458.1796875 l 25
 271.918945312 -69.6318359375 l 25
885.99609375 1470.45996094 m 25
 561.250976562 -57.34375 l 25
1028.48632812 1466.37011719 m 25
 703.740234375 -61.4404296875 l 25
849.711914062 -49.15234375 m 25
 1174.45898438 1478.66015625 l 25
 849.711914062 -49.15234375 l 25
EndSplineSet
Fore
SplineSet
342 539 m 0
 329.636646164 480.380649917 323.861762935 427.077514047 323.861762935 379.487700515 c 0
 323.861762935 203.820198797 402.547868409 106 519 106 c 0
 667 106 828 264 886 537 c 0
 897.774633763 592.828004911 903.243611748 643.66918401 903.243611748 689.247433625 c 0
 903.243611748 868.180496285 818.954382812 966 701 966 c 0
 553 966 401 816 342 539 c 0
915 -18 m 2
 857 -291 620 -449 418 -449 c 0
 177.298529925 -449 72.7409875423 -275.725910211 72.7409875423 -135.320455804 c 0
 72.7409875423 -126.396550831 73.1633616447 -117.605423083 74 -109 c 1
 217 -109 l 1
 216.785769245 -112.67252722 216.680187444 -116.3113358 216.680187444 -119.915049821 c 0
 216.680187444 -234.062861281 322.611318433 -313 437 -313 c 0
 562 -313 719 -225 760 -33 c 2
 767 0 l 1
 806 184 l 1
 736 76 638 -29 464 -29 c 0
 248.39451322 -29 166.066345388 137.012099039 166.066345388 342.11034171 c 0
 166.066345388 405.269207414 173.873507825 472.134603707 188 539 c 0
 249 828 422 1102 702 1102 c 0
 874 1102 931 996 955 886 c 1
 995 1073 l 1
 1147 1073 l 1
 919 0 l 1
 915 -18 l 2
EndSplineSet
EndChar

StartChar: h
Encoding: 104 104 127
Width: 1064
Flags: HMW
LayerCount: 2
Back
SplineSet
993.072265625 -49.15234375 m 25
 1317.81933594 1478.66015625 l 25
 993.072265625 -49.15234375 l 25
456.787109375 1474.55957031 m 25
 132.041992188 -53.248046875 l 25
741.766601562 1466.37011719 m 25
 417.020507812 -61.4404296875 l 25
271.918945312 -69.6318359375 m 25
 596.666015625 1458.1796875 l 25
 271.918945312 -69.6318359375 l 25
885.99609375 1470.45996094 m 25
 561.250976562 -57.34375 l 25
1028.48632812 1466.37011719 m 25
 703.740234375 -61.4404296875 l 25
849.711914062 -49.15234375 m 25
 1174.45898438 1478.66015625 l 25
 849.711914062 -49.15234375 l 25
EndSplineSet
Fore
SplineSet
281 0 m 1
 129 0 l 1
 438 1456 l 1
 590 1456 l 1
 471 892 l 1
 530 1004 662 1102 820 1102 c 0
 987.543683037 1102 1097.46959906 998.410610368 1097.46959906 765.317702237 c 0
 1097.46959906 700.685972614 1089.01810424 626.097552569 1071 541 c 2
 956 0 l 1
 805 0 l 1
 920 541 l 2
 933.518888619 603.998020964 940.970133635 663.925668056 940.970133635 717.837846841 c 0
 940.970133635 863.321418347 886.709734338 965 751 965 c 0
 565 965 444 768 396 540 c 2
 281 0 l 1
EndSplineSet
EndChar

StartChar: i
Encoding: 105 105 128
Width: 430
Flags: HMW
LayerCount: 2
Back
SplineSet
456.787109375 1474.55957031 m 25
 132.041992188 -53.248046875 l 25
741.766601562 1466.37011719 m 25
 417.020507812 -61.4404296875 l 25
271.918945312 -69.6318359375 m 25
 596.666015625 1458.1796875 l 25
 271.918945312 -69.6318359375 l 25
885.99609375 1470.45996094 m 25
 561.250976562 -57.34375 l 25
1028.48632812 1466.37011719 m 25
 703.740234375 -61.4404296875 l 25
849.711914062 -49.15234375 m 25
 1174.45898438 1478.66015625 l 25
 849.711914062 -49.15234375 l 25
EndSplineSet
Fore
SplineSet
378 1073 m 1
 529 1073 l 1
 301 0 l 1
 150 0 l 1
 378 1073 l 1
414 1333 m 0
 425 1384 477 1427 528 1427 c 0
 574.932004874 1427 604.272542486 1393.61376069 604.272542486 1348.55533989 c 0
 604.272542486 1343.67172942 602.809016994 1338.66311896 602 1333 c 0
 591 1282 539 1239 488 1239 c 0
 444 1239 412 1272 412 1314 c 0
 412 1320 413 1327 414 1333 c 0
EndSplineSet
EndChar

StartChar: j
Encoding: 106 106 129
Width: 468
Flags: HMW
LayerCount: 2
Back
SplineSet
212.793945312 114.688476562 m 4
 412.16796875 1052.66992188 l 5
 563.719726562 1052.66992188 l 5
 364.345703125 114.688476562 l 4
 503.609375 114.688476562 l 5
 474.87890625 -20.48046875 l 5
 335.614257812 -20.48046875 l 5
 307.766601562 -155.6484375 l 4
 272.071289062 -323.583984375 68.7626953125 -428.032226562 -31.591796875 -428.032226562 c 4
 -117.60546875 -428.032226562 -154.825195312 -391.16796875 -192.352539062 -346.112304688 c 13
 -61.607421875 -241.6640625 l 21
 -45.173828125 -270.3359375 -31.5302734375 -292.86328125 27.8642578125 -292.86328125 c 5
 79.0625 -292.86328125 132.627929688 -258.047851562 145.6875 -196.608398438 c 4
 184.0625 -20.48046875 l 5
 -12.5458984375 -20.48046875 l 5
 16.185546875 114.688476562 l 5
 212.793945312 114.688476562 l 4
456.787109375 1474.55957031 m 25
 132.041992188 -53.248046875 l 25
741.766601562 1466.37011719 m 25
 417.020507812 -61.4404296875 l 25
271.918945312 -69.6318359375 m 25
 596.666015625 1458.1796875 l 25
 271.918945312 -69.6318359375 l 25
885.99609375 1470.45996094 m 25
 561.250976562 -57.34375 l 25
1028.48632812 1466.37011719 m 25
 703.740234375 -61.4404296875 l 25
849.711914062 -49.15234375 m 25
 1174.45898438 1478.66015625 l 25
 849.711914062 -49.15234375 l 25
EndSplineSet
Fore
SplineSet
-193 -346 m 1
 -64 -244 l 1
 -45 -266 -25 -293 24 -293 c 0
 92 -293 134 -254 152 -170 c 2
 188 0 l 1
 416 1073 l 1
 568 1073 l 1
 340 0 l 1
 310 -139 l 2
 263 -360 34 -428 -36 -428 c 0
 -126 -428 -162 -383 -193 -346 c 1
453 1333 m 0
 464 1384 516 1427 567 1427 c 0
 610.000238208 1427 642.989120183 1395.42572265 642.989120183 1351.87564578 c 0
 642.989120183 1345.79916578 642.3468853 1339.48953826 641 1333 c 0
 630 1282 578 1239 527 1239 c 0
 483.999761792 1239 451.010879817 1270.57427735 451.010879817 1314.12435422 c 0
 451.010879817 1320.20083422 451.6531147 1326.51046174 453 1333 c 0
EndSplineSet
EndChar

StartChar: k
Encoding: 107 107 130
Width: 944
Flags: HMW
LayerCount: 2
Back
SplineSet
456.787109375 1474.55957031 m 29
 132.041992188 -53.248046875 l 29
741.766601562 1466.37011719 m 29
 417.020507812 -61.4404296875 l 29
271.918945312 -69.6318359375 m 29
 596.666015625 1458.1796875 l 29
 271.918945312 -69.6318359375 l 29
885.99609375 1470.45996094 m 29
 561.250976562 -57.34375 l 29
1028.48632812 1466.37011719 m 29
 703.740234375 -61.4404296875 l 29
849.711914062 -49.15234375 m 29
 1174.45898438 1478.66015625 l 29
 849.711914062 -49.15234375 l 29
EndSplineSet
Fore
SplineSet
610 616 m 1
 940 0 l 1
 766 0 l 1
 496 512 l 1
 362 379 l 1
 281 0 l 1
 129 0 l 1
 438 1454 l 1
 590 1454 l 1
 405 582 l 1
 918 1073 l 1
 1092 1073 l 1
 610 616 l 1
EndSplineSet
EndChar

StartChar: l
Encoding: 108 108 131
Width: 430
Flags: HMW
LayerCount: 2
Back
SplineSet
456.787109375 1474.55957031 m 29
 132.041992188 -53.248046875 l 29
741.766601562 1466.37011719 m 29
 417.020507812 -61.4404296875 l 29
271.918945312 -69.6318359375 m 29
 596.666015625 1458.1796875 l 29
 271.918945312 -69.6318359375 l 29
885.99609375 1470.45996094 m 29
 561.250976562 -57.34375 l 29
1028.48632812 1466.37011719 m 29
 703.740234375 -61.4404296875 l 29
849.711914062 -49.15234375 m 29
 1174.45898438 1478.66015625 l 29
 849.711914062 -49.15234375 l 29
EndSplineSet
Fore
SplineSet
345 207 m 2
 343 196 342 186 342 177 c 0
 342 124 382 102 442 102 c 1
 414 -29 l 1
 273 -29 185 9 185 134 c 0
 185 155 187 177 193 203 c 2
 459 1454 l 1
 610 1454 l 1
 345 207 l 2
EndSplineSet
EndChar

StartChar: braceleft
Encoding: 123 123 132
Width: 747
Flags: HMW
LayerCount: 2
Fore
SplineSet
245 729 m 1
 533 815 523 1276 603 1401 c 1
 692 1526 822 1526 960 1530 c 1
 932 1395 l 1
 918 1397 903 1399 889 1399 c 0
 836 1399 760 1378 725 1339 c 1
 711 1321 701 1282 691 1237 c 0
 688 1223 684 1208 681 1192 c 0
 655 1071 567 770 458 729 c 1
 499 712 513 636 513 547 c 0
 513.0241712 544.341167947 513.036073215 541.670650955 513.036073215 538.989592903 c 0
 513.036073215 430.751126938 493.637431993 305.332187167 479 238 c 2
 469 195 l 2
 461.681166276 162.065248242 456.873207259 134.152245897 456.873207259 113.558077276 c 0
 456.873207259 111.64137119 456.914854216 109.788061474 457 108 c 0
 456 100 457 93 459 88 c 0
 478 49 545 29 598 29 c 0
 612 29 628 31 642 33 c 1
 613 -102 l 1
 477 -98 346 -98 311 27 c 0
 309 34 308 43 308 53 c 0
 308 147 370 341 370 499 c 0
 370 607 341 698 245 729 c 1
EndSplineSet
EndChar

StartChar: bar
Encoding: 124 124 133
Width: 368
Flags: HMW
LayerCount: 2
Fore
SplineSet
125 0 m 1
 434 1454 l 1
 577 1454 l 1
 268 0 l 1
 125 0 l 1
EndSplineSet
EndChar

StartChar: braceright
Encoding: 125 125 134
Width: 747
Flags: HMW
LayerCount: 2
Fore
SplineSet
833 729 m 1
 546 647 550 158 470 33 c 1
 381 -92 251 -92 113 -96 c 1
 141 39 l 1
 155 37 169 35 183 35 c 0
 236 35 313 55 348 94 c 1
 362 113 373 152 383 201 c 2
 392 244 l 2
 419 371 512 692 620 729 c 1
 576 748 562 826 562 915 c 0
 562 1015 579 1128 593 1192 c 0
 596 1208 600 1223 603 1237 c 0
 610 1269 615 1299 615 1319 c 0
 615 1327 615 1334 613 1339 c 0
 594 1378 526 1399 473 1399 c 0
 459 1399 444 1397 430 1395 c 1
 458 1530 l 1
 594 1526 726 1526 761 1401 c 0
 762 1393 763 1384 763 1373 c 0
 763 1283.7826087 706.986994329 1109.07168242 706.986994329 961.867371743 c 0
 706.986994329 854.503615618 733.469701724 763.53091981 833 729 c 1
EndSplineSet
EndChar

StartChar: asciitilde
Encoding: 126 126 135
Width: 735
Flags: HMW
LayerCount: 2
Fore
SplineSet
225 764 m 1
 279 801 351 860 429 860 c 0
 527 860 559 709 663 709 c 0
 733 709 801 762 872 807 c 1
 841 662 l 1
 770 614 706 563 632 563 c 0
 517 563 478 715 396 715 c 0
 318 715 260 664 194 618 c 1
 225 764 l 1
EndSplineSet
EndChar

StartChar: exclamdown
Encoding: 161 161 136
Width: 309
Flags: HMW
LayerCount: 2
Fore
SplineSet
285 1014 m 1
 292 1048 326 1073 355 1073 c 0
 382.971822133 1072.12588056 403.302796283 1053.67781076 403.302796283 1026.3385085 c 0
 403.302796283 1022.40141882 402.881163908 1018.27993898 402 1014 c 1
 241 65 l 1
 230 12 174 -29 123 -29 c 0
 75.6210777904 -29 39.4300059818 5.36268337448 39.4300059818 47.6560732068 c 0
 39.4300059818 52.6737988785 39.9394192848 57.8031544957 41 63 c 1
 285 1014 l 1
536 1360 m 0
 523 1300 464 1252 405 1252 c 0
 353 1252 318 1289 318 1337 c 0
 318 1345 319 1352 321 1360 c 0
 334 1419 392 1467 451 1467 c 0
 505.334019661 1467 538.272542486 1429.4273889 538.272542486 1377.89386538 c 0
 538.272542486 1371.98074642 536.809016994 1365.66311896 536 1360 c 0
EndSplineSet
EndChar

StartChar: cent
Encoding: 162 162 137
Width: 808
Flags: HMW
LayerCount: 2
Fore
SplineSet
440 279 m 1
 305 296 208 393 208 556 c 0
 208 587 212 621 220 657 c 0
 266 872 457 963 588 993 c 1
 634 1208 l 1
 769 1208 l 1
 723 993 l 1
 799 973 854 928 898 881 c 1
 855 844 788 786 788 786 c 1
 765 815 723 866 618 866 c 0
 508 866 389 778 362 653 c 0
 357 628 355 604 354 582 c 0
 354 471 420 406 526 406 c 0
 608 406 685 438 758 512 c 1
 829 422 l 1
 774 356 679 305 574 274 c 1
 533 78 l 1
 398 78 l 1
 440 279 l 1
EndSplineSet
EndChar

StartChar: sterling
Encoding: 163 163 138
Width: 1120
Flags: HMW
LayerCount: 2
Fore
SplineSet
438 596 m 1
 211 596 l 1
 239 731 l 1
 477 731 l 1
 577 1200 711 1466 908 1466 c 0
 1051 1466 1142 1376 1172 1169 c 1
 1027 1163 l 1
 1024 1245 985 1333 879 1333 c 0
 813 1333 708 1094 674 934 c 0
 667 903 654 842 647 809 c 0
 641 782 636 758 630 731 c 1
 989 731 l 1
 961 596 l 1
 596 596 l 1
 553 444 456 253 391 135 c 1
 895 135 l 1
 928 137 964 139 1027 207 c 1
 1083 92 l 1
 1021 20 937 12 854 0 c 1
 145 0 l 1
 206 131 379 380 438 596 c 1
EndSplineSet
EndChar

StartChar: currency
Encoding: 164 164 139
Width: 856
Flags: HMW
LayerCount: 2
Fore
SplineSet
723 504 m 1
 665 469 599 449 533 449 c 0
 468 449 411 469 367 504 c 1
 340 375 l 1
 143 375 l 1
 184 571 l 1
 311 571 l 1
 291 608 280 651 280 698 c 0
 279.870828693 700.583426132 279.808398293 703.200222717 279.808398293 705.84607925 c 0
 279.808398293 723.683537491 282.645856533 742.841768745 287 762 c 0
 302 831 337 895 385 946 c 1
 264 946 l 1
 306 1143 l 1
 503 1143 l 1
 477 1020 l 1
 535 1055 601 1075 666 1075 c 0
 732 1075 789 1055 833 1020 c 1
 859 1143 l 1
 1056 1143 l 1
 1014 946 l 1
 893 946 l 1
 911 912 920 872 921 828 c 0
 921 807 919 785 914 762 c 0
 899 690 859 625 807 571 c 1
 934 571 l 1
 893 375 l 1
 696 375 l 1
 723 504 l 1
422 764 m 0
 419 751 418 738 418 726 c 0
 418 644 478 583 565 583 c 0
 665 583 762 664 783 764 c 0
 786 777 787 790 787 802 c 0
 787 884 729 945 642 945 c 0
 541 945 443 864 422 764 c 0
EndSplineSet
EndChar

StartChar: yen
Encoding: 165 165 140
Width: 1110
Flags: HMW
LayerCount: 2
Fore
SplineSet
616 682 m 1
 305 682 l 1
 334 817 l 1
 592 817 l 1
 371 1397 l 1
 526 1397 l 1
 730 831 l 1
 1194 1397 l 1
 1350 1397 l 1
 854 817 l 1
 1102 817 l 1
 1073 682 l 1
 768 682 l 1
 722 467 l 1
 1027 467 l 1
 999 332 l 1
 694 332 l 1
 623 0 l 1
 471 0 l 1
 542 332 l 1
 231 332 l 1
 259 467 l 1
 570 467 l 1
 616 682 l 1
EndSplineSet
EndChar

StartChar: brokenbar
Encoding: 166 166 141
Width: 305
Flags: HMW
LayerCount: 2
Fore
SplineSet
257 788 m 1
 395 1434 l 1
 538 1434 l 1
 400 788 l 1
 257 788 l 1
370 645 m 1
 233 0 l 1
 90 0 l 1
 227 645 l 1
 370 645 l 1
EndSplineSet
EndChar

StartChar: section
Encoding: 167 167 142
Width: 686
Flags: HMW
LayerCount: 2
Fore
SplineSet
630 582 m 0
 633 596 634 611 634 625 c 0
 634 729 558 831 427 831 c 0
 404 831 387 827 369 817 c 1
 366 805 365 793 364 781 c 0
 364 674 463 567 572 567 c 0
 577 567 583 567 590 567 c 0
 608 567 627 569 630 582 c 0
390 958 m 1
 410 964 433 967 458 967 c 0
 638 967 790 826 790 622 c 0
 790 593 788 562 781 530 c 0
 734 307 548 104 372 104 c 0
 253 104 166 153 113 291 c 1
 265 301 l 1
 283 264 346 240 385 240 c 2
 389 240 l 2
 487 240 572 328 616 440 c 1
 616 442 l 2
 617 445 615 445 612 445 c 0
 600 445 567 432 549 432 c 0
 374 432 215 540 215 759 c 0
 215 794 219 832 228 872 c 0
 274 1090 445 1294 633 1294 c 0
 769 1294 819 1245 883 1130 c 1
 726 1114 l 1
 708 1141 654 1159 621 1159 c 2
 617 1159 l 2
 510 1159 439 1069 390 958 c 1
EndSplineSet
EndChar

StartChar: dieresis
Encoding: 168 168 143
Width: 794
Flags: HMW
LayerCount: 2
Fore
SplineSet
434 1683 m 0
 439 1708 453 1730 476 1749 c 0
 499 1768 523 1777 548 1777 c 0
 570 1777 588 1770 602 1756 c 0
 616 1742 623 1723 624 1702 c 0
 624 1697 624 1691 622 1683 c 0
 616 1657 602 1635 579 1616 c 0
 556 1597 533 1588 508 1588 c 0
 486 1588 467 1596 453 1610 c 0
 439 1624 432 1642 432 1664 c 0
 432 1668 432 1674 434 1683 c 0
905 1685 m 0
 910 1710 924 1732 947 1751 c 0
 970 1770 994 1779 1019 1779 c 0
 1041 1779 1060 1772 1074 1758 c 0
 1088 1744 1094 1725 1095 1704 c 0
 1095 1699 1095 1693 1093 1685 c 0
 1087 1659 1074 1637 1051 1618 c 0
 1028 1599 1004 1590 979 1590 c 0
 957 1590 939 1598 925 1612 c 0
 911 1626 903 1644 903 1666 c 0
 904 1674 904 1680 905 1685 c 0
EndSplineSet
EndChar

StartChar: copyright
Encoding: 169 169 144
Width: 942
Flags: HMW
LayerCount: 2
Fore
SplineSet
200 750 m 0
 251 991 491 1188 732 1188 c 0
 943 1188 1087 1039 1087 841 c 0
 1087 811 1084 781 1077 750 c 0
 1026 508 787 311 545 311 c 0
 335 311 191 460 191 658 c 0
 190.875 661.75 190.8125 665.5 190.8125 669.25390625 c 0
 190.8125 695.53125 193.875 722 200 750 c 0
317 750 m 0
 312 726 310 704 310 682 c 0
 310 536 415 426 570 426 c 0
 748 426 922 571 960 750 c 0
 965 773 967 796 968 818 c 0
 968 963 862 1073 707 1073 c 0
 529 1073 355 928 317 750 c 0
759 610 m 1
 714 573 652 543 594 543 c 0
 495 543 427 612 427 706 c 0
 427 720 428 735 431 750 c 0
 455 864 568 956 682 956 c 0
 740 956 791 934 820 897 c 1
 724 815 l 1
 708 831 685 844 658 844 c 0
 607 844 555 801 544 750 c 0
 543 743 542 737 542 731 c 0
 542 688 574 655 618 655 c 0
 645 655 679 666 700 682 c 1
 759 610 l 1
EndSplineSet
EndChar

StartChar: guillemotleft
Encoding: 171 171 145
Width: 872
Flags: HMW
LayerCount: 2
Fore
SplineSet
490 1118 m 1
 625 1118 l 1
 371 827 l 1
 501 537 l 1
 366 537 l 1
 235 827 l 1
 490 1118 l 1
891 1118 m 1
 1026 1118 l 1
 772 827 l 1
 902 537 l 1
 767 537 l 1
 637 827 l 1
 891 1118 l 1
EndSplineSet
EndChar

StartChar: logicalnot
Encoding: 172 172 146
Width: 1026
Flags: HMW
LayerCount: 2
Fore
SplineSet
1036 545 m 1
 900 545 l 1
 943 750 l 1
 313 750 l 1
 344 893 l 1
 1110 893 l 1
 1036 545 l 1
EndSplineSet
EndChar

StartChar: softhyphen
Encoding: 173 173 147
Width: 950
Flags: HMW
LayerCount: 2
Fore
SplineSet
295 877 m 1
 972 877 l 1
 942 735 l 1
 265 735 l 1
 295 877 l 1
EndSplineSet
EndChar

StartChar: registered
Encoding: 174 174 148
Width: 1189
Flags: HMW
LayerCount: 2
Fore
SplineSet
641 1010 m 1
 723 1010 l 2
 861 1010 979 978 979 890 c 0
 980 883 979 875 977 866 c 0
 956 766 878 750 809 735 c 1
 920 496 l 1
 820 496 l 1
 727 723 l 1
 661 721 l 1
 613 496 l 1
 531 496 l 1
 641 1010 l 1
678 801 m 1
 694 801 711 801 729 801 c 0
 807 801 884 807 897 866 c 0
 898 870 897 874 898 877 c 0
 898 928 811 932 735 932 c 0
 724 932 714 932 706 932 c 1
 678 801 l 1
253 750 m 0
 328 1102 647 1260 870 1260 c 0
 1110 1260 1283 1097 1284 861 c 0
 1283 825 1279 788 1271 750 c 0
 1206 446 909 242 653 242 c 0
 447 242 240 374 240 632 c 0
 240 669 244 708 253 750 c 0
370 750 m 0
 363 716 359 685 359 656 c 0
 359 451 526 358 678 358 c 0
 856 358 1101 500 1154 750 c 0
 1160.14770564 780.738528216 1164.00405867 809.656036355 1164.00405867 837.703126154 c 0
 1164.00405867 1046.52450879 980.631804704 1143 845 1143 c 0
 667 1143 427 1016 370 750 c 0
EndSplineSet
EndChar

StartChar: macron
Encoding: 175 175 149
Width: 950
Flags: HMW
LayerCount: 2
Fore
SplineSet
469 1321 m 1
 1146 1321 l 1
 1123 1215 l 1
 446 1215 l 1
 469 1321 l 1
EndSplineSet
EndChar

StartChar: degree
Encoding: 176 176 150
Width: 598
Flags: HMW
LayerCount: 2
Fore
SplineSet
299 1174 m 0
 329 1317 470 1432 615 1432 c 0
 742 1432 829 1344 829 1227 c 0
 829 1210 827 1192 823 1174 c 0
 792 1030 651 915 505 915 c 0
 379 915 293 1003 293 1120 c 0
 293 1137 295 1155 299 1174 c 0
417 1178 m 0
 414 1166 413 1155 413 1144 c 0
 413 1077 460 1028 530 1028 c 0
 611 1028 687 1094 705 1178 c 0
 707 1189 709 1200 709 1211 c 0
 709 1278 663 1328 593 1328 c 0
 512 1328 435 1261 417 1178 c 0
EndSplineSet
EndChar

StartChar: plusminus
Encoding: 177 177 151
Width: 983
Flags: HMW
LayerCount: 2
Fore
SplineSet
362 998 m 1
 669 998 l 1
 735 1309 l 1
 876 1309 l 1
 810 998 l 1
 1118 998 l 1
 1088 856 l 1
 780 856 l 1
 714 545 l 1
 573 545 l 1
 639 856 l 1
 332 856 l 1
 362 998 l 1
277 416 m 1
 954 416 l 1
 924 274 l 1
 247 274 l 1
 277 416 l 1
EndSplineSet
EndChar

StartChar: acute
Encoding: 180 180 152
Width: 550
Flags: HMW
LayerCount: 2
Fore
SplineSet
432 1676 m 2
 766 1926 l 2
 785 1939 801 1944 818 1944 c 0
 824 1944 830 1944 836 1942 c 0
 852 1938 863 1928 870 1914 c 1
 875.61249695 1904.87969246 878.764046867 1894.28281669 878.764046867 1882.8999756 c 0
 878.764046867 1878.05782279 878.193751525 1873.07344398 877 1868 c 0
 876 1861 872 1856 870 1851 c 0
 863 1836 852 1822 835 1810 c 1
 483 1591 l 2
 474 1585 464 1582 455 1582 c 0
 451 1582 447 1583 442 1584 c 0
 430 1587 420 1594 414 1604 c 0
 409.607695155 1612.05255888 406.823085464 1620.10511777 406.823085464 1628.94228634 c 0
 406.823085464 1632.17691454 407.196152423 1635.5166605 408 1639 c 0
 409 1644 411 1649 413 1653 c 0
 417 1661 424 1669 432 1676 c 2
EndSplineSet
EndChar

StartChar: uni00B5
Encoding: 181 181 153
Width: 1003
Flags: HMW
LayerCount: 2
Fore
SplineSet
313 74 m 1
 213 -395 l 1
 70 -395 l 1
 339 872 l 1
 484 872 l 1
 387 414 l 2
 376 363 371 319 371 282 c 0
 371 159 428 111 520 111 c 0
 679 111 789 291 815 414 c 2
 912 872 l 1
 1055 872 l 1
 870 0 l 1
 727 0 l 1
 748 98 l 1
 673 25 580 -27 500 -27 c 0
 377 -27 348 29 313 74 c 1
EndSplineSet
EndChar

StartChar: paragraph
Encoding: 182 182 154
Width: 1150
Flags: HMW
LayerCount: 2
Fore
SplineSet
502 0 m 1
 639 643 l 1
 459 684 324 745 323 912 c 0
 324 938 326 965 332 995 c 0
 390 1266 754 1397 1114 1397 c 2
 1311 1397 l 1
 1014 0 l 1
 502 0 l 1
674 135 m 1
 891 135 l 1
 992 612 l 1
 955 612 814 623 777 623 c 1
 674 135 l 1
763 1227 m 1
 649 1192 505 1135 475 995 c 0
 471 977 470 961 470 946 c 0
 470 831 574 799 667 774 c 1
 763 1227 l 1
913 1260 m 1
 804 748 l 1
 839 748 982 739 1019 739 c 1
 1132 1272 l 1
 1097 1272 950 1260 913 1260 c 1
EndSplineSet
EndChar

StartChar: periodcentered
Encoding: 183 183 155
Width: 438
Flags: HMW
LayerCount: 2
Fore
SplineSet
297 729 m 0
 310 789 369 837 428 837 c 0
 480 837 515 800 515 752 c 0
 515 744 514 737 512 729 c 0
 499 670 441 622 382 622 c 0
 327.665980339 622 294.727457514 659.572611099 294.727457514 711.106134621 c 0
 294.727457514 717.019253582 296.190983006 723.336881039 297 729 c 0
EndSplineSet
EndChar

StartChar: cedilla
Encoding: 184 184 156
Width: 473
Flags: HMW
LayerCount: 2
Fore
SplineSet
77 -190 m 1
 112 -168 185 -123 193 -86 c 0
 194.152640756 -80.2367962196 194.044480477 -74.6204229159 194.044480477 -68.6822760089 c 0
 194.044480477 -43.5574107704 178.434239649 -19.8387024371 160 18 c 1
 301 74 l 1
 329 40 351 -6 352 -60 c 0
 351 -72 351 -85 348 -98 c 0
 324 -209 172 -270 93 -315 c 1
 77 -190 l 1
EndSplineSet
EndChar

StartChar: guillemotright
Encoding: 187 187 157
Width: 933
Flags: HMW
LayerCount: 2
Fore
SplineSet
873 1118 m 1
 1003 827 l 1
 749 537 l 1
 614 537 l 1
 868 827 l 1
 738 1118 l 1
 873 1118 l 1
471 1118 m 1
 602 827 l 1
 347 537 l 1
 212 537 l 1
 467 827 l 1
 336 1118 l 1
 471 1118 l 1
EndSplineSet
EndChar

StartChar: questiondown
Encoding: 191 191 158
Width: 954
Flags: HMW
LayerCount: 2
Fore
SplineSet
569 902 m 2
 599 1043 l 1
 756 1043 l 1
 725 898 l 2
 685 711 542 644 419 551 c 0
 337 489 270 443 242 309 c 0
 236.943594471 285.122529447 234.510987171 262.78382778 234.510987171 242.022687361 c 0
 234.510987171 114.971107692 325.613369171 47 464 47 c 0
 638 47 791 207 815 318 c 1
 955 293 l 1
 884 76 668 -94 441 -94 c 0
 244.17051532 -94 72.8209596754 6.37547802001 72.8209596754 213.232604476 c 0
 72.8209596754 241.787344293 76.0860742267 272.371122228 83 305 c 0
 113 447 198 541 284 612 c 0
 409 715 534 735 569 902 c 2
832 1309 m 0
 819 1249 760 1201 701 1201 c 0
 649 1201 614 1238 614 1286 c 0
 614 1294 615 1301 617 1309 c 0
 630 1368 688 1416 747 1416 c 0
 801.334019661 1416 834.272542486 1378.4273889 834.272542486 1326.89386538 c 0
 834.272542486 1320.98074642 832.809016994 1314.66311896 832 1309 c 0
EndSplineSet
EndChar

StartChar: Agrave
Encoding: 192 192 159
Width: 1302
Flags: HMW
LayerCount: 2
Fore
SplineSet
1002 485 m 1
 505 485 l 1
 240 0 l 1
 64 0 l 1
 897 1456 l 1
 897 1456 974 1456 1024 1456 c 1
 1239 0 l 1
 1059 0 l 1
 1002 485 l 1
909 1214 m 1
 579 621 l 1
 994 621 l 1
 909 1214 l 1
1068 1676 m 2
 1074 1669 1077 1661 1077 1653 c 0
 1077 1649 1077 1644 1076 1639 c 0
 1073 1626 1066 1615 1056 1604 c 0
 1046 1594 1034 1587 1020 1584 c 0
 1015 1583 1009 1582 1005 1582 c 0
 996 1582 988 1585 981 1591 c 2
 723 1810 l 1
 712 1822 705 1836 704 1851 c 0
 704 1856 704 1861 705 1868 c 0
 709 1885 718 1901 732 1914 c 1
 745 1928 760 1938 778 1942 c 0
 784 1944 790 1944 796 1944 c 0
 813 1944 827 1939 840 1926 c 2
 1068 1676 l 2
EndSplineSet
EndChar

StartChar: Aacute
Encoding: 193 193 160
Width: 1302
Flags: HMW
LayerCount: 2
Fore
SplineSet
1002 485 m 1
 505 485 l 1
 240 0 l 1
 64 0 l 1
 897 1456 l 1
 897 1456 974 1456 1024 1456 c 1
 1239 0 l 1
 1059 0 l 1
 1002 485 l 1
909 1214 m 1
 579 621 l 1
 994 621 l 1
 909 1214 l 1
935 1676 m 2
 1269 1926 l 2
 1288 1939 1304 1944 1321 1944 c 0
 1327 1944 1333 1944 1339 1942 c 0
 1355 1938 1366 1928 1373 1914 c 1
 1378.61249695 1904.87969246 1381.76404687 1894.28281669 1381.76404687 1882.8999756 c 0
 1381.76404687 1878.05782279 1381.19375153 1873.07344398 1380 1868 c 0
 1379 1861 1375 1856 1373 1851 c 0
 1366 1836 1355 1822 1338 1810 c 1
 986 1591 l 2
 977 1585 967 1582 958 1582 c 0
 954 1582 950 1583 945 1584 c 0
 933 1587 923 1594 917 1604 c 0
 912.607695155 1612.05255888 909.823085464 1620.10511777 909.823085464 1628.94228634 c 0
 909.823085464 1632.17691454 910.196152423 1635.5166605 911 1639 c 0
 912 1644 914 1649 916 1653 c 0
 920 1661 927 1669 935 1676 c 2
EndSplineSet
EndChar

StartChar: Acircumflex
Encoding: 194 194 161
Width: 1292
Flags: HMW
LayerCount: 2
Fore
SplineSet
1341 1561 m 1
 1153 1561 l 1
 1042 1774 l 1
 839 1563 l 1
 653 1563 l 1
 1003 1905 l 1
 1134 1905 l 1
 1341 1561 l 1
1020 485 m 1
 523 485 l 1
 258 0 l 1
 82 0 l 1
 915 1456 l 1
 915 1456 992 1456 1042 1456 c 1
 1257 0 l 1
 1077 0 l 1
 1020 485 l 1
927 1214 m 1
 597 621 l 1
 1012 621 l 1
 927 1214 l 1
EndSplineSet
EndChar

StartChar: Atilde
Encoding: 195 195 162
Width: 1292
Flags: HMW
LayerCount: 2
Fore
SplineSet
722 1770 m 1
 776 1807 848 1866 926 1866 c 0
 1024 1866 1056 1715 1160 1715 c 0
 1230 1715 1297 1768 1368 1813 c 1
 1338 1668 l 1
 1267 1620 1203 1569 1129 1569 c 0
 1014 1569 975 1721 893 1721 c 0
 815 1721 757 1670 691 1624 c 1
 722 1770 l 1
1020 485 m 1
 523 485 l 1
 258 0 l 1
 82 0 l 1
 915 1456 l 1
 915 1456 992 1456 1042 1456 c 1
 1257 0 l 1
 1077 0 l 1
 1020 485 l 1
927 1214 m 1
 597 621 l 1
 1012 621 l 1
 927 1214 l 1
EndSplineSet
EndChar

StartChar: Adieresis
Encoding: 196 196 163
Width: 1292
Flags: HMW
LayerCount: 2
Fore
SplineSet
692 1682 m 0
 697 1707 711 1729 734 1748 c 0
 757 1767 781 1776 806 1776 c 0
 828 1776 846 1769 860 1755 c 0
 874 1741 881 1722 882 1701 c 0
 882 1696 882 1690 880 1682 c 0
 874 1656 860 1634 837 1615 c 0
 814 1596 790 1587 765 1587 c 0
 743 1587 725 1595 711 1609 c 0
 697 1623 689 1641 689 1663 c 0
 689 1667 690 1673 692 1682 c 0
1163 1684 m 0
 1168 1709 1182 1731 1205 1750 c 0
 1228 1769 1252 1778 1277 1778 c 0
 1299 1778 1317 1771 1331 1757 c 0
 1345 1743 1352 1724 1353 1703 c 0
 1353 1698 1353 1692 1351 1684 c 0
 1345 1658 1332 1636 1309 1617 c 0
 1286 1598 1262 1589 1237 1589 c 0
 1215 1589 1196 1597 1182 1611 c 0
 1168 1625 1161 1643 1161 1665 c 0
 1162 1673 1162 1679 1163 1684 c 0
1020 485 m 1
 523 485 l 1
 258 0 l 1
 82 0 l 1
 915 1456 l 1
 915 1456 992 1456 1042 1456 c 1
 1257 0 l 1
 1077 0 l 1
 1020 485 l 1
927 1214 m 1
 597 621 l 1
 1012 621 l 1
 927 1214 l 1
EndSplineSet
EndChar

StartChar: Aring
Encoding: 197 197 164
Width: 1292
Flags: HMW
LayerCount: 2
Fore
SplineSet
776 1735 m 0
 806 1878 948 1993 1093 1993 c 0
 1220 1993 1306 1905 1306 1788 c 0
 1306 1771 1304 1753 1300 1735 c 0
 1269 1591 1129 1476 983 1476 c 0
 857 1476 770 1564 770 1681 c 0
 770 1698 772 1716 776 1735 c 0
895 1739 m 0
 892 1727 890 1716 890 1705 c 0
 890 1638 937 1589 1007 1589 c 0
 1088 1589 1165 1655 1183 1739 c 0
 1185 1750 1187 1761 1187 1772 c 0
 1187 1839 1141 1889 1071 1889 c 0
 990 1889 913 1822 895 1739 c 0
1020 485 m 1
 523 485 l 1
 258 0 l 1
 82 0 l 1
 915 1456 l 1
 915 1456 992 1456 1042 1456 c 1
 1257 0 l 1
 1077 0 l 1
 1020 485 l 1
927 1214 m 1
 597 621 l 1
 1012 621 l 1
 927 1214 l 1
EndSplineSet
EndChar

StartChar: AE
Encoding: 198 198 165
Width: 1388
Flags: HMW
LayerCount: 2
Fore
SplineSet
1046 1237 m 1
 1062 1311 l 1
 748 788 l 1
 952 788 l 1
 1046 1237 l 1
922 645 m 1
 658 645 l 1
 262 0 l 1
 83 0 l 1
 983 1456 l 1
 1692 1456 l 1
 1661 1307 l 1
 1219 1307 l 1
 1108 788 l 1
 1550 788 l 1
 1519 641 l 1
 1077 641 l 1
 972 147 l 1
 1414 147 l 1
 1383 0 l 1
 785 0 l 1
 922 645 l 1
EndSplineSet
EndChar

StartChar: Ccedilla
Encoding: 199 199 166
Width: 1220
Flags: HMW
LayerCount: 2
Fore
SplineSet
510 -299 m 1
 545 -277 619 -232 627 -195 c 0
 628.152640756 -189.23679622 628.044480477 -183.620422916 628.044480477 -177.682276009 c 0
 628.044480477 -152.55741077 612.434239649 -128.838702437 594 -91 c 1
 735 -35 l 1
 763 -69 785 -115 786 -169 c 0
 785 -181 785 -194 782 -207 c 0
 758 -318 606 -379 527 -424 c 1
 510 -299 l 1
1249 293 m 1
 1154 133 979 -29 714 -29 c 0
 386.761988019 -29 249.007994424 205.29442814 249.007994424 497.693893051 c 0
 249.007994424 570.75130286 257.607620984 647.436060266 274 725 c 0
 357 1114 631 1495 1040 1495 c 0
 1305 1495 1408 1327 1427 1194 c 1
 1366 1178 1269 1153 1269 1153 c 1
 1256 1276 1146 1354 1010 1354 c 2
 1008 1354 l 2
 720 1354 506 1037 440 725 c 0
 426.271092943 660.191482862 419.390180122 596.524298097 419.390180122 536.179301906 c 0
 419.390180122 297.632352521 526.915628229 111 744 111 c 0
 888 111 1045 215 1111 334 c 1
 1165 318 1249 293 1249 293 c 1
EndSplineSet
EndChar

StartChar: Egrave
Encoding: 200 200 167
Width: 1142
Flags: HMW
LayerCount: 2
Fore
SplineSet
430 1456 m 1
 1351 1456 l 1
 1322 1315 l 1
 559 1315 l 1
 453 817 l 1
 1173 817 l 1
 1143 676 l 1
 423 676 l 1
 309 141 l 1
 1072 141 l 1
 1042 0 l 1
 121 0 l 1
 430 1456 l 1
1100 1676 m 2
 1106 1669 1109 1661 1109 1653 c 0
 1109 1649 1109 1644 1108 1639 c 0
 1105 1626 1098 1615 1088 1604 c 0
 1078 1594 1066 1587 1052 1584 c 0
 1047 1583 1041 1582 1037 1582 c 0
 1028 1582 1020 1585 1013 1591 c 2
 755 1810 l 1
 744 1822 737 1836 736 1851 c 0
 736 1856 736 1861 737 1868 c 0
 741 1885 750 1901 764 1914 c 1
 777 1928 792 1938 810 1942 c 0
 816 1944 822 1944 828 1944 c 0
 845 1944 859 1939 872 1926 c 2
 1100 1676 l 2
EndSplineSet
EndChar

StartChar: Eacute
Encoding: 201 201 168
Width: 1142
Flags: HMW
LayerCount: 2
Fore
SplineSet
430 1456 m 1
 1351 1456 l 1
 1322 1315 l 1
 559 1315 l 1
 453 817 l 1
 1173 817 l 1
 1143 676 l 1
 423 676 l 1
 309 141 l 1
 1072 141 l 1
 1042 0 l 1
 121 0 l 1
 430 1456 l 1
816 1676 m 2
 1150 1926 l 2
 1169 1939 1185 1944 1202 1944 c 0
 1208 1944 1214 1944 1220 1942 c 0
 1236 1938 1247 1928 1254 1914 c 1
 1259.61249695 1904.87969246 1262.76404687 1894.28281669 1262.76404687 1882.8999756 c 0
 1262.76404687 1878.05782279 1262.19375153 1873.07344398 1261 1868 c 0
 1260 1861 1256 1856 1254 1851 c 0
 1247 1836 1236 1822 1219 1810 c 1
 867 1591 l 2
 858 1585 848 1582 839 1582 c 0
 835 1582 831 1583 826 1584 c 0
 814 1587 804 1594 798 1604 c 0
 793.607695155 1612.05255888 790.823085464 1620.10511777 790.823085464 1628.94228634 c 0
 790.823085464 1632.17691454 791.196152423 1635.5166605 792 1639 c 0
 793 1644 795 1649 797 1653 c 0
 801 1661 808 1669 816 1676 c 2
EndSplineSet
EndChar

StartChar: Ecircumflex
Encoding: 202 202 169
Width: 1146
Flags: HMW
LayerCount: 2
Fore
SplineSet
1277 1538 m 1
 1089 1538 l 1
 978 1751 l 1
 775 1540 l 1
 589 1540 l 1
 939 1882 l 1
 1070 1882 l 1
 1277 1538 l 1
440 1456 m 1
 1361 1456 l 1
 1332 1315 l 1
 569 1315 l 1
 463 817 l 1
 1183 817 l 1
 1153 676 l 1
 433 676 l 1
 319 141 l 1
 1082 141 l 1
 1052 0 l 1
 131 0 l 1
 440 1456 l 1
EndSplineSet
EndChar

StartChar: Edieresis
Encoding: 203 203 170
Width: 1146
Flags: HMW
LayerCount: 2
Fore
SplineSet
627 1700 m 0
 632 1725 646 1747 669 1766 c 0
 692 1785 716 1794 741 1794 c 0
 763 1794 782 1787 796 1773 c 0
 810 1759 816 1740 817 1719 c 0
 817 1714 817 1708 815 1700 c 0
 809 1674 796 1652 773 1633 c 0
 750 1614 726 1605 701 1605 c 0
 679 1605 661 1613 647 1627 c 0
 633 1641 625 1659 625 1681 c 0
 625 1685 625 1691 627 1700 c 0
1099 1702 m 0
 1104 1727 1118 1749 1141 1768 c 0
 1164 1787 1188 1796 1213 1796 c 0
 1235 1796 1253 1789 1267 1775 c 0
 1281 1761 1288 1742 1289 1721 c 0
 1289 1716 1289 1710 1287 1702 c 0
 1281 1676 1268 1654 1245 1635 c 0
 1222 1616 1198 1607 1173 1607 c 0
 1151 1607 1132 1615 1118 1629 c 0
 1104 1643 1097 1661 1097 1683 c 0
 1098 1691 1098 1697 1099 1702 c 0
440 1456 m 1
 1361 1456 l 1
 1332 1315 l 1
 569 1315 l 1
 463 817 l 1
 1183 817 l 1
 1153 676 l 1
 433 676 l 1
 319 141 l 1
 1082 141 l 1
 1052 0 l 1
 131 0 l 1
 440 1456 l 1
EndSplineSet
EndChar

StartChar: Igrave
Encoding: 204 204 171
Width: 444
Flags: HMW
LayerCount: 2
Fore
SplineSet
154 0 m 1
 463 1456 l 1
 620 1456 l 1
 311 0 l 1
 154 0 l 1
648 1676 m 2
 654 1669 657 1661 657 1653 c 0
 657 1649 657 1644 656 1639 c 0
 653 1626 646 1615 636 1604 c 0
 626 1594 614 1587 600 1584 c 0
 595 1583 589 1582 585 1582 c 0
 576 1582 568 1585 561 1591 c 2
 303 1810 l 1
 292 1822 285 1836 284 1851 c 0
 284 1856 284 1861 285 1868 c 0
 289 1885 298 1901 312 1914 c 1
 325 1928 340 1938 358 1942 c 0
 364 1944 370 1944 376 1944 c 0
 393 1944 407 1939 420 1926 c 2
 648 1676 l 2
EndSplineSet
EndChar

StartChar: Iacute
Encoding: 205 205 172
Width: 440
Flags: HMW
LayerCount: 2
Fore
SplineSet
164 0 m 1
 473 1456 l 1
 630 1456 l 1
 321 0 l 1
 164 0 l 1
536 1676 m 2
 870 1926 l 2
 889 1939 905 1944 922 1944 c 0
 928 1944 934 1944 940 1942 c 0
 956 1938 967 1928 974 1914 c 1
 979.61249695 1904.87969246 982.764046867 1894.28281669 982.764046867 1882.8999756 c 0
 982.764046867 1878.05782279 982.193751525 1873.07344398 981 1868 c 0
 980 1861 976 1856 974 1851 c 0
 967 1836 956 1822 939 1810 c 1
 587 1591 l 2
 578 1585 568 1582 559 1582 c 0
 555 1582 551 1583 546 1584 c 0
 534 1587 524 1594 518 1604 c 0
 513.607695155 1612.05255888 510.823085464 1620.10511777 510.823085464 1628.94228634 c 0
 510.823085464 1632.17691454 511.196152423 1635.5166605 512 1639 c 0
 513 1644 515 1649 517 1653 c 0
 521 1661 528 1669 536 1676 c 2
EndSplineSet
EndChar

StartChar: Icircumflex
Encoding: 206 206 173
Width: 440
Flags: HMW
LayerCount: 2
Fore
SplineSet
914 1550 m 1
 726 1550 l 1
 616 1763 l 1
 413 1552 l 1
 227 1552 l 1
 577 1894 l 1
 708 1894 l 1
 914 1550 l 1
164 0 m 1
 473 1456 l 1
 630 1456 l 1
 321 0 l 1
 164 0 l 1
EndSplineSet
EndChar

StartChar: Idieresis
Encoding: 207 207 174
Width: 440
Flags: HMW
LayerCount: 2
Fore
SplineSet
268 1684 m 0
 273 1709 287 1731 310 1750 c 0
 333 1769 357 1778 382 1778 c 0
 404 1778 422 1771 436 1757 c 0
 450 1743 457 1724 458 1703 c 0
 458 1698 458 1692 456 1684 c 0
 450 1658 437 1636 414 1617 c 0
 391 1598 367 1589 342 1589 c 0
 320 1589 301 1597 287 1611 c 0
 273 1625 266 1643 266 1665 c 0
 266 1669 266 1675 268 1684 c 0
739 1686 m 0
 744 1711 758 1733 781 1752 c 0
 804 1771 828 1780 853 1780 c 0
 875 1780 894 1773 908 1759 c 0
 922 1745 928 1726 929 1705 c 0
 929 1700 929 1694 927 1686 c 0
 921 1660 908 1638 885 1619 c 0
 862 1600 838 1591 813 1591 c 0
 791 1591 773 1599 759 1613 c 0
 745 1627 737 1645 737 1667 c 0
 738 1675 738 1681 739 1686 c 0
164 0 m 1
 473 1456 l 1
 630 1456 l 1
 321 0 l 1
 164 0 l 1
EndSplineSet
EndChar

StartChar: Eth
Encoding: 208 208 175
Width: 1378
Flags: HMW
LayerCount: 2
Fore
SplineSet
624 662 m 1
 513 143 l 1
 737 143 l 2
 994 143 1234 379 1308 726 c 0
 1321 789 1328 848 1328 903 c 0
 1328 1152 1197 1312 986 1312 c 2
 762 1312 l 1
 654 803 l 1
 954 803 l 1
 924 662 l 1
 624 662 l 1
467 662 m 1
 285 662 l 1
 315 803 l 1
 497 803 l 1
 635 1456 l 1
 1016 1456 l 2
 1319 1456 1488 1235 1488 928 c 0
 1487 864 1480 796 1465 726 c 0
 1378 319 1067 0 707 0 c 2
 481 0 l 1
 326 0 l 1
 467 662 l 1
EndSplineSet
EndChar

StartChar: Ntilde
Encoding: 209 209 176
Width: 1292
Flags: HMW
LayerCount: 2
Fore
SplineSet
734 1749 m 1
 788 1786 859 1845 937 1845 c 0
 1035 1845 1067 1694 1171 1694 c 0
 1241 1694 1309 1747 1380 1792 c 1
 1349 1647 l 1
 1278 1599 1214 1548 1140 1548 c 0
 1025 1548 986 1700 904 1700 c 0
 826 1700 769 1649 703 1603 c 1
 734 1749 l 1
131 0 m 1
 440 1456 l 1
 593 1456 l 1
 1087 295 l 1
 1333 1456 l 1
 1490 1456 l 1
 1181 0 l 1
 1036 0 l 1
 542 1190 l 1
 289 0 l 1
 131 0 l 1
EndSplineSet
EndChar

StartChar: Ugrave
Encoding: 217 217 177
Width: 1265
Flags: HMW
LayerCount: 2
Fore
SplineSet
1313 1456 m 1
 1474 1456 l 1
 1302 645 l 2
 1212 223 965 -29 637 -29 c 0
 374 -29 231 132 231 414 c 0
 231 484 240 561 258 645 c 2
 430 1456 l 1
 592 1456 l 1
 420 645 l 2
 404 570 397 504 397 445 c 0
 397 215 512 113 667 113 c 0
 862 113 1062 274 1141 645 c 2
 1313 1456 l 1
1064 1676 m 2
 1070 1669 1073 1661 1073 1653 c 0
 1073 1649 1073 1644 1072 1639 c 0
 1069 1626 1062 1615 1052 1604 c 0
 1042 1594 1030 1587 1016 1584 c 0
 1011 1583 1005 1582 1001 1582 c 0
 992 1582 984 1585 977 1591 c 2
 719 1810 l 1
 708 1822 701 1836 700 1851 c 0
 700 1856 700 1861 701 1868 c 0
 705 1885 714 1901 728 1914 c 1
 741 1928 756 1938 774 1942 c 0
 780 1944 786 1944 792 1944 c 0
 809 1944 823 1939 836 1926 c 2
 1064 1676 l 2
EndSplineSet
EndChar

StartChar: Uacute
Encoding: 218 218 178
Width: 1265
Flags: HMW
LayerCount: 2
Fore
SplineSet
1313 1456 m 1
 1474 1456 l 1
 1302 645 l 2
 1212 223 965 -29 637 -29 c 0
 374 -29 231 132 231 414 c 0
 231 484 240 561 258 645 c 2
 430 1456 l 1
 592 1456 l 1
 420 645 l 2
 404 570 397 504 397 445 c 0
 397 215 512 113 667 113 c 0
 862 113 1062 274 1141 645 c 2
 1313 1456 l 1
908 1676 m 2
 1242 1926 l 2
 1261 1939 1277 1944 1294 1944 c 0
 1300 1944 1306 1944 1312 1942 c 0
 1328 1938 1339 1928 1346 1914 c 1
 1351.61249695 1904.87969246 1354.76404687 1894.28281669 1354.76404687 1882.8999756 c 0
 1354.76404687 1878.05782279 1354.19375153 1873.07344398 1353 1868 c 0
 1352 1861 1348 1856 1346 1851 c 0
 1339 1836 1328 1822 1311 1810 c 1
 959 1591 l 2
 950 1585 940 1582 931 1582 c 0
 927 1582 923 1583 918 1584 c 0
 906 1587 896 1594 890 1604 c 0
 885.607695155 1612.05255888 882.823085464 1620.10511777 882.823085464 1628.94228634 c 0
 882.823085464 1632.17691454 883.196152423 1635.5166605 884 1639 c 0
 885 1644 887 1649 889 1653 c 0
 893 1661 900 1669 908 1676 c 2
EndSplineSet
EndChar

StartChar: agrave
Encoding: 224 224 179
Width: 996
Flags: HMW
LayerCount: 2
Fore
SplineSet
609 717 m 0
 764 717 842 610 844 559 c 1
 864 655 l 2
 871.779599276 691.758606581 875.625257834 725.528931269 875.625257834 756.082911817 c 0
 875.625257834 882.626897183 809.659562822 954 684 954 c 0
 590 954 497 922 442 877 c 1
 387 981 l 1
 469 1038 570 1090 713 1090 c 0
 891.506716969 1090 1018.96647202 982.234191517 1018.96647202 779.239048427 c 0
 1018.96647202 741.150992711 1014.47923105 699.710373103 1005 655 c 2
 979 532 l 1
 866 0 l 1
 727 0 l 1
 760 156 l 1
 761 158 l 1
 745 109 605 -29 450 -29 c 0
 267.148656582 -29 146.937930594 79.3314207293 146.937930594 252.974840407 c 0
 146.937930594 281.605288123 150.205936545 312.011284565 157 344 c 0
 203 559 404 717 609 717 c 0
613 582 m 0
 462 582 338 473 311 344 c 0
 307.249561961 326.2824134 305.439232264 309.166929389 305.439232264 292.794141502 c 0
 305.439232264 182.565491438 387.493539298 106 512 106 c 0
 639 106 772 211 800 344 c 0
 803.579324681 361.061447644 805.265384731 377.439611812 805.265384731 393.054667789 c 0
 805.265384731 508.316724431 713.398566214 582 613 582 c 0
888 1329 m 2
 894 1322 898 1314 898 1306 c 0
 898 1302 898 1297 897 1292 c 0
 894 1279 886 1268 876 1257 c 0
 866 1247 854 1240 840 1237 c 0
 835 1236 830 1235 826 1235 c 0
 817 1235 808 1238 801 1244 c 2
 543 1463 l 1
 532 1475 526 1489 525 1504 c 0
 525 1507.33333333 524.555555556 1510.66666667 524.555555556 1514.59259259 c 0
 524.555555556 1516.55555556 524.666666667 1518.66666667 525 1521 c 0
 529 1538 538 1554 552 1567 c 1
 565 1581 580 1591 598 1595 c 0
 604 1597 610 1597 616 1597 c 0
 633 1597 648 1592 661 1579 c 2
 888 1329 l 2
EndSplineSet
EndChar

StartChar: aacute
Encoding: 225 225 180
Width: 996
Flags: HMW
LayerCount: 2
Fore
SplineSet
609 717 m 0
 764 717 842 610 844 559 c 1
 864 655 l 2
 871.779599276 691.758606581 875.625257834 725.528931269 875.625257834 756.082911817 c 0
 875.625257834 882.626897183 809.659562822 954 684 954 c 0
 590 954 497 922 442 877 c 1
 387 981 l 1
 469 1038 570 1090 713 1090 c 0
 891.506716969 1090 1018.96647202 982.234191517 1018.96647202 779.239048427 c 0
 1018.96647202 741.150992711 1014.47923105 699.710373103 1005 655 c 2
 979 532 l 1
 866 0 l 1
 727 0 l 1
 760 156 l 1
 761 158 l 1
 745 109 605 -29 450 -29 c 0
 267.148656582 -29 146.937930594 79.3314207293 146.937930594 252.974840407 c 0
 146.937930594 281.605288123 150.205936545 312.011284565 157 344 c 0
 203 559 404 717 609 717 c 0
613 582 m 0
 462 582 338 473 311 344 c 0
 307.249561961 326.2824134 305.439232264 309.166929389 305.439232264 292.794141502 c 0
 305.439232264 182.565491438 387.493539298 106 512 106 c 0
 639 106 772 211 800 344 c 0
 803.579324681 361.061447644 805.265384731 377.439611812 805.265384731 393.054667789 c 0
 805.265384731 508.316724431 713.398566214 582 613 582 c 0
693 1329 m 2
 1028 1579 l 2
 1047 1592 1062 1597 1079 1597 c 0
 1085 1597 1091 1597 1097 1595 c 0
 1113 1591 1124 1581 1131 1567 c 1
 1136.61249695 1557.87969246 1139.76404687 1547.28281669 1139.76404687 1535.8999756 c 0
 1139.76404687 1531.05782279 1139.19375153 1526.07344398 1138 1521 c 0
 1137 1514 1134 1509 1132 1504 c 0
 1125 1489 1113 1475 1096 1463 c 1
 744 1244 l 2
 735 1238 726 1235 717 1235 c 0
 713 1235 708 1236 703 1237 c 0
 691 1240 681 1247 675 1257 c 0
 670.857505441 1264.59457336 668.621706568 1272.18914672 668.621706568 1280.44192645 c 0
 668.621706568 1284.14249456 669.071247279 1287.97540488 670 1292 c 0
 671 1297 673 1302 675 1306 c 0
 679 1314 685 1322 693 1329 c 2
EndSplineSet
EndChar

StartChar: ccedilla
Encoding: 231 231 181
Width: 1011
Flags: HMW
LayerCount: 2
Fore
SplineSet
323 -294 m 1
 358 -272 431 -227 439 -190 c 0
 440.152640756 -184.23679622 440.044480477 -178.620422916 440.044480477 -172.682276009 c 0
 440.044480477 -147.55741077 424.434239649 -123.838702437 406 -86 c 1
 547 -30 l 1
 575 -64 597 -110 598 -164 c 0
 597 -176 597 -189 594 -202 c 0
 570 -313 418 -374 339 -419 c 1
 323 -294 l 1
927 809 m 1
 919 866 853 958 751 958 c 0
 585 958 406 784 353 537 c 0
 342.56341556 487.612591489 337.649358183 441.663737564 337.649358183 399.587134704 c 0
 337.649358183 215.891620862 431.30975332 106 568 106 c 0
 692 106 789 217 820 264 c 1
 926 187 l 1
 844 86 704 -29 539 -29 c 0
 316.55809647 -29 183.652750579 147.296787909 183.652750579 386.553263764 c 0
 183.652750579 434.479544573 188.985639075 484.93211199 200 537 c 0
 261 823 493 1094 780 1094 c 0
 942 1094 1032 993 1072 875 c 1
 927 809 l 1
EndSplineSet
EndChar

StartChar: ntilde
Encoding: 241 241 182
Width: 1044
Flags: HMW
LayerCount: 2
Fore
SplineSet
492 1364 m 1
 546 1401 617 1460 695 1460 c 0
 793 1460 825 1309 929 1309 c 0
 999 1309 1067 1362 1138 1407 c 1
 1107 1262 l 1
 1036 1214 972 1163 898 1163 c 0
 783 1163 745 1315 663 1315 c 0
 585 1315 527 1264 461 1218 c 1
 492 1364 l 1
291 0 m 1
 139 0 l 1
 367 1073 l 1
 519 1073 l 1
 481 892 l 1
 540 1004 672 1102 830 1102 c 0
 997.543683037 1102 1107.46959906 998.410610368 1107.46959906 765.317702237 c 0
 1107.46959906 700.685972614 1099.01810424 626.097552569 1081 541 c 2
 966 0 l 1
 815 0 l 1
 930 541 l 2
 943.518888619 603.998020964 950.970133635 663.925668056 950.970133635 717.837846841 c 0
 950.970133635 863.321418347 896.709734338 965 761 965 c 0
 575 965 454 768 406 540 c 2
 291 0 l 1
EndSplineSet
EndChar

StartChar: ugrave
Encoding: 249 249 183
Width: 996
Flags: HMW
LayerCount: 2
Fore
SplineSet
1023 1073 m 1
 1175 1073 l 1
 947 0 l 1
 795 0 l 1
 833 181 l 1
 774 69 642 -29 484 -29 c 0
 316.456316963 -29 206.530400941 74.5893896323 206.530400941 307.682297763 c 0
 206.530400941 372.314027386 214.981895757 446.902447431 233 532 c 2
 348 1073 l 1
 499 1073 l 1
 384 532 l 2
 370.481111381 469.001979036 363.029866365 409.074331944 363.029866365 355.162153159 c 0
 363.029866365 209.678581653 417.290265662 108 553 108 c 0
 739 108 860 305 908 533 c 2
 1023 1073 l 1
847 1329 m 2
 853 1322 857 1314 857 1306 c 0
 857 1302 857 1297 856 1292 c 0
 853 1279 845 1268 835 1257 c 0
 825 1247 813 1240 799 1237 c 0
 794 1236 789 1235 785 1235 c 0
 776 1235 767 1238 760 1244 c 2
 502 1463 l 1
 491 1475 485 1489 484 1504 c 0
 484 1507.33333333 483.555555556 1510.66666667 483.555555556 1514.59259259 c 0
 483.555555556 1516.55555556 483.666666667 1518.66666667 484 1521 c 0
 488 1538 497 1554 511 1567 c 1
 524 1581 539 1591 557 1595 c 0
 563 1597 569 1597 575 1597 c 0
 592 1597 607 1592 620 1579 c 2
 847 1329 l 2
EndSplineSet
EndChar

StartChar: uacute
Encoding: 250 250 184
Width: 996
Flags: HMW
LayerCount: 2
Fore
SplineSet
1065 1073 m 1
 1217 1073 l 1
 989 0 l 1
 837 0 l 1
 875 181 l 1
 816 69 684 -29 526 -29 c 0
 358.456316963 -29 248.530400941 74.5893896323 248.530400941 307.682297763 c 0
 248.530400941 372.314027386 256.981895757 446.902447431 275 532 c 2
 390 1073 l 1
 541 1073 l 1
 426 532 l 2
 412.481111381 469.001979036 405.029866365 409.074331944 405.029866365 355.162153159 c 0
 405.029866365 209.678581653 459.290265662 108 595 108 c 0
 781 108 902 305 950 533 c 2
 1065 1073 l 1
754 1329 m 2
 1089 1579 l 2
 1108 1592 1123 1597 1140 1597 c 0
 1146 1597 1152 1597 1158 1595 c 0
 1174 1591 1185 1581 1192 1567 c 1
 1197.61249695 1557.87969246 1200.76404687 1547.28281669 1200.76404687 1535.8999756 c 0
 1200.76404687 1531.05782279 1200.19375153 1526.07344398 1199 1521 c 0
 1198 1514 1195 1509 1193 1504 c 0
 1186 1489 1174 1475 1157 1463 c 1
 805 1244 l 2
 796 1238 787 1235 778 1235 c 0
 774 1235 769 1236 764 1237 c 0
 752 1240 742 1247 736 1257 c 0
 731.857505441 1264.59457336 729.621706568 1272.18914672 729.621706568 1280.44192645 c 0
 729.621706568 1284.14249456 730.071247279 1287.97540488 731 1292 c 0
 732 1297 734 1302 736 1306 c 0
 740 1314 746 1322 754 1329 c 2
EndSplineSet
EndChar

StartChar: figuredash
Encoding: 8210 8210 185
Width: 1087
Flags: HMW
LayerCount: 2
Fore
SplineSet
314 676 m 1
 1082 676 l 1
 1053 541 l 1
 285 541 l 1
 314 676 l 1
EndSplineSet
EndChar

StartChar: endash
Encoding: 8211 8211 186
Width: 1001
Flags: HMW
LayerCount: 2
Fore
SplineSet
314 676 m 1
 1000 676 l 1
 971 541 l 1
 285 541 l 1
 314 676 l 1
EndSplineSet
EndChar

StartChar: emdash
Encoding: 8212 8212 187
Width: 1290
Flags: HMW
LayerCount: 2
Fore
SplineSet
294 676 m 1
 1303 676 l 1
 1274 541 l 1
 265 541 l 1
 294 676 l 1
EndSplineSet
EndChar

StartChar: quoteleft
Encoding: 8216 8216 188
Width: 385
Flags: HMW
LayerCount: 2
Fore
SplineSet
338 1200 m 0
 371 1357 499 1480 528 1515 c 1
 577 1484 l 1
 550 1454 483 1378 468 1306 c 1
 520 1306 555 1271 555 1222 c 0
 556 1215 554 1207 553 1200 c 0
 540 1140 481 1092 422 1092 c 0
 370 1092 335 1129 335 1177 c 0
 335 1185 336 1192 338 1200 c 0
EndSplineSet
EndChar

StartChar: quoteright
Encoding: 8217 8217 189
Width: 385
Flags: HMW
LayerCount: 2
Fore
SplineSet
608 1401 m 0
 575 1244 447 1121 418 1086 c 1
 368 1117 l 1
 395 1147 463 1223 478 1295 c 1
 426 1295 391 1330 391 1379 c 0
 390 1386 392 1394 393 1401 c 0
 406 1461 465 1509 524 1509 c 0
 576 1509 611 1472 611 1424 c 0
 611 1416 610 1409 608 1401 c 0
EndSplineSet
EndChar

StartChar: quotesinglbase
Encoding: 8218 8218 190
Width: 385
Flags: HMW
LayerCount: 2
Fore
SplineSet
338 111 m 0
 305 -46 177 -169 148 -204 c 1
 98 -173 l 1
 125 -143 193 -67 208 5 c 1
 156 5 121 40 121 89 c 0
 120 96 122 104 123 111 c 0
 136 171 195 219 254 219 c 0
 306 219 340 182 340 134 c 0
 340 126 340 119 338 111 c 0
EndSplineSet
EndChar

StartChar: quotereversed
Encoding: 8219 8219 191
Width: 385
Flags: HMW
LayerCount: 2
Fore
SplineSet
361 1200 m 0
 394 1357 522 1480 551 1515 c 1
 600 1484 l 1
 573 1454 506 1378 491 1306 c 1
 543 1306 578 1271 578 1222 c 0
 579 1215 577 1207 576 1200 c 0
 563 1140 504 1092 445 1092 c 0
 393 1092 358 1129 358 1177 c 0
 358 1185 359 1192 361 1200 c 0
EndSplineSet
EndChar

StartChar: quotedblleft
Encoding: 8220 8220 192
Width: 677
Flags: HMW
LayerCount: 2
Fore
SplineSet
666 1200 m 0
 699 1357 827 1480 856 1515 c 1
 905 1484 l 1
 878 1454 811 1378 796 1306 c 1
 848 1306 883 1271 883 1222 c 0
 884 1215 882 1207 881 1200 c 0
 868 1140 809 1092 750 1092 c 0
 698 1092 663 1129 663 1177 c 0
 663 1185 664 1192 666 1200 c 0
336 1202 m 0
 369 1359 497 1482 526 1517 c 1
 576 1486 l 1
 549 1456 481 1380 466 1308 c 1
 518 1308 553 1273 553 1224 c 0
 554 1217 552 1209 551 1202 c 0
 538 1142 480 1094 421 1094 c 0
 369 1094 334 1131 334 1179 c 0
 334 1187 334 1194 336 1202 c 0
EndSplineSet
EndChar

StartChar: quotedblright
Encoding: 8221 8221 193
Width: 677
Flags: HMW
LayerCount: 2
Fore
SplineSet
938 1401 m 0
 905 1244 777 1121 748 1086 c 1
 698 1117 l 1
 725 1147 793 1223 808 1295 c 1
 756 1295 721 1330 721 1379 c 0
 720 1386 722 1394 723 1401 c 0
 736 1461 795 1509 854 1509 c 0
 906 1509 941 1472 941 1424 c 0
 941 1416 940 1409 938 1401 c 0
610 1403 m 0
 577 1246 449 1123 420 1088 c 1
 371 1119 l 1
 398 1149 466 1225 481 1297 c 1
 429 1297 394 1332 394 1381 c 0
 393 1388 394 1396 395 1403 c 0
 408 1463 467 1511 526 1511 c 0
 578 1511 613 1474 613 1426 c 0
 613 1418 612 1411 610 1403 c 0
EndSplineSet
EndChar

StartChar: Abreve
Encoding: 258 258 196
Width: 1302
Flags: HMW
LayerCount: 2
Fore
SplineSet
1010 1648 m 1
 1047 1650 1080 1659 1106 1674 c 1
 1151 1702 1206 1757 1269 1838 c 1
 1349 1838 l 1
 1348 1835 1348 1831 1347 1828 c 0
 1337 1783 1303 1723 1243 1649 c 0
 1212 1611 1171 1579 1118 1552 c 0
 1069 1527 1021 1514 977 1514 c 0
 933 1514 891 1527 852 1552 c 0
 811 1579 784 1611 769 1649 c 0
 748.089758345 1704.26278152 737.218148973 1751.71773792 737.218148973 1790.94838068 c 0
 737.218148973 1804.24979448 738.467943448 1816.60574552 741 1828 c 0
 742 1831 742 1835 743 1838 c 1
 824 1838 l 1
 841 1763 871 1709 916 1674 c 0
 938 1658 969 1649 1010 1648 c 1
1002 485 m 1
 505 485 l 1
 240 0 l 1
 64 0 l 1
 897 1456 l 1
 897 1456 974 1456 1024 1456 c 1
 1239 0 l 1
 1059 0 l 1
 1002 485 l 1
909 1214 m 1
 579 621 l 1
 994 621 l 1
 909 1214 l 1
EndSplineSet
EndChar

StartChar: abreve
Encoding: 259 259 197
Width: 996
Flags: HMW
LayerCount: 2
Fore
SplineSet
789 1301 m 1
 826 1303 858 1312 884 1327 c 1
 929 1355 984 1410 1047 1491 c 1
 1127 1491 l 1
 1126 1488 1126 1484 1125 1481 c 0
 1115 1436 1081 1376 1021 1302 c 0
 990 1264 949 1232 896 1205 c 0
 847 1180 799 1167 755 1167 c 0
 711 1167 669 1180 630 1205 c 0
 589 1232 562 1264 547 1302 c 0
 526.089758345 1357.26278152 515.218148973 1404.71773792 515.218148973 1443.94838068 c 0
 515.218148973 1457.24979448 516.467943448 1469.60574552 519 1481 c 0
 520 1484 520 1488 521 1491 c 1
 602 1491 l 1
 619 1416 649 1362 694 1327 c 0
 716 1311 748 1302 789 1301 c 1
609 717 m 0
 764 717 842 610 844 559 c 1
 864 655 l 2
 871.779599276 691.758606581 875.625257834 725.528931269 875.625257834 756.082911817 c 0
 875.625257834 882.626897183 809.659562822 954 684 954 c 0
 590 954 497 922 442 877 c 1
 387 981 l 1
 469 1038 570 1090 713 1090 c 0
 891.506716969 1090 1018.96647202 982.234191517 1018.96647202 779.239048427 c 0
 1018.96647202 741.150992711 1014.47923105 699.710373103 1005 655 c 2
 979 532 l 1
 866 0 l 1
 727 0 l 1
 760 156 l 1
 761 158 l 1
 745 109 605 -29 450 -29 c 0
 267.148656582 -29 146.937930594 79.3314207293 146.937930594 252.974840407 c 0
 146.937930594 281.605288123 150.205936545 312.011284565 157 344 c 0
 203 559 404 717 609 717 c 0
613 582 m 0
 462 582 338 473 311 344 c 0
 307.249561961 326.2824134 305.439232264 309.166929389 305.439232264 292.794141502 c 0
 305.439232264 182.565491438 387.493539298 106 512 106 c 0
 639 106 772 211 800 344 c 0
 803.579324681 361.061447644 805.265384731 377.439611812 805.265384731 393.054667789 c 0
 805.265384731 508.316724431 713.398566214 582 613 582 c 0
EndSplineSet
EndChar

StartChar: Aogonek
Encoding: 260 260 198
Width: 1302
Flags: HMW
LayerCount: 2
Fore
SplineSet
1223 -190 m 1
 1153 -315 l 1
 1147 -311 1134 -302 1112 -287 c 0
 1090 -272 1074 -260 1062 -250 c 0
 1050 -240 1037 -226 1021 -210 c 0
 1005 -194 995 -177 990 -158 c 0
 985 -139 986 -119 990 -98 c 0
 992 -89 996 -76 1002 -60 c 0
 1015 -31 1033 -3 1056 23 c 1
 1002 485 l 1
 505 485 l 1
 240 0 l 1
 64 0 l 1
 897 1456 l 1
 897 1456 974 1456 1024 1456 c 1
 1239 0 l 1
 1211 0 l 1
 1201 -11 1191 -21 1182 -31 c 0
 1169 -46 1160 -60 1156 -71 c 0
 1154 -78 1152 -83 1151 -86 c 0
 1149 -95 1150 -104 1154 -114 c 0
 1158 -124 1164 -134 1175 -145 c 0
 1186 -156 1193 -164 1198 -168 c 0
 1203 -172 1212 -180 1223 -190 c 1
909 1214 m 1
 579 621 l 1
 994 621 l 1
 909 1214 l 1
EndSplineSet
EndChar

StartChar: aogonek
Encoding: 261 261 199
Width: 996
Flags: HMW
LayerCount: 2
Fore
SplineSet
868 -190 m 1
 798 -315 l 1
 792 -311 779 -302 757 -287 c 0
 735 -272 719 -260 707 -250 c 0
 695 -240 682 -226 666 -210 c 0
 650 -194 640 -177 635 -158 c 0
 630 -139 631 -119 635 -98 c 0
 637 -89 641 -76 647 -60 c 0
 666 -17 697 24 740 61 c 1
 760 156 l 1
 761 158 l 1
 745 109 605 -29 450 -29 c 0
 267.148656582 -29 146.937930594 79.3314207293 146.937930594 252.974840407 c 0
 146.937930594 281.605288123 150.205936545 312.011284565 157 344 c 0
 203 559 404 717 609 717 c 0
 764 717 842 610 844 559 c 1
 864 655 l 2
 871.779599276 691.758606581 875.625257834 725.528931269 875.625257834 756.082911817 c 0
 875.625257834 882.626897183 809.659562822 954 684 954 c 0
 590 954 497 922 442 877 c 1
 387 981 l 1
 469 1038 570 1090 713 1090 c 0
 891.506716969 1090 1018.96647202 982.234191517 1018.96647202 779.239048427 c 0
 1018.96647202 741.150992711 1014.47923105 699.710373103 1005 655 c 2
 979 532 l 1
 870 19 l 1
 873 18 l 1
 872 17 870 15 869 14 c 2
 866 0 l 1
 856 0 l 1
 846 -11 836 -21 827 -31 c 0
 814 -46 805 -60 801 -71 c 0
 799 -78 797 -83 796 -86 c 0
 794 -95 795 -104 799 -114 c 0
 803 -124 809 -134 820 -145 c 0
 831 -156 838 -164 843 -168 c 0
 848 -172 857 -180 868 -190 c 1
613 582 m 0
 462 582 338 473 311 344 c 0
 307.249561961 326.2824134 305.439232264 309.166929389 305.439232264 292.794141502 c 0
 305.439232264 182.565491438 387.493539298 106 512 106 c 0
 639 106 772 211 800 344 c 0
 803.579324681 361.061447644 805.265384731 377.439611812 805.265384731 393.054667789 c 0
 805.265384731 508.316724431 713.398566214 582 613 582 c 0
EndSplineSet
EndChar

StartChar: Cacute
Encoding: 262 262 200
Width: 1220
Flags: HMW
LayerCount: 2
Fore
SplineSet
932 1676 m 2
 1266 1926 l 2
 1285 1939 1301 1944 1318 1944 c 0
 1324 1944 1330 1944 1336 1942 c 0
 1352 1938 1363 1928 1370 1914 c 1
 1378 1901 1381 1885 1377 1868 c 0
 1376 1861 1372 1856 1370 1851 c 0
 1363 1836 1352 1822 1335 1810 c 1
 983 1591 l 2
 974 1585 964 1582 955 1582 c 0
 951 1582 947 1583 942 1584 c 0
 930 1587 920 1594 914 1604 c 0
 908 1615 905 1626 908 1639 c 0
 909 1644 911 1649 913 1653 c 0
 917 1661 924 1669 932 1676 c 2
1229 293 m 1
 1134 133 959 -29 694 -29 c 0
 366.761988019 -29 229.007994424 205.29442814 229.007994424 497.693893051 c 0
 229.007994424 570.75130286 237.607620984 647.436060266 254 725 c 0
 337 1114 611 1495 1020 1495 c 0
 1285 1495 1388 1327 1407 1194 c 1
 1346 1178 1249 1153 1249 1153 c 1
 1236 1276 1126 1354 990 1354 c 2
 988 1354 l 2
 700 1354 486 1037 420 725 c 0
 406.271092943 660.191482862 399.390180122 596.524298097 399.390180122 536.179301906 c 0
 399.390180122 297.632352521 506.915628229 111 724 111 c 0
 868 111 1025 215 1091 334 c 1
 1145 318 1229 293 1229 293 c 1
EndSplineSet
EndChar

StartChar: cacute
Encoding: 263 263 201
Width: 921
Flags: HMW
LayerCount: 2
Fore
SplineSet
731 1329 m 2
 1066 1579 l 2
 1085 1592 1100 1597 1117 1597 c 0
 1123 1597 1129 1597 1135 1595 c 0
 1151 1591 1162 1581 1169 1567 c 1
 1174.61249695 1557.87969246 1177.76404687 1547.28281669 1177.76404687 1535.8999756 c 0
 1177.76404687 1531.05782279 1177.19375153 1526.07344398 1176 1521 c 0
 1175 1514 1172 1509 1170 1504 c 0
 1163 1489 1151 1475 1134 1463 c 1
 782 1244 l 2
 773 1238 764 1235 755 1235 c 0
 751 1235 746 1236 741 1237 c 0
 729 1240 719 1247 713 1257 c 0
 707 1268 705 1279 708 1292 c 0
 709 1297 711 1302 713 1306 c 0
 717 1314 723 1322 731 1329 c 2
917 809 m 1
 909 866 843 958 741 958 c 0
 575 958 396 784 343 537 c 0
 332.56341556 487.612591489 327.649358183 441.663737564 327.649358183 399.587134704 c 0
 327.649358183 215.891620862 421.30975332 106 558 106 c 0
 682 106 779 217 810 264 c 1
 916 187 l 1
 834 86 694 -29 529 -29 c 0
 306.55809647 -29 173.652750579 147.296787909 173.652750579 386.553263764 c 0
 173.652750579 434.479544573 178.985639075 484.93211199 190 537 c 0
 251 823 483 1094 770 1094 c 0
 932 1094 1022 993 1062 875 c 1
 917 809 l 1
EndSplineSet
EndChar

StartChar: Ccaron
Encoding: 268 268 202
Width: 1220
Flags: HMW
LayerCount: 2
Fore
SplineSet
1443 1858 m 1
 1090 1514 l 1
 959 1514 l 1
 755 1856 l 1
 941 1856 l 1
 1054 1645 l 1
 1255 1858 l 1
 1443 1858 l 1
1229 293 m 1
 1134 133 959 -29 694 -29 c 0
 366.761988019 -29 229.007994424 205.29442814 229.007994424 497.693893051 c 0
 229.007994424 570.75130286 237.607620984 647.436060266 254 725 c 0
 337 1114 611 1495 1020 1495 c 0
 1285 1495 1388 1327 1407 1194 c 1
 1346 1178 1249 1153 1249 1153 c 1
 1236 1276 1126 1354 990 1354 c 2
 988 1354 l 2
 700 1354 486 1037 420 725 c 0
 406.271092943 660.191482862 399.390180122 596.524298097 399.390180122 536.179301906 c 0
 399.390180122 297.632352521 506.915628229 111 724 111 c 0
 868 111 1025 215 1091 334 c 1
 1145 318 1229 293 1229 293 c 1
EndSplineSet
EndChar

